<?xml version="1.0" encoding="utf-8"?>
<!-- Generator: Adobe Illustrator 26.0.1, SVG Export Plug-In . SVG Version: 6.00 Build 0)  -->
<svg version="1.1" id="Layer_1" xmlns="http://www.w3.org/2000/svg" xmlns:xlink="http://www.w3.org/1999/xlink" x="0px" y="0px"
	 viewBox="0 0 1135.06 893.65" style="enable-background:new 0 0 1135.06 893.65;" xml:space="preserve">
<style type="text/css">
	.st0{opacity:0.33;}
	.st1{fill:url(#Ellipse_4_00000086665658248287869380000003653267619995368092_);}
	.st2{fill:#F5F4F5;}
	.st3{opacity:0.3;}
	.st4{fill:url(#Ellipse_4-2_00000070096812037007811880000009259039713475476381_);}
	.st5{fill:url(#Ellipse_4-3_00000121979101423821840470000005082789698713694861_);}
</style>
<g>
	<g id="Group_94_00000111172947720756168980000006517334883721441179_" transform="translate(797.961 389.409)" class="st0">
		
			<linearGradient id="Ellipse_4_00000059306316944016432930000000349430959436119719_" gradientUnits="userSpaceOnUse" x1="-543.2573" y1="403.3716" x2="-543.0463" y2="402.3716" gradientTransform="matrix(200.34 0 0 -195.08 109008.3516 78733.5312)">
			<stop  offset="0" style="stop-color:#F28E62"/>
			<stop  offset="1" style="stop-color:#EA4F96"/>
		</linearGradient>
		
			<ellipse id="Ellipse_4_00000147903502405633127660000003484004700701065355_" style="fill:url(#Ellipse_4_00000059306316944016432930000000349430959436119719_);" cx="192.43" cy="137.19" rx="100.17" ry="97.54"/>
		<path id="Polygon_1_00000139977788657312047360000007429002424194968463_" class="st2" d="M241.61,136
			c1.5,0.71,2.14,2.49,1.43,3.99c-0.3,0.63-0.8,1.14-1.43,1.43l-77.21,36.42c-1.5,0.71-3.29,0.07-3.99-1.43
			c-0.19-0.4-0.29-0.84-0.29-1.28V102.3c0-1.66,1.34-3,3-3c0.44,0,0.88,0.1,1.28,0.29L241.61,136z"/>
	</g>
	<g id="Group_96_00000078041712889415842480000004836306853856266403_" transform="translate(0 584)" class="st3">
		
			<linearGradient id="Ellipse_4-2_00000062163620587352851750000013221876598807274904_" gradientUnits="userSpaceOnUse" x1="254.7089" y1="208.7852" x2="254.9199" y2="207.7852" gradientTransform="matrix(201.626 0 0 -199.758 -51183.2344 41750.4219)">
			<stop  offset="0" style="stop-color:#F28E62"/>
			<stop  offset="1" style="stop-color:#EA4F96"/>
		</linearGradient>
		
			<ellipse id="Ellipse_4-2_00000045595483763771063390000015677869951313054899_" style="fill:url(#Ellipse_4-2_00000062163620587352851750000013221876598807274904_);" cx="193.07" cy="139.53" rx="100.81" ry="99.88"/>
		<path id="Polygon_1-2_00000142885013694835903000000012015023393025535362_" class="st2" d="M242.72,138.39
			c1.49,0.72,2.12,2.51,1.41,4c-0.3,0.61-0.79,1.11-1.41,1.41l-77.87,37.37c-1.49,0.72-3.29,0.09-4-1.4c-0.19-0.4-0.3-0.85-0.3-1.3
			v-74.74c0-1.66,1.35-3,3-3c0.45,0,0.89,0.1,1.3,0.3L242.72,138.39z"/>
	</g>
	<g id="Group_108_00000072985577447190282980000011213702521447066505_" transform="translate(201.626)" class="st3">
		
			<linearGradient id="Ellipse_4-3_00000015314455502307310540000012728950394379659408_" gradientUnits="userSpaceOnUse" x1="53.0829" y1="792.7852" x2="53.2939" y2="791.7852" gradientTransform="matrix(201.626 0 0 -199.758 -10530.1885 158409.0938)">
			<stop  offset="0" style="stop-color:#F28E62"/>
			<stop  offset="1" style="stop-color:#EA4F96"/>
		</linearGradient>
		
			<ellipse id="Ellipse_4-3_00000113327256826772088930000010057567135793051286_" style="fill:url(#Ellipse_4-3_00000015314455502307310540000012728950394379659408_);" cx="193.07" cy="139.53" rx="100.81" ry="99.88"/>
		<path id="Polygon_1-3_00000017478056022784282390000003509466782298224569_" class="st2" d="M242.72,138.39
			c1.49,0.72,2.12,2.51,1.41,4c-0.3,0.61-0.79,1.11-1.41,1.41l-77.87,37.37c-1.49,0.72-3.29,0.09-4-1.4c-0.19-0.4-0.3-0.85-0.3-1.3
			v-74.74c0-1.66,1.35-3,3-3c0.45,0,0.89,0.1,1.3,0.3L242.72,138.39z"/>
	</g>
</g>
</svg>
