<?xml version="1.0" encoding="utf-8"?>
<!-- Generator: Adobe Illustrator 26.0.1, SVG Export Plug-In . SVG Version: 6.00 Build 0)  -->
<svg version="1.1" id="Layer_1" xmlns="http://www.w3.org/2000/svg" xmlns:xlink="http://www.w3.org/1999/xlink" x="0px" y="0px"
	 viewBox="0 0 1043.17 792" style="enable-background:new 0 0 1043.17 792;" xml:space="preserve">
<style type="text/css">
	.st0{opacity:0.51;fill:#F28E62;enable-background:new    ;}
	.st1{opacity:0.91;}
	.st2{opacity:0.5;}
	.st3{fill:#F28E62;}
	.st4{fill:#E0E0E0;}
	.st5{fill:#263239;}
	.st6{fill:none;}
	.st7{fill:#010202;}
	.st8{fill:#F8BC9E;}
	.st9{fill:#A36958;}
	.st10{fill:#E9505B;}
	.st11{fill:#D37C59;}
	.st12{fill:#FBFBFB;}
	.st13{fill:#455A64;}
	.st14{opacity:0.2;}
	.st15{opacity:0.2;fill:#D37C59;enable-background:new    ;}
	.st16{fill:#FFFFFF;}
	.st17{fill:#EC9A6E;}
	.st18{fill:#B78876;}
	.st19{fill:#AB6550;}
	.st20{fill:#BC5C71;}
	.st21{opacity:0.2;fill:#BC5C71;enable-background:new    ;}
	.st22{fill:#ED6C81;}
	.st23{opacity:0.2;fill:#F28E62;enable-background:new    ;}
</style>
<g id="Background_Complete" transform="translate(0 207.608)">
	<path id="Path_445" class="st0" d="M982.31,191.87l-7.84-15.62l-12.29,2.07l-10.14-14.58l5.22-14.52l-13.7-10.4l-10.23,11.8
		l-13.47-2.7l-5.46-18.11l-16.36,1.98l-0.92,15.85l-12.19,7.09L872,144.28l-13.09,10.9l6.8,16.78l-7.79,13.42l-14.17-0.87
		l-3.69,19.97l13.47,5.93l1.16,16.78l-13.96,9.17l6.68,17.31l14.46-2.56l9.58,12.64l-5.01,15.75l13.24,10.7L890,277.41l14.34,4.44
		l4.47,16.92l15.94-1.23l2.06-15.2l13.66-8.97l11.18,10.21l14.14-12.05l-7.15-14.23l6.97-14.27l14.33,1.21l4.4-18.58l-12.31-7.62
		l-1.63-16.93L982.31,191.87z M926.8,246.55c-15.43,10.12-35.12,4.04-43.98-13.61s-3.53-40.16,11.9-50.29s35.12-4.04,43.98,13.61
		S942.23,236.43,926.8,246.55L926.8,246.55z"/>
	<g id="Group_159" transform="translate(0 85.172)" class="st1">
		<g id="Group_133">
			<g id="Group_132" class="st2">
				<g id="Group_131">
					<g id="Group_130">
						<path id="Path_446" class="st3" d="M230.67,324.92c24.23-23.93,26.66-63.36,22.49-98.04c-0.7-5.79-0.7-11.98-3.57-16.79
							s-8.83-7.64-13.15-4.64c-3.59,2.47-4.78,7.69-6.51,12.09c-2.19,5.7-5.91,10.68-10.74,14.42c-3.06,2.3-6.96,3.95-10.33,2.31
							c-4.63-2.24-5.77-9.11-6.26-14.9l-2.73-32.32c-0.49-5.79-1.01-11.68-3.07-16.98s-6-9.98-10.94-10.96
							c-5.31-0.79-10.25,2.87-11.04,8.18c-0.02,0.17-0.05,0.33-0.06,0.5c-0.21,2.4,0.43,4.8,0.51,7.22
							c0.08,2.42-0.66,5.19-2.59,6.09c-1.96,0.91-4.12-0.48-5.79-2c-5.74-5.22-9.95-12.32-13.94-19.41
							c-3.98-7.09-7.88-14.36-13.19-20.16c-5.31-5.8-12.31-10.08-19.59-9.69c-8.01,0.66-14.5,6.78-15.62,14.74
							c-1.1,8.36,3.81,16.14,8.92,22.2c7.42,8.84,16.12,16.53,25.8,22.82c1.71,1.1,3.57,2.3,4.36,4.37c1.44,3.72-1.4,7.92-4.62,9.59
							c-3.64,1.88-7.77,1.91-11.66,2.91c-3.9,1-7.98,3.48-9.09,7.92c-1.54,6.15,3.34,11.83,7.96,15.39
							c9.05,7.01,19.33,12.27,30.31,15.5c3.86,1.11,7.89,2.02,11.16,4.66s5.54,7.61,4.1,11.9s-5.97,6.15-9.94,5.77
							s-7.68-2.37-11.52-3.53c-7.21-2.18-16.14-0.58-19.96,6.81c-2.52,4.86-2.2,11.17-0.24,16.37c1.96,5.21,5.38,9.49,8.96,13.38
							c12.48,13.62,27.81,23.96,44.5,28.45c16.65,4.44,31.74,4.41,47.14-4.17"/>
					</g>
				</g>
			</g>
		</g>
		<g id="Group_138" transform="translate(6.669 5.953)">
			<g id="Group_137">
				<g id="Group_136">
					<g id="Group_135">
						<g id="Group_134">
							<path id="Path_447" class="st4" d="M226.72,344.73c-2.85-15.88-7.05-31.49-12.56-46.65c-6.07-17.04-14.06-35.08-23.01-53.63
								c-2.25-4.63-4.47-9.19-6.67-13.7c-2.2-4.5-4.38-8.95-6.74-13.15c-4.52-8.02-9.46-15.79-14.8-23.28
								c-5.02-7.14-10.02-13.71-14.72-19.81s-9.21-11.68-13.5-16.57c-6.65-7.68-13.91-14.82-21.7-21.35
								c-2.72-2.29-4.89-3.98-6.38-5.09c-0.71-0.54-1.26-0.95-1.69-1.27c-0.19-0.15-0.38-0.28-0.59-0.4
								c0.16,0.18,0.35,0.35,0.54,0.49c0.4,0.33,0.95,0.78,1.64,1.36c1.44,1.19,3.58,2.92,6.26,5.25
								c7.69,6.63,14.86,13.83,21.45,21.55c4.25,4.92,8.7,10.51,13.38,16.63c4.68,6.12,9.64,12.71,14.63,19.86
								c5.3,7.48,10.21,15.23,14.7,23.23c2.35,4.19,4.5,8.61,6.7,13.1s4.4,9.07,6.65,13.7c8.93,18.53,16.94,36.52,23.03,53.48
								c5.53,15.09,9.78,30.62,12.7,46.42"/>
						</g>
					</g>
				</g>
			</g>
		</g>
		<g id="Group_143" transform="translate(79.676 29.282)">
			<g id="Group_142">
				<g id="Group_141">
					<g id="Group_140">
						<g id="Group_139">
							<path id="Path_448" class="st4" d="M104.49,194.26c0.17-0.83,0.25-1.67,0.27-2.52c0.13-1.63,0.23-3.99,0.33-6.91
								c0.19-5.84,0.23-13.91,0.23-22.81s0.13-16.95,0.4-22.78c0.13-2.91,0.25-5.26,0.35-6.88c0.11-0.84,0.13-1.7,0.05-2.55
								c-0.22,0.82-0.36,1.65-0.42,2.5c-0.21,1.62-0.44,3.96-0.66,6.88c-0.44,5.83-0.68,13.91-0.68,22.82
								c0.01,8.78,0.04,16.73,0.05,22.79c-0.01,2.75-0.03,5.05-0.03,6.91C104.34,192.57,104.38,193.42,104.49,194.26z"/>
						</g>
					</g>
				</g>
			</g>
		</g>
		<g id="Group_148" transform="translate(13.576 86.69)">
			<g id="Group_147">
				<g id="Group_146">
					<g id="Group_145">
						<g id="Group_144">
							<path id="Path_449" class="st4" d="M104.36,130.62c0.87,0.11,1.75,0.12,2.62,0.04c1.68-0.03,4.11-0.09,7.12-0.04
								c6.02,0.03,14.33,0.4,23.48,1.29s17.4,2.11,23.36,3.18c2.99,0.51,5.38,1,7.04,1.33c0.85,0.23,1.73,0.37,2.61,0.42
								c-0.81-0.36-1.66-0.64-2.53-0.82c-1.64-0.45-4.04-1.06-7.01-1.68c-7.73-1.59-15.53-2.76-23.39-3.5
								c-7.83-0.79-15.7-1.11-23.56-0.97c-3.02,0.06-5.45,0.22-7.13,0.38C106.09,130.29,105.22,130.41,104.36,130.62z"/>
						</g>
					</g>
				</g>
			</g>
		</g>
		<g id="Group_153" transform="translate(115.554 74.201)">
			<g id="Group_152">
				<g id="Group_151">
					<g id="Group_150">
						<g id="Group_149">
							<path id="Path_450" class="st4" d="M104.37,228.55c0.16-0.3,0.28-0.62,0.37-0.95c0.24-0.77,0.52-1.69,0.87-2.82
								c0.75-2.46,1.75-6.03,2.92-10.47c2.37-8.88,5.3-21.26,8.37-34.98s5.91-26.12,8.11-35.04c1.09-4.34,1.97-7.91,2.63-10.56
								c0.28-1.16,0.52-2.1,0.71-2.88c0.1-0.33,0.16-0.68,0.19-1.03c-0.16,0.3-0.28,0.62-0.37,0.95c-0.24,0.77-0.52,1.69-0.87,2.82
								c-0.75,2.46-1.74,6.03-2.92,10.47c-2.37,8.88-5.3,21.26-8.37,34.98s-5.91,26.12-8.11,35.04c-1.09,4.34-1.97,7.91-2.63,10.56
								c-0.28,1.16-0.52,2.1-0.71,2.88C104.46,227.86,104.39,228.2,104.37,228.55z"/>
						</g>
					</g>
				</g>
			</g>
		</g>
		<g id="Group_158" transform="translate(26.351 151.289)">
			<g id="Group_157">
				<g id="Group_156">
					<g id="Group_155">
						<g id="Group_154">
							<path id="Path_451" class="st4" d="M104.36,129.83c0.28,0.15,0.59,0.25,0.9,0.3c0.7,0.17,1.56,0.4,2.59,0.67
								c2.39,0.58,5.63,1.37,9.55,2.33c8.07,1.98,19.19,4.85,31.46,8.04s23.44,5.96,31.53,7.74c4.05,0.9,7.34,1.58,9.61,2
								c1.05,0.19,1.92,0.33,2.63,0.46c0.61,0.1,0.92,0.13,0.92,0.09c-0.28-0.15-0.59-0.25-0.9-0.3c-0.7-0.17-1.56-0.39-2.59-0.67
								c-2.39-0.58-5.63-1.37-9.55-2.33c-8.07-1.97-19.19-4.85-31.47-8.04c-12.28-3.2-23.42-5.96-31.53-7.74
								c-4.05-0.9-7.34-1.58-9.61-2c-1.05-0.19-1.92-0.35-2.63-0.46C104.97,129.84,104.67,129.82,104.36,129.83z"/>
						</g>
					</g>
				</g>
			</g>
		</g>
	</g>
</g>
<g id="Floor" transform="translate(33.042 516.94)">
	<g id="Group_160">
		<path id="Path_452" class="st5" d="M921.07,130.19c0,0.2-182.84,0.38-408.33,0.38c-225.57,0-408.37-0.17-408.37-0.38
			s182.8-0.38,408.37-0.38C738.23,129.82,921.07,129.99,921.07,130.19z"/>
	</g>
</g>
<g id="Character_2" transform="translate(400.821 136.323)">
	<g id="Group_163" transform="translate(243.275)">
		<path id="Path_453" class="st6" d="M189.33,167.04l-4.67-9.29l-7.31,1.23l-6.03-8.66l3.12-8.63l-8.15-6.18l-6.08,7.01l-8.01-1.6
			l-3.25-10.77l-9.74,1.17l-0.56,9.41l-7.25,4.21l-7.68-6.22l-7.79,6.48l4.05,9.96l-4.63,7.98l-8.42-0.51l-2.2,11.87l8.01,3.53
			l0.7,9.98l-8.31,5.45l3.97,10.3l8.6-1.53l5.69,7.52l-2.97,9.37l7.88,6.36l6.15-7.61l8.53,2.63l2.66,10.07l9.47-0.74l1.23-9.04
			l8.12-5.34l6.65,6.06l8.41-7.16l-4.25-8.46l4.14-8.49l8.53,0.72l2.62-11.05l-7.31-4.53l-0.97-10.07L189.33,167.04z M156.32,199.55
			c-9.17,6.02-20.88,2.4-26.14-8.08s-2.1-23.88,7.07-29.89s20.88-2.4,26.14,8.08S165.5,193.52,156.32,199.55L156.32,199.55z"/>
		<g id="Group_161" transform="translate(22.97 28.466)">
			<path id="Path_454" class="st7" d="M133.35,171.09c1.3-1.03,2.53-2.15,3.67-3.35c1.33-1.5,2.45-3.18,3.3-4.99
				c1.19-2.47,1.94-5.13,2.23-7.85c0.37-3.33,0.06-6.69-0.92-9.89c-1.07-3.54-3.02-6.76-5.67-9.34c-1.34-1.33-2.9-2.43-4.6-3.25
				c-1.7-0.88-3.55-1.44-5.45-1.66c-4.02-0.5-8.09,0.46-11.47,2.7c-3.58,2.43-6.32,5.91-7.83,9.96c-1.52,3.95-1.98,8.23-1.35,12.41
				c0.54,3.72,1.98,7.26,4.2,10.3c1.83,2.5,4.23,4.53,7.01,5.9c2.2,1.08,4.61,1.68,7.06,1.75c1.84,0.06,3.68-0.19,5.44-0.75
				C130.47,172.48,131.94,171.84,133.35,171.09c-0.08,0.07-0.17,0.13-0.26,0.19c-0.22,0.13-0.48,0.3-0.8,0.51
				c-0.42,0.28-0.87,0.52-1.34,0.72c-0.61,0.31-1.25,0.58-1.91,0.78c-1.77,0.61-3.64,0.91-5.52,0.88c-2.5-0.03-4.96-0.6-7.22-1.68
				c-2.87-1.38-5.35-3.43-7.25-5.99c-3.57-4.9-5.19-10.95-4.55-16.98c0.2-2.21,0.72-4.37,1.53-6.44c1.57-4.2,4.4-7.8,8.1-10.33
				c3.5-2.32,7.71-3.31,11.88-2.79c1.96,0.24,3.87,0.82,5.63,1.74c1.75,0.86,3.36,2.01,4.74,3.38c2.71,2.68,4.7,6,5.78,9.66
				c0.99,3.29,1.28,6.75,0.87,10.17c-0.32,2.78-1.13,5.48-2.38,7.99c-0.9,1.83-2.06,3.51-3.45,5c-0.48,0.54-1,1.04-1.56,1.49
				c-0.38,0.36-0.79,0.68-1.23,0.97c-0.32,0.22-0.57,0.39-0.78,0.54C133.55,170.97,133.45,171.04,133.35,171.09z"/>
		</g>
		<g id="Group_162">
			<path id="Path_455" class="st7" d="M189.33,167.04c0,0-0.14,0.12-0.43,0.36c-0.32,0.25-0.75,0.59-1.33,1.06
				c-1.2,0.96-2.97,2.34-5.29,4.16l0.04-0.1c0.28,2.73,0.62,6.12,1.01,10.07l-0.08-0.12c2.16,1.33,4.64,2.85,7.32,4.5l0.11,0.07
				l-0.04,0.15c-0.78,3.34-1.66,7.06-2.59,11.06l-0.04,0.17l-0.16-0.01c-2.66-0.22-5.53-0.45-8.53-0.69l0.2-0.13
				c-1.28,2.63-2.68,5.51-4.12,8.49v-0.26c1.32,2.62,2.77,5.5,4.26,8.46l0.11,0.22l-0.18,0.15c-2.61,2.23-5.45,4.67-8.4,7.17
				l-0.16,0.15l-0.16-0.15c-2.05-1.87-4.33-3.93-6.65-6.06l0.3,0.03c-2.52,1.65-5.29,3.49-8.12,5.35l0.14-0.23
				c-0.38,2.79-0.8,5.89-1.21,9.04l-0.04,0.26l-0.23,0.01c-2.93,0.23-6.18,0.48-9.47,0.74l-0.24,0.01l-0.06-0.26
				c-0.82-3.12-1.73-6.57-2.66-10.07l0.22,0.23c-2.66-0.82-5.58-1.72-8.53-2.63l0.32-0.1c-1.91,2.37-4.02,4.98-6.15,7.61l-0.19,0.23
				l-0.23-0.19c-2.47-2-5.16-4.16-7.88-6.35l-0.2-0.16l0.09-0.26c0.94-2.94,1.95-6.15,2.97-9.37l0.06,0.38
				c-1.8-2.36-3.73-4.93-5.69-7.52l0.3,0.13c-2.72,0.48-5.64,1-8.6,1.53l-0.25,0.04l-0.1-0.26c-1.27-3.27-2.61-6.77-3.97-10.3
				l-0.11-0.3l0.25-0.17c0.05-0.04,0.11-0.07,0.18-0.12c2.73-1.79,5.44-3.57,8.13-5.34l-0.16,0.36c-0.23-3.36-0.46-6.68-0.68-9.98
				l0.22,0.32c-2.69-1.19-5.36-2.36-8.01-3.53l-0.27-0.12l0.06-0.3c0.75-4.01,1.48-7.96,2.2-11.87l0.06-0.3l0.28,0.01
				c2.85,0.17,5.64,0.35,8.42,0.52l-0.28,0.16c1.57-2.69,3.12-5.35,4.64-7.98l-0.03,0.35c-1.37-3.38-2.72-6.7-4.03-9.98l-0.1-0.26
				l0.2-0.17c2.64-2.2,5.24-4.36,7.79-6.48l0.18-0.15l0.18,0.15l7.68,6.22l-0.3-0.03c2.48-1.43,4.9-2.84,7.26-4.21l-0.15,0.26
				c0.19-3.24,0.38-6.36,0.56-9.41l0.01-0.26l0.23-0.03c3.36-0.4,6.6-0.78,9.74-1.16l0.2-0.03l0.06,0.23
				c1.13,3.76,2.2,7.33,3.24,10.77l-0.19-0.19c2.85,0.58,5.46,1.11,8.01,1.62l-0.2,0.07c2.19-2.52,4.19-4.8,6.1-7l0.13-0.15
				l0.15,0.12c2.96,2.26,5.63,4.3,8.13,6.2l0.13,0.1l-0.06,0.16c-1.18,3.24-2.19,6.03-3.12,8.62l-0.03-0.19
				c2.32,3.35,4.28,6.19,6.01,8.69l-0.13-0.06c3.05-0.49,5.35-0.87,7.31-1.19l0.06-0.01l0.04,0.07c1.56,3.17,2.71,5.51,3.49,7.07
				c0.37,0.75,0.65,1.32,0.84,1.72C189.26,166.86,189.33,167.05,189.33,167.04c0,0-0.12-0.18-0.3-0.56s-0.49-0.96-0.89-1.71
				c-0.78-1.55-1.96-3.83-3.55-6.96l0.1,0.06c-1.96,0.33-4.26,0.74-7.3,1.27l-0.08,0.01l-0.05-0.07c-1.75-2.49-3.72-5.31-6.06-8.65
				l-0.06-0.09l0.04-0.1c0.94-2.6,1.92-5.38,3.09-8.63l0.08,0.26c-2.5-1.9-5.19-3.92-8.16-6.16l0.27-0.03
				c-1.9,2.2-3.88,4.5-6.07,7.03l-0.09,0.1l-0.11-0.03c-2.54-0.51-5.16-1.03-8.01-1.59l-0.14-0.03l-0.05-0.16
				c-1.04-3.44-2.12-7-3.26-10.76l0.28,0.2c-3.14,0.39-6.36,0.78-9.73,1.19l0.24-0.29c-0.18,3.05-0.35,6.18-0.54,9.41l-0.01,0.19
				l-0.14,0.09c-2.36,1.37-4.77,2.78-7.25,4.22l-0.15,0.09l-0.14-0.12c-2.52-2.02-5.08-4.09-7.68-6.2h0.35
				c-2.54,2.13-5.14,4.28-7.78,6.49l0.1-0.43c1.33,3.27,2.68,6.58,4.05,9.96l0.08,0.19l-0.1,0.17c-1.52,2.63-3.06,5.29-4.63,7.98
				l-0.1,0.17l-0.18-0.01c-2.77-0.17-5.58-0.33-8.42-0.51l0.33-0.29c-0.72,3.9-1.45,7.86-2.2,11.87l-0.2-0.42
				c2.64,1.17,5.33,2.34,8.01,3.53l0.19,0.09l0.01,0.23c0.23,3.3,0.46,6.62,0.7,9.98l0.01,0.23l-0.18,0.12
				c-2.69,1.76-5.41,3.54-8.13,5.34c-0.06,0.04-0.13,0.09-0.18,0.12l0.14-0.48c1.37,3.53,2.71,7.03,3.97,10.3l-0.35-0.22
				c2.95-0.52,5.88-1.04,8.6-1.52l0.18-0.03l0.11,0.16c1.96,2.59,3.9,5.15,5.69,7.52l0.13,0.16l-0.06,0.2
				c-1.03,3.23-2.05,6.42-2.98,9.37l-0.11-0.43c2.72,2.2,5.4,4.37,7.87,6.36l-0.42,0.04c2.12-2.63,4.22-5.22,6.15-7.59l0.13-0.16
				l0.18,0.06c2.96,0.91,5.87,1.82,8.53,2.65l0.16,0.06l0.05,0.19c0.92,3.5,1.82,6.94,2.64,10.07l-0.3-0.25
				c3.3-0.25,6.54-0.49,9.47-0.72l-0.27,0.27c0.43-3.15,0.85-6.25,1.23-9.04l0.03-0.16l0.11-0.07c2.83-1.85,5.62-3.67,8.13-5.32
				l0.16-0.1l0.14,0.13c2.33,2.13,4.59,4.21,6.64,6.07h-0.32c2.95-2.5,5.81-4.93,8.41-7.14l-0.06,0.36
				c-1.49-2.98-2.92-5.86-4.24-8.48l-0.06-0.13l0.06-0.13c1.46-2.98,2.87-5.84,4.16-8.48l0.06-0.13l0.14,0.01
				c3,0.26,5.87,0.51,8.53,0.74l-0.2,0.16c0.95-3.99,1.85-7.71,2.64-11.04l0.08,0.22c-2.68-1.68-5.15-3.21-7.3-4.56l-0.06-0.04
				l-0.01-0.09c-0.37-3.95-0.68-7.33-0.94-10.07l-0.01-0.07l0.05-0.04c2.33-1.76,4.09-3.1,5.3-4.02c0.59-0.45,1.05-0.78,1.37-1.03
				C189.01,167.29,189.17,167.16,189.33,167.04z"/>
		</g>
	</g>
	<g id="Group_223" transform="translate(0 4.443)">
		<g id="Group_172" transform="translate(0 185.012)">
			<g id="Group_165">
				<g id="Group_164">
					<path id="Path_456" class="st8" d="M248.09,129.82c0,0-5.35,72.72-16.87,76.26c-31.37,9.63-67.25,2.5-79.85-0.32
						c-1.42-1.39-3.05-3.07-4.88-5.16c-1.61-1.85-2.9-3.94-3.85-6.2c-1.19-2.81-2.63-6.6-2.87-8.97c-0.3-2.92-3.48-3.9-4.6-1.56
						s-1.59,11.22,2.63,19.31c0.78,2.07-0.24,4.38-2.3,5.19c-5.33,2.24-24.1,8.91-27.13,10.56c-2.69,1.46-5.3,4.08-2.47,4.6
						s18.34-2.02,18.34-2.02s-20.38,2.86-19.87,6.25c0.34,2.33,5.83,3.44,19.15,0.01c0,0-16.77,2.52-18.52,4.53
						c-3.96,4.54,16.24,1.75,16.24,1.75c-14.14,2.1-13.99,1.26-14.14,3.47c-0.11,1.66,3.09,2.33,10.85,2.44
						c6.3,0.09,12.81,1.62,22.4,2.34l0,0c0,0,121.22,39.22,137.9-21.8c8.99-32.89,9.04-45.4,12.16-66.96"/>
				</g>
			</g>
			<g id="Group_167" transform="translate(5.979 102.945)">
				<g id="Group_166">
					<path id="Path_457" class="st9" d="M123.78,130.03c0.05,0.4-4.26,1.26-9.64,1.89s-9.75,0.82-9.78,0.42s4.3-1.26,9.64-1.89
						S123.73,129.62,123.78,130.03z"/>
				</g>
			</g>
			<g id="Group_169" transform="translate(4.714 96.735)">
				<g id="Group_168">
					<path id="Path_458" class="st9" d="M124.92,129.95c0.06,0.4-4.49,1.61-10.17,2.68s-10.32,1.62-10.38,1.21s4.49-1.61,10.17-2.68
						S124.85,129.54,124.92,129.95z"/>
				</g>
			</g>
			<g id="Group_171" transform="translate(5.688 90.2)">
				<g id="Group_170">
					<path id="Path_459" class="st9" d="M123.77,129.95c0.06,0.4-4.23,1.62-9.59,2.72s-9.75,1.66-9.82,1.26s4.23-1.62,9.59-2.72
						S123.7,129.54,123.77,129.95z"/>
				</g>
			</g>
		</g>
		<path id="Path_460" class="st10" d="M260.54,258.68c0,0-17.87,61.36-16.72,63.82l39.32,10.43L260.54,258.68z"/>
		<path id="Path_461" class="st11" d="M260.54,258.68c0,0-17.87,61.36-16.72,63.82l39.32,10.43L260.54,258.68z"/>
		<g id="Group_173" transform="translate(156.722 133.547)">
			<path id="Path_462" class="st12" d="M123.62,129.82c-0.61,0.9-1.38,1.68-2.28,2.3c-1.99,1.56-4.29,2.69-6.74,3.31
				c-2.4,0.6-4.91,0.67-7.34,0.2c-1.03-0.14-2.01-0.49-2.91-1.01c0.04-0.13,1.14,0.25,2.97,0.48c2.38,0.3,4.8,0.16,7.13-0.42
				c2.37-0.61,4.61-1.63,6.63-3.02C122.68,130.59,123.55,129.72,123.62,129.82z"/>
		</g>
		<g id="Group_174" transform="translate(79.82 172.14)">
			<path id="Path_463" class="st5" d="M439.45,134.96l-69.6,198.96H174.51l62.05-201.66c0.36-1.39,1.58-2.38,3.01-2.44l196.91,0.14
				C438.75,129.96,440.29,132.58,439.45,134.96z"/>
			<path id="Path_464" class="st13" d="M428.74,140.71l-63.91,178.25c-0.24,0.74-0.92,1.25-1.7,1.27H185.17
				c-1.11-0.09-1.93-1.06-1.84-2.17c0.02-0.19,0.06-0.37,0.12-0.55l56.63-178.25c0.21-0.78,0.91-1.33,1.72-1.36h185.25
				c1.12,0.11,1.94,1.1,1.84,2.22C428.87,140.32,428.82,140.52,428.74,140.71z"/>
			<path id="Path_465" class="st5" d="M369.85,334.22H104.36v-13.98h258.28L369.85,334.22z"/>
		</g>
		<path id="Path_466" class="st5" d="M405.43,438.94l7.88,52.48H290.38l4.7-40.78L405.43,438.94z"/>
		<path id="Path_467" class="st3" d="M294.24,373.95l-3.86,87.83l118.75-15.37l-18.59-84.89c0,0-12.78-98.42-36.06-109.33
			c-8.99-4.21-17.59-6.8-24.7-9.11c-14.72-4.81-30.35-6.13-45.66-3.86l-2.39,0.35c-9.92,1.46-18.2,8.88-21.2,19.12
			c0,0-0.42,30.23,7.7,50.24L294.24,373.95z"/>
		<g id="Group_175" transform="translate(217.308 328.029)">
			<path id="Path_468" class="st13" d="M105.04,161.73c-0.18,0-0.44-7.14-0.59-15.95s-0.11-15.97,0.08-15.97s0.44,7.13,0.59,15.95
				S105.23,161.73,105.04,161.73z"/>
		</g>
		<g id="Group_176" transform="translate(222.452 331.303)">
			<path id="Path_469" class="st13" d="M106.44,130.58c-0.03-0.03,0.13-0.23,0.52-0.39c0.56-0.19,1.18-0.12,1.68,0.19
				c0.87,0.51,1.37,1.47,1.3,2.47c-0.01,1.22-0.73,2.33-1.85,2.83c-1.09,0.34-2.28-0.04-2.97-0.95c-0.62-0.77-0.88-1.77-0.72-2.75
				c0.27-1.68,1.16-2.24,1.18-2.15c-0.37,0.69-0.61,1.44-0.71,2.21c-0.06,0.8,0.19,1.59,0.7,2.21c0.56,0.69,1.49,0.97,2.34,0.72
				c0.84-0.39,1.4-1.22,1.44-2.15c0.07-0.77-0.28-1.53-0.92-1.97C107.84,130.47,107.11,130.37,106.44,130.58z"/>
		</g>
		<g id="Group_177" transform="translate(254.404 322.735)">
			<path id="Path_470" class="st13" d="M152.98,147.73c-0.14,0.16-0.29,0.31-0.47,0.43c-0.33,0.25-0.78,0.67-1.43,1.08
				c-1.79,1.23-3.71,2.26-5.73,3.05c-6.59,2.65-13.92,2.77-20.59,0.36c-3.73-1.42-7.16-3.54-10.11-6.25
				c-2.5-2.29-4.67-4.91-6.44-7.8c-1.23-2-2.27-4.11-3.09-6.3c-0.32-0.78-0.47-1.42-0.61-1.84c-0.08-0.22-0.13-0.44-0.16-0.67
				c0.05-0.03,0.37,0.85,1,2.37c0.9,2.13,1.98,4.18,3.24,6.12c1.79,2.8,3.96,5.35,6.44,7.56c2.9,2.62,6.27,4.68,9.93,6.07
				c3.57,1.29,7.36,1.87,11.16,1.71c3.11-0.13,6.17-0.76,9.08-1.85c2-0.74,3.93-1.68,5.74-2.81
				C151.6,148.52,152.28,148.1,152.98,147.73z"/>
		</g>
		<g id="Group_178" transform="translate(161.54 167.864)">
			<path id="Path_471" class="st12" d="M149.96,129.85c-0.42,0.57-0.9,1.1-1.42,1.58c-1.32,1.37-2.74,2.64-4.24,3.8
				c-2.15,1.75-4.72,2.91-7.46,3.36c-3.09,0.42-6.44-0.62-9.61-2.21c-3.2-1.61-6.07-3.47-8.87-4.61c-2.39-1.13-5.05-1.56-7.68-1.24
				c-1.79,0.23-3.49,0.98-4.87,2.14c-1,0.87-1.4,1.53-1.45,1.49c0.07-0.18,0.16-0.34,0.28-0.49c0.3-0.44,0.64-0.84,1.03-1.21
				c1.37-1.29,3.1-2.14,4.96-2.44c2.7-0.4,5.47-0.02,7.96,1.11c2.87,1.14,5.77,3.01,8.92,4.58s6.36,2.57,9.3,2.21
				c2.65-0.4,5.16-1.48,7.27-3.12c1.51-1.12,2.95-2.31,4.33-3.59C148.88,130.71,149.4,130.26,149.96,129.85z"/>
		</g>
		<g id="Group_179" transform="translate(181.184 215.368)">
			<path id="Path_472" class="st12" d="M206.53,130.74c-0.25,0.29-0.53,0.56-0.82,0.81c-0.83,0.68-1.74,1.26-2.72,1.72
				c-3.57,1.5-7.5,1.91-11.29,1.19c-2.61-0.46-5.18-1.07-7.72-1.84c-2.87-0.89-5.82-1.54-8.8-1.95c-3.29-0.31-6.61-0.04-9.8,0.81
				c-3.47,0.96-6.85,2.25-10.08,3.85c-6.74,3.21-13.12,6.68-19.4,8.19c-5.56,1.32-11.36,1.15-16.83-0.49
				c-3.71-1.06-7.33-2.39-10.84-3.99c-1.2-0.55-2.16-0.98-2.87-1.32c-0.34-0.14-0.67-0.31-0.99-0.51c0.36,0.09,0.7,0.21,1.04,0.36
				l2.92,1.17c3.54,1.48,7.17,2.74,10.86,3.75c5.41,1.55,11.14,1.67,16.61,0.33c6.18-1.5,12.51-4.98,19.29-8.2
				c3.27-1.61,6.68-2.9,10.2-3.88c3.26-0.85,6.64-1.12,9.99-0.78c3.01,0.43,5.98,1.11,8.88,2.04c2.51,0.79,5.06,1.43,7.64,1.91
				c3.73,0.76,7.59,0.44,11.14-0.93C204.22,132.39,205.43,131.63,206.53,130.74z"/>
		</g>
		<g id="Group_180" transform="translate(189.24 260.216)">
			<path id="Path_473" class="st12" d="M104.36,139.66c-0.01-0.01,0.05-0.1,0.16-0.27c0.15-0.22,0.33-0.46,0.54-0.78
				c0.74-0.94,1.59-1.79,2.53-2.53c1.45-1.12,3.08-1.99,4.82-2.57c2.25-0.74,4.61-1.07,6.98-0.98c5.29,0.1,11.26,2.6,17.5,5.79
				c3.24,1.7,6.57,3.21,9.98,4.51c3.58,1.4,7.42,2.01,11.26,1.79c3.86-0.48,7.55-1.87,10.76-4.06c3.26-2.02,6.26-4.34,9.28-6.23
				c2.78-1.87,5.87-3.25,9.12-4.08c2.82-0.58,5.73-0.56,8.54,0.06c4.18,0.95,8,3.06,11.03,6.09c1.17,1.14,2.19,2.42,3.04,3.82
				c-0.01,0.01-0.09-0.07-0.22-0.23c-0.15-0.2-0.35-0.43-0.58-0.74c-0.24-0.33-0.58-0.71-0.99-1.16c-0.44-0.52-0.92-1-1.43-1.46
				c-3.04-2.91-6.84-4.91-10.95-5.79c-2.76-0.56-5.6-0.55-8.35,0.04c-3.19,0.83-6.21,2.21-8.93,4.06c-2.98,1.89-5.97,4.22-9.27,6.28
				c-3.29,2.25-7.06,3.68-11.02,4.18c-3.92,0.23-7.84-0.4-11.5-1.84c-3.43-1.33-6.77-2.86-10.02-4.58
				c-6.22-3.21-12.09-5.71-17.28-5.89c-2.32-0.11-4.64,0.18-6.87,0.85c-1.71,0.54-3.32,1.35-4.77,2.42
				C106.48,137.3,105.34,138.41,104.36,139.66z"/>
		</g>
		<g id="Group_181" transform="translate(187.041 301.706)">
			<path id="Path_474" class="st12" d="M213.82,144.51c-0.59-1.63-1.34-3.19-2.24-4.67c-2.46-3.74-6.08-6.57-10.3-8.07
				c-2.76-1.02-5.69-1.46-8.63-1.32c-3.37,0.19-6.7,0.87-9.88,2.02c-3.57,1.32-7.03,2.9-10.37,4.72c-3.52,1.87-7.11,3.96-10.9,5.86
				c-3.63,1.9-7.48,3.38-11.45,4.41c-3.68,0.84-7.47,1.12-11.23,0.84c-6.39-0.62-12.64-2.29-18.5-4.92
				c-5.07-2.2-9.03-4.31-11.76-5.79c-1.37-0.74-2.42-1.33-3.12-1.74c-0.33-0.19-0.59-0.35-0.81-0.48c-0.1-0.05-0.18-0.12-0.27-0.19
				c0-0.01,0.1,0.03,0.29,0.12c0.23,0.12,0.49,0.25,0.83,0.4c0.77,0.39,1.83,0.93,3.17,1.62c2.77,1.39,6.75,3.44,11.83,5.55
				c5.07,2.04,11.27,4.25,18.38,4.73c3.71,0.26,7.44-0.03,11.07-0.87c3.93-1.03,7.72-2.5,11.32-4.38c3.77-1.88,7.36-3.96,10.89-5.83
				c3.36-1.84,6.86-3.41,10.46-4.71c3.23-1.16,6.61-1.84,10.04-2c3-0.13,5.99,0.36,8.79,1.43c4.29,1.58,7.93,4.53,10.36,8.4
				c0.67,1.11,1.23,2.29,1.66,3.51c0.11,0.39,0.22,0.72,0.29,0.98C213.79,144.27,213.81,144.39,213.82,144.51z"/>
		</g>
		<g id="Group_182" transform="translate(196.704 208.629)" class="st14">
			<path id="Path_475" class="st7" d="M113.65,250.24c12.45-0.47,24.3-5.47,33.34-14.04c12.62-12.18,18.87-31.3,20.25-50.13
				s-1.56-37.67-4.48-56.26c-11.41,18.36-20.57,38.03-27.29,58.57c-4.48,13.65-8.41,28.56-18.33,37.72
				c-3.54,3.27-7.77,5.7-10.52,9.83s-3.36,10.92,0.3,13.97c1.09,0.4,2.18,0.81,3.28,1.21"/>
		</g>
		<g id="Group_183" transform="translate(107.645 171.128)">
			<path id="Path_476" class="st8" d="M115.61,288.47c1.68,1.19,5.01,2.17,7.54,2.79c2.08,0.52,4.23,0.62,6.35,0.32
				c0.99-0.14,1.92-0.3,2.8-0.46c4.18-0.81,8.02-2.86,11-5.9c13.7-13.6,50.77-56.62,57.4-66.35c7.97-11.7,10.2-89.04,10.2-89.04
				l44.48,8.33c0,0-0.8,55.74-11.74,99.11c-6.96,27.58-91.09,84.33-91.17,84.37c-6.24,7.81-13.24,16.27-17.56,20.39
				c-8.97,8.59-9.65,7.69-10.35,6.32c-1.87-3.67,15.28-15.81,10.27-15.63s-19.47,17.63-21.27,13.71
				c-2.38-5.12,15.79-17.44,17.25-18.61c1.43-1.14,0.04-3.64-1.24-2.5c-1.83,1.63-21.48,18.31-23.86,13.32c-1.32-2.78,3.25-5,3.25-5
				s19.39-14.06,18.2-16.37c-1.2-2.36-12.84,5.47-16.6,8.42c-3.71,2.92-6.44,2.08-6.2-0.87c0.16-2.01,11.48-11.37,15.25-14.19
				s14.26-10.34,6.45-11.44s-13.43-5.29-14.27-7.65c-0.53-1.3,0.09-2.79,1.4-3.32C114,287.88,114.9,287.98,115.61,288.47z"/>
		</g>
		<g id="Group_184" transform="translate(206.38 120.135)">
			<path id="Path_477" class="st11" d="M128.94,130.42c8.6-2.07,17.54,1.27,23.37,8.23c5.19,6.18,10.4,16.5,9.95,32.9
				c-0.86,31.98-3.07,42.88-3.07,42.88l-54.83-2.17l2.15-53.71C106.52,158.54,110.76,134.8,128.94,130.42z"/>
			<path id="Path_478" class="st15" d="M128.94,130.42c8.6-2.07,17.54,1.27,23.37,8.23c5.19,6.18,10.47,17.33,10.03,33.71
				c-0.86,31.98-3.15,42.07-3.15,42.07l-54.83-2.17l2.23-52.9C106.6,159.36,110.76,134.8,128.94,130.42z"/>
		</g>
		<g id="Group_185" transform="translate(207.138 180.16)">
			<path id="Path_479" class="st12" d="M160.52,135.77c-0.05,0.06-0.62-0.65-1.85-1.63c-1.71-1.33-3.67-2.32-5.76-2.92
				c-3.03-0.87-6.21-1-9.3-0.38c-3.47,0.75-7.08,2.53-10.84,4.41s-7.37,3.76-10.9,4.7c-3.1,0.84-6.35,1.02-9.52,0.52
				c-2.17-0.35-4.25-1.13-6.1-2.31c-0.51-0.35-0.99-0.73-1.44-1.14c-0.17-0.13-0.32-0.29-0.45-0.46c0.05-0.07,0.68,0.55,2.01,1.36
				c1.86,1.06,3.91,1.76,6.03,2.05c3.12,0.4,6.29,0.18,9.32-0.67c3.73-1.23,7.34-2.81,10.78-4.71c3.77-1.89,7.42-3.67,11-4.41
				c3.17-0.61,6.43-0.43,9.51,0.54c2.13,0.66,4.1,1.75,5.78,3.21c0.47,0.41,0.9,0.86,1.3,1.35
				C160.26,135.41,160.4,135.58,160.52,135.77z"/>
		</g>
		<g id="Group_186" transform="translate(212.691 138.295)">
			<path id="Path_480" class="st12" d="M152.73,132.38c-0.57,0.35-1.18,0.65-1.81,0.88c-0.58,0.27-1.32,0.55-2.18,0.85
				c-0.96,0.36-1.94,0.67-2.93,0.93c-2.56,0.71-5.18,1.24-7.82,1.58c-3.22,0.37-6.47,0.5-9.71,0.4c-3.25-0.14-6.48-0.55-9.66-1.21
				c-2.62-0.57-5.18-1.36-7.66-2.37c-0.97-0.37-1.92-0.81-2.83-1.3c-0.72-0.34-1.41-0.72-2.07-1.16c-0.59-0.34-1.16-0.72-1.68-1.16
				c0.63,0.24,1.23,0.54,1.8,0.9c0.68,0.39,1.38,0.73,2.1,1.03c0.93,0.45,1.88,0.84,2.85,1.19c2.48,0.93,5.03,1.67,7.63,2.2
				c3.16,0.61,6.37,0.99,9.59,1.14c3.21,0.1,6.43-0.01,9.62-0.35c2.62-0.3,5.22-0.77,7.78-1.4c1.1-0.25,2.09-0.55,2.95-0.81
				s1.61-0.49,2.2-0.72C151.47,132.72,152.09,132.52,152.73,132.38z"/>
		</g>
		<g id="Group_222" transform="translate(131.247)">
			<g id="Group_195">
				<path id="Path_481" class="st5" d="M175.14,180.98c-0.21,1.63,0.47,3.25,1.77,4.25c1.27,0.85,2.94,0.78,4.12-0.19
					c2.24-1.85,2.02-5.76,1.13-8.74s-2.26-6.1-1.53-9.15c0.57-2.33,2.24-4.05,3.47-6.02c2.2-3.6,2.82-7.95,1.71-12.02
					c-1.18-3.99-4.38-7.2-8.03-7.69c-3.73-0.51-7.98,1.55-11.04-0.94c-2.23-1.81-2.83-5.29-4.67-7.59
					c-2.87-3.56-7.86-3.31-11.92-1.92s-8.07,3.67-12.28,3.24c-3.52-0.36-6.68-2.56-10.08-3.66c-7.37-2.37-15.91,1.16-20.26,8.37
					c-4.35,7.67-4.21,17.09,0.37,24.63c1.64,2.53,3.88,4.7,6.56,5.41"/>
				<g id="Group_191" transform="translate(11.296 18.078)">
					<g id="Group_188">
						<g id="Group_187">
							<path id="Path_482" class="st8" d="M157.65,253.64L157.65,253.64c-11.41,2.39-22.35-6.23-24.49-19.26
								c-1.21-7.46-2.23-13.74-2.23-13.74s-16.94,0.29-19.96-18.54s-6.4-60.19-6.4-60.19l-0.21-2.5
								c17.7-13.1,40.51-12.16,59.14-0.88l0.56,3.89l10.7,84.86C176.01,239.84,168.53,251.37,157.65,253.64z"/>
							<path id="Path_483" class="st16" d="M139.16,187.78l-10.59,5.87c0,0,3.38,4.32,7.84,1.42
								C141.03,192.03,139.16,187.78,139.16,187.78z"/>
							<path id="Path_484" class="st17" d="M130.86,220.37c0,0,10.57-1.06,20.46-11.18c0,0-3.06,14.56-19.78,16.08L130.86,220.37z"
								/>
						</g>
					</g>
					<g id="Group_190" transform="translate(58.915 24.895)">
						<path id="Path_485" class="st8" d="M105.99,130.21c0.34-0.2,12.14-3.46,12.54,12.84s-14.13,11.35-14.17,10.89
							S105.99,130.21,105.99,130.21z"/>
						<g id="Group_189" transform="translate(4.213 5.292)">
							<path id="Path_486" class="st17" d="M104.37,142.8c0.06-0.06,0.25,0.19,0.68,0.4c0.59,0.27,1.27,0.27,1.86-0.01
								c1.49-0.68,2.69-3.46,2.69-6.39c0.01-1.39-0.27-2.76-0.8-4.04c-0.47-1.17-1.16-2-1.92-2.13c-0.62-0.14-1.24,0.22-1.44,0.82
								c-0.18,0.46-0.08,0.78-0.15,0.81c-0.04,0.04-0.32-0.26-0.21-0.94c0.07-0.39,0.25-0.75,0.53-1.04
								c0.37-0.35,0.86-0.52,1.37-0.46c1.1,0.06,2.11,1.17,2.66,2.44c0.65,1.42,0.98,2.96,0.97,4.51c-0.01,3.28-1.4,6.41-3.45,7.14
								c-0.77,0.28-1.63,0.15-2.28-0.36C104.41,143.19,104.32,142.82,104.37,142.8z"/>
						</g>
					</g>
				</g>
				<g id="Group_194" transform="translate(6.755 1.832)">
					<path id="Path_487" class="st5" d="M106.26,166.61c0,0,10.66,3.98,22.79-5.5c7.96-6.2,17.63-10.15,20.06-8.53
						s4.1,11.61,12.91,13.22c0,0,1.72,19.29,8.34,17.56c6.61-1.74-1.13-30.82-1.13-30.82l-16.83-10.22l-18.34-1.07l-19.42,5.6
						l-10.28,9.52L106.26,166.61z"/>
					<g id="Group_192" transform="translate(57.592 6.299)">
						<path id="Path_488" class="st5" d="M110.9,129.98c0,0.23-1.76,0.27-3.57,1.48c-1.83,1.16-2.78,2.85-2.95,2.72
							c-0.16-0.06,0.62-2.1,2.63-3.38S110.95,129.79,110.9,129.98z"/>
					</g>
					<g id="Group_193" transform="translate(56.034)">
						<path id="Path_489" class="st5" d="M104.66,129.82c0.81,1.88,1.2,3.91,1.14,5.96c0.02,1.46-0.19,2.91-0.63,4.3
							c-0.35,1.04-0.71,1.6-0.78,1.58c-0.19-0.09,0.81-2.57,0.75-5.86C105.09,132.52,104.45,129.87,104.66,129.82z"/>
					</g>
				</g>
			</g>
			<g id="Group_203" transform="translate(16.464 52.266)">
				<g id="Group_198" transform="translate(0.106 2.687)">
					<g id="Group_197">
						<g id="Group_196">
							<path id="Path_490" class="st5" d="M104.36,132.45c-0.04,1.4,1.05,2.58,2.45,2.66c1.37-0.06,2.44-1.21,2.38-2.58
								c0-0.02,0-0.03,0-0.05c0.03-1.4-1.05-2.58-2.45-2.66c-1.37,0.06-2.44,1.21-2.38,2.58
								C104.36,132.42,104.36,132.43,104.36,132.45z"/>
						</g>
					</g>
				</g>
				<g id="Group_202">
					<g id="Group_201">
						<g id="Group_200">
							<g id="Group_199">
								<path id="Path_491" class="st5" d="M104.41,133.01c0.32,0.35,2.07-1.32,4.68-1.46c2.59-0.19,4.58,1.24,4.84,0.85
									c0.13-0.17-0.2-0.8-1.06-1.45c-1.13-0.81-2.51-1.21-3.9-1.13c-1.38,0.09-2.7,0.65-3.71,1.6
									C104.49,132.18,104.25,132.85,104.41,133.01z"/>
							</g>
						</g>
					</g>
				</g>
			</g>
			<g id="Group_211" transform="translate(41.424 50.431)">
				<g id="Group_206" transform="translate(0.766 2.843)">
					<g id="Group_205">
						<g id="Group_204">
							<path id="Path_492" class="st5" d="M104.37,132.59c0.19,1.33,1.43,2.25,2.75,2.05c1.33-0.19,2.25-1.43,2.05-2.75
								c-0.18-1.24-1.28-2.14-2.53-2.08C105.25,129.96,104.23,131.2,104.37,132.59z"/>
						</g>
					</g>
				</g>
				<g id="Group_210">
					<g id="Group_209">
						<g id="Group_208">
							<g id="Group_207">
								<path id="Path_493" class="st5" d="M104.41,133.28c0.33,0.33,2.02-1.42,4.62-1.71c2.59-0.32,4.62,0.98,4.87,0.59
									c0.13-0.17-0.23-0.8-1.13-1.39c-1.16-0.76-2.55-1.08-3.93-0.93c-1.39,0.16-2.67,0.8-3.64,1.81
									C104.47,132.46,104.25,133.14,104.41,133.28z"/>
							</g>
						</g>
					</g>
				</g>
			</g>
			<g id="Group_215" transform="translate(27.133 52.074)">
				<g id="Group_214">
					<g id="Group_213">
						<g id="Group_212">
							<path id="Path_494" class="st5" d="M111.17,154.68c0-0.17-1.64-0.3-4.29-0.4c-0.67,0-1.3-0.09-1.47-0.59
								c-0.13-0.78-0.04-1.57,0.25-2.3c0.47-1.91,0.95-3.89,1.47-5.99c2.02-8.52,3.42-15.49,3.11-15.58s-2.19,6.74-4.2,15.26
								c-0.48,2.1-0.95,4.09-1.38,6.02c-0.34,0.97-0.37,2.02-0.09,3.01c0.22,0.5,0.66,0.87,1.19,0.98c0.37,0.07,0.76,0.09,1.14,0.06
								C109.53,155.02,111.17,154.85,111.17,154.68z"/>
						</g>
					</g>
				</g>
			</g>
			<g id="Group_218" transform="translate(39.846 42.196)">
				<g id="Group_217">
					<g id="Group_216">
						<path id="Path_495" class="st5" d="M104.38,132.65c0.33,0.78,2.88,0.1,5.96,0.19c3.09,0.01,5.62,0.75,5.96-0.01
							c0.15-0.36-0.34-1.07-1.4-1.75c-1.37-0.81-2.93-1.25-4.53-1.26c-1.59-0.04-3.16,0.35-4.55,1.13
							C104.75,131.6,104.25,132.29,104.38,132.65z"/>
					</g>
				</g>
			</g>
			<g id="Group_221" transform="translate(16.062 43.885)">
				<g id="Group_220">
					<g id="Group_219">
						<path id="Path_496" class="st5" d="M104.45,133.42c0.52,0.62,2.24-0.27,4.39-0.55c2.14-0.36,4.01,0.01,4.36-0.74
							c0.15-0.36-0.19-1.01-1.04-1.55c-1.1-0.66-2.4-0.91-3.67-0.71c-1.3,0.18-2.49,0.8-3.39,1.75
							C104.41,132.39,104.22,133.12,104.45,133.42z"/>
					</g>
				</g>
			</g>
		</g>
	</g>
</g>
<g id="Character_1" transform="translate(77.311 157.112)">
	<g id="Group_228" transform="translate(233.247 109)">
		<path id="Path_497" class="st18" d="M236.47,192.3c0,0,4.74-7.03,1.54-15.16s-11.8-17.4-11.8-17.4
			c-2.5-0.74,0.81-17.08,2.26-22.49c1.44-5.35-0.19-8.37-2.77-7.19c-1.76,0.8-6.55,17.24-7.88,22.63
			c-0.72,2.95-2.07,8.72-3.72,11.89c-1.37,2.62-2.93,3.43-4.52-0.67c-3.48-9.05-9.07-14.55-11.46-14.84s-3.53,3.44-1.54,5.5
			c1.61,1.66,3.55,5.37,4.93,8.23c1.14,2.38,1.92,4.92,2.31,7.53c0.34,2.29,0.58,4.32,0.77,6.15c0,0,0.8,8.04-0.1,13.67
			l-47.66,64.36l-10.4-43.58l-0.96-3.36l-41.03,17.43c-1.23,0.38,8.82,34.49,15.19,55.69c3.15,10.48,10.11,18.92,19.09,23.11l0,0
			c14.36,6.73,30.88,1.35,39.99-13l51.01-84.68l-1.1-0.85l1.04,0.54L236.47,192.3z"/>
		<g id="Group_224" transform="translate(115.916 29.96)">
			<path id="Path_498" class="st19" d="M114.2,134.04c-0.08,0.54-0.21,1.08-0.4,1.59c-0.37,1.16-0.81,2.57-1.34,4.24
				c-0.61,1.84-1.3,3.95-2.07,6.25c-0.33,1.29-0.86,2.51-1.56,3.64c-0.43,0.58-1.05,0.99-1.76,1.14c-0.77,0.1-1.53-0.25-1.96-0.9
				c-0.46-0.64-0.72-1.41-0.73-2.2c-0.02-0.73,0.05-1.46,0.21-2.17c0.29-1.35,0.58-2.62,0.9-3.83c0.62-2.43,1.27-4.57,1.86-6.36
				s1.13-3.2,1.52-4.16c0.17-0.51,0.4-1,0.68-1.46c-0.1,0.54-0.25,1.06-0.44,1.58c-0.32,1-0.78,2.44-1.32,4.24s-1.14,3.95-1.71,6.36
				c-0.29,1.2-0.58,2.49-0.85,3.8c-0.4,1.24-0.26,2.59,0.39,3.72c0.29,0.46,0.83,0.71,1.38,0.64c0.54-0.12,1.02-0.43,1.35-0.88
				c0.65-1.06,1.14-2.2,1.47-3.4c0.81-2.29,1.56-4.37,2.2-6.19c0.61-1.63,1.13-3.02,1.54-4.15
				C113.73,135.01,113.94,134.51,114.2,134.04z"/>
		</g>
		<g id="Group_225" transform="translate(120.826 36.136)">
			<path id="Path_499" class="st19" d="M114.12,134.23c-0.07,0.48-0.19,0.95-0.35,1.4c-0.27,0.88-0.68,2.15-1.2,3.7
				s-1.14,3.4-1.87,5.47c-0.34,1.13-1,2.13-1.9,2.89c-0.49,0.37-1.08,0.57-1.7,0.58c-0.66-0.05-1.26-0.36-1.68-0.87
				c-0.82-1.06-1.2-2.4-1.04-3.73c0.11-1.17,0.32-2.32,0.62-3.46c0.45-1.89,1.02-3.75,1.7-5.57c0.57-1.55,1.1-2.76,1.48-3.59
				c0.16-0.44,0.38-0.86,0.66-1.24c0.09,0.06-0.68,1.92-1.71,5.03c-0.51,1.56-1.08,3.43-1.54,5.54c-0.27,1.09-0.45,2.21-0.56,3.33
				c-0.14,1.12,0.16,2.24,0.85,3.14c0.63,0.77,1.77,0.87,2.53,0.24c0.02-0.01,0.03-0.03,0.05-0.04c0.79-0.67,1.37-1.56,1.68-2.55
				c0.73-1.98,1.4-3.79,2-5.39c0.57-1.53,1.05-2.78,1.39-3.61C113.67,135.05,113.87,134.62,114.12,134.23z"/>
		</g>
		<g id="Group_226" transform="translate(126.294 43.048)">
			<path id="Path_500" class="st19" d="M111.31,133.74c-0.21,1.4-0.53,2.78-0.96,4.12c-0.34,1.26-0.73,2.73-1.23,4.41
				c-0.22,0.94-0.8,1.75-1.62,2.27c-0.46,0.25-1,0.27-1.48,0.07c-0.48-0.23-0.88-0.61-1.14-1.08c-0.45-0.95-0.62-2.01-0.51-3.05
				c0.04-0.93,0.14-1.85,0.3-2.76c0.28-1.52,0.73-3.01,1.35-4.42c0.41-0.93,0.9-1.81,1.48-2.65c0.4-0.58,0.67-0.85,0.71-0.82
				c0.09,0.09-0.83,1.35-1.76,3.7c-0.54,1.4-0.93,2.85-1.18,4.32c-0.14,0.88-0.23,1.76-0.25,2.65c-0.09,0.89,0.05,1.8,0.42,2.62
				c0.26,0.69,1.03,1.04,1.72,0.78c0.03-0.01,0.05-0.02,0.08-0.03c0.66-0.43,1.12-1.09,1.32-1.85c0.49-1.58,0.95-3.02,1.35-4.34
				C110.28,136.32,110.74,135.01,111.31,133.74z"/>
		</g>
		<g id="Group_227" transform="translate(109.458 43.909)">
			<path id="Path_501" class="st19" d="M111.88,146.83c-0.11-0.01,0-1.14-0.13-2.94c-0.17-2.31-0.73-4.58-1.66-6.7
				c-0.9-2.05-2.17-3.91-3.73-5.51c-1.19-1.19-2.05-1.75-2-1.87c0.86,0.3,1.65,0.8,2.29,1.45c1.73,1.54,3.11,3.45,4.02,5.58
				c0.97,2.21,1.49,4.6,1.53,7.01C112.28,144.86,112.17,145.87,111.88,146.83z"/>
		</g>
	</g>
	<g id="Group_229" transform="translate(241.419 134.189)">
		<path id="Path_502" class="st20" d="M123.92,129.82c0,0,18.09,60.83,17.06,63.32l-36.62,11.47L123.92,129.82z"/>
		<path id="Path_503" class="st21" d="M123.92,129.82c0,0,18.09,60.83,17.06,63.32l-36.62,11.47L123.92,129.82z"/>
	</g>
	<g id="Group_230" transform="translate(238.814 240.987)">
		<path id="Path_504" class="st19" d="M185.97,130.88c-0.37-0.02-0.74-0.07-1.1-0.16c-0.71-0.12-1.77-0.36-3.09-0.59
			c-0.74,0.08-1.43,0.4-1.97,0.9c-0.74,0.57-1.44,1.2-2.09,1.88c-1.62,1.67-3.15,3.43-4.57,5.28l-0.05,0.06l-0.06,0.03
			c-3.91,1.32-7.99,2.03-12.12,2.11c-4.83,0.07-9.67-0.16-14.47-0.68c-11.67-0.94-22.26-1.68-29.88-2.89
			c-3.81-0.58-6.87-1.19-8.97-1.69c-1.05-0.23-1.86-0.48-2.42-0.62c-0.29-0.06-0.57-0.16-0.83-0.27c0.29,0,0.58,0.05,0.86,0.13
			c0.62,0.13,1.43,0.29,2.43,0.48c2.11,0.42,5.17,0.94,8.98,1.45c7.61,1.07,18.19,1.72,29.88,2.68c4.78,0.52,9.59,0.76,14.39,0.72
			c4.07-0.06,8.1-0.72,11.98-1.95l-0.11,0.09c1.45-1.84,3.02-3.59,4.68-5.23c0.68-0.67,1.41-1.3,2.18-1.87
			c0.61-0.54,1.39-0.85,2.2-0.88c1.35,0.29,2.38,0.58,3.09,0.75C185.27,130.63,185.63,130.73,185.97,130.88z"/>
	</g>
	<g id="Group_310">
		<g id="Group_231" transform="translate(0 161.421)">
			<path id="Path_505" class="st5" d="M104.59,134.83l67.78,193.76h190.26l-60.43-196.41c-0.35-1.35-1.54-2.31-2.93-2.37
				l-191.77,0.14C105.27,129.96,103.77,132.51,104.59,134.83z"/>
			<path id="Path_506" class="st13" d="M115.02,140.13l62.24,173.6c0.23,0.72,0.89,1.22,1.64,1.24h173.32
				c1.08-0.09,1.88-1.03,1.79-2.11c-0.02-0.18-0.06-0.36-0.12-0.54l-55.14-173.6c-0.21-0.76-0.89-1.29-1.67-1.32H116.67
				c-1.08,0.09-1.88,1.05-1.79,2.13C114.9,139.74,114.95,139.94,115.02,140.13z"/>
			<path id="Path_507" class="st5" d="M172.37,328.6h258.56v-13.62H179.4L172.37,328.6z"/>
		</g>
		<g id="Group_235" transform="translate(84.567 271.956)">
			<path id="Path_508" class="st5" d="M104.36,203.14l123.68,0.71l1.52-24.93l-96.48-49.1c-8.47,11.57-13.58,25.14-16.02,40.26
				L104.36,203.14"/>
			<g id="Group_232" transform="translate(19.048 25.304)">
				<path id="Path_509" class="st13" d="M143.75,129.82c-0.32,0.52-0.7,1-1.12,1.45c-0.44,0.55-0.92,1.08-1.43,1.56
					c-0.64,0.67-1.31,1.31-2.02,1.91c-0.83,0.75-1.7,1.44-2.62,2.07c-1.02,0.74-2.08,1.43-3.18,2.07c-2.48,1.4-5.11,2.53-7.84,3.36
					c-2.7,0.76-5.48,1.22-8.29,1.37c-1.22,0.05-2.44,0.03-3.65-0.06c-1.06-0.06-2.12-0.18-3.16-0.38c-0.87-0.13-1.73-0.32-2.58-0.56
					c-0.65-0.15-1.29-0.35-1.91-0.58c-0.55-0.16-1.09-0.38-1.59-0.65c0.04-0.16,2.33,0.72,6.15,1.26c1.04,0.16,2.09,0.25,3.14,0.27
					c1.13,0.09,2.34,0.03,3.6,0c2.76-0.18,5.49-0.65,8.16-1.4c2.68-0.82,5.28-1.91,7.74-3.25c1.09-0.6,2.14-1.27,3.16-1.98
					c0.91-0.61,1.79-1.26,2.63-1.97C142.02,131.73,143.65,129.7,143.75,129.82z"/>
			</g>
			<g id="Group_233" transform="translate(92.059 38.816)">
				<path id="Path_510" class="st13" d="M104.37,162.23c0.41-1.63,0.91-3.23,1.51-4.8c1.05-3.14,2.37-7.1,3.83-11.48
					c1.49-4.38,2.83-8.33,3.91-11.45c0.48-1.6,1.08-3.16,1.78-4.67c-0.33,1.65-0.78,3.27-1.34,4.86c-0.91,2.96-2.21,7.06-3.72,11.54
					s-2.92,8.52-4.01,11.41c-0.54,1.45-1,2.6-1.34,3.4C104.83,161.45,104.62,161.85,104.37,162.23z"/>
			</g>
			<g id="Group_234" transform="translate(90.343 37.466)">
				<path id="Path_511" class="st13" d="M106.78,129.99c-0.72,0.41-1.3,1.05-1.64,1.81c-0.37,0.83-0.32,1.79,0.11,2.59
					c0.46,0.91,1.44,1.45,2.45,1.35c1.01-0.28,1.78-1.11,1.99-2.14c0.2-0.88-0.01-1.81-0.58-2.52c-0.53-0.61-1.25-1.01-2.05-1.14
					c0-0.04,0.23-0.14,0.67-0.12c0.66,0.08,1.27,0.4,1.71,0.9c0.76,0.82,1.07,1.96,0.85,3.05c-0.21,1.32-1.18,2.38-2.47,2.72
					c-1.29,0.14-2.53-0.56-3.07-1.73c-0.51-1.01-0.51-2.19-0.01-3.2c0.28-0.63,0.77-1.14,1.39-1.45
					C106.52,129.92,106.76,129.95,106.78,129.99z"/>
			</g>
		</g>
		<g id="Group_238" transform="translate(113.291 111.188)">
			<path id="Path_512" class="st22" d="M222.37,253.6l-11.54,56.01l-7.5,31.34l-98.97-50.36l31.41-57.78
				c0,0,17.21-80.44,41.49-95.32c17.64-10.8,32.63-7.06,34.87-7.06l21.08,3.33c0.47,0.07,0.92,0.16,1.38,0.26
				c11.23,2.53,18.87,14.55,18.29,27.64c-0.45,10.46-2,28.19-7.03,41.43C239.09,220.83,222.37,253.6,222.37,253.6z"/>
			<g id="Group_236" transform="translate(14.419 124.734)">
				<path id="Path_513" class="st12" d="M192.6,203.65c0,0-0.25-0.12-0.72-0.38c-0.71-0.38-1.4-0.8-2.05-1.27
					c-2.6-1.87-4.82-4.22-6.55-6.92c-2.93-4.49-4.61-9.68-4.86-15.04c-0.19-3.39,0.38-6.77,1.67-9.91c0.68-1.66,1.66-3.18,2.88-4.48
					c1.23-1.31,2.84-2.22,4.6-2.59c3.57-0.75,7.4,1.36,9.73,4.86c1.24,1.86,1.97,4.02,2.12,6.25c0.16,2.33-0.21,4.67-1.09,6.84
					c-1.62,4.35-5.13,7.73-9.54,9.18c-4.45,1.25-9.22,0.72-13.28-1.49c-4.4-2.47-8.16-5.94-10.98-10.12
					c-1.56-2.18-2.96-4.48-4.17-6.87c-1.3-2.5-2.26-5.16-2.86-7.91c-0.62-2.87-0.65-5.84-0.09-8.72c0.52-2.88,1.9-5.54,3.96-7.62
					c2.01-1.92,4.77-2.85,7.53-2.53c1.39,0.19,2.7,0.76,3.79,1.63c1.15,0.97,2.03,2.22,2.57,3.63c1.07,2.92,1.12,6.12,0.15,9.08
					c-0.95,2.76-2.62,5.2-4.84,7.09c-4.07,3.36-9.03,5.47-14.27,6.07c-4.97,0.64-10.03-0.16-14.56-2.31
					c-4.53-2.29-8.32-5.81-10.92-10.17c-2.68-4.37-4.16-9.37-4.29-14.49c-0.06-2.48,0.29-4.96,1.04-7.33
					c0.69-2.24,1.94-4.27,3.63-5.89c1.57-1.43,3.58-2.28,5.7-2.42c2.07-0.12,4.09,0.68,5.51,2.18c1.43,1.61,2.28,3.64,2.43,5.79
					c0.2,2.06-0.07,4.14-0.78,6.09c-1.34,3.37-3.96,6.07-7.3,7.49c-2.74,1.2-5.7,1.83-8.7,1.84c-4.8,0.06-9.54-1.05-13.81-3.23
					c-2.78-1.41-5.35-3.21-7.61-5.35c-0.78-0.75-1.37-1.35-1.73-1.78s-0.56-0.65-0.56-0.65s0.21,0.19,0.59,0.59s0.96,1,1.77,1.72
					c2.29,2.08,4.85,3.83,7.63,5.21c4.26,2.1,8.95,3.15,13.7,3.07c2.95-0.03,5.86-0.66,8.55-1.87c1.5-0.69,2.88-1.62,4.07-2.76
					c1.32-1.25,2.33-2.79,2.96-4.5c0.67-1.86,0.92-3.86,0.72-5.83c-0.15-2.01-0.95-3.92-2.29-5.42c-1.34-1.39-3.23-2.13-5.16-2.01
					c-2.01,0.13-3.91,0.94-5.39,2.3c-1.61,1.54-2.79,3.48-3.44,5.61c-0.71,2.29-1.05,4.69-0.99,7.09c0.13,4.99,1.58,9.87,4.21,14.11
					c2.55,4.24,6.24,7.67,10.66,9.89c4.43,2.11,9.38,2.88,14.24,2.24c5.12-0.6,9.96-2.65,13.94-5.93c2.13-1.79,3.73-4.12,4.63-6.75
					c0.91-2.77,0.87-5.77-0.13-8.52c-0.5-1.29-1.3-2.43-2.35-3.33c-1.01-0.8-2.21-1.32-3.49-1.5c-2.58-0.3-5.15,0.57-7.03,2.36
					c-1.95,1.97-3.25,4.49-3.73,7.22c-0.54,2.77-0.52,5.63,0.08,8.39c1.16,5.48,3.95,10.25,6.89,14.49
					c2.75,4.12,6.43,7.52,10.74,9.95c3.94,2.15,8.56,2.68,12.88,1.48c6.46-2.25,10.65-8.52,10.26-15.35c-0.15-2.12-0.84-4.17-2-5.94
					c-2.23-3.36-5.88-5.38-9.25-4.69c-1.68,0.35-3.21,1.2-4.39,2.44c-1.19,1.26-2.14,2.72-2.81,4.32c-1.28,3.06-1.85,6.36-1.68,9.67
					c0.22,5.29,1.84,10.43,4.69,14.9c1.7,2.69,3.87,5.06,6.41,6.97c0.64,0.48,1.32,0.93,2.01,1.33
					C192.37,203.49,192.6,203.65,192.6,203.65z"/>
			</g>
			<g id="Group_237" transform="translate(107.84 54.042)">
				<path id="Path_514" class="st12" d="M128.87,166.3c-0.01,0.01-0.09-0.1-0.24-0.3c-0.18-0.25-0.39-0.56-0.67-0.95
					c-0.83-1.28-1.53-2.64-2.11-4.05c-0.92-2.3-1.54-4.7-1.86-7.16c-0.45-3.29-0.36-6.62,0.27-9.88c0.66-3.9,2.26-7.57,4.65-10.72
					c0.67-0.8,1.53-1.43,2.5-1.82c1.02-0.38,2.17-0.25,3.09,0.33c0.97,0.65,1.72,1.59,2.14,2.68c0.44,1.15,0.67,2.38,0.67,3.62
					c-0.01,5.08-1.57,10.05-4.48,14.22c-1.44,2.08-3.25,3.88-5.35,5.31c-2.06,1.44-4.49,2.27-7.01,2.37c-2.57,0-5.04-1.04-6.84-2.88
					c-1.87-1.87-3.24-4.18-4-6.71c-0.75-2.5-1.11-5.11-1.08-7.72c-0.04-2.5,0.23-5,0.81-7.43c0.3-1.17,0.78-2.28,1.44-3.28
					c0.6-0.98,1.55-1.69,2.66-2c1.06-0.23,2.16,0,3.05,0.62c0.87,0.63,1.6,1.44,2.12,2.37c0.53,0.93,0.92,1.93,1.15,2.96
					c0.25,1.01,0.38,2.04,0.4,3.08c0.03,1.94-0.25,3.87-0.83,5.73c-0.97,3.06-2.63,5.85-4.86,8.16c-1.6,1.65-3.35,3.13-5.25,4.42
					c-1.53,1.06-2.76,1.79-3.59,2.3c-0.39,0.23-0.71,0.4-0.96,0.55c-0.21,0.12-0.33,0.17-0.34,0.16c0.09-0.09,0.19-0.16,0.3-0.23
					c0.24-0.16,0.54-0.36,0.92-0.62c0.81-0.54,2.02-1.32,3.53-2.42c1.86-1.32,3.58-2.82,5.14-4.48c2.15-2.29,3.74-5.03,4.67-8.03
					c0.56-1.79,0.82-3.66,0.79-5.53c-0.01-0.99-0.15-1.98-0.4-2.94c-0.22-0.98-0.59-1.91-1.1-2.78c-0.49-0.85-1.15-1.59-1.95-2.15
					c-0.77-0.54-1.73-0.74-2.64-0.54c-1.87,0.43-3.06,2.63-3.64,4.83c-0.55,2.37-0.81,4.8-0.76,7.23c-0.03,2.53,0.33,5.05,1.05,7.48
					c0.72,2.41,2.03,4.6,3.81,6.38c1.69,1.72,4,2.7,6.41,2.7c2.4-0.11,4.71-0.9,6.68-2.27c2.03-1.38,3.78-3.11,5.19-5.12
					c2.82-4.03,4.34-8.81,4.38-13.73c0-1.14-0.2-2.27-0.61-3.34c-0.37-0.97-1.03-1.8-1.89-2.39c-0.79-0.51-1.76-0.62-2.64-0.3
					c-0.89,0.36-1.67,0.93-2.29,1.66c-2.34,3.05-3.91,6.61-4.59,10.38c-0.64,3.19-0.76,6.47-0.37,9.7c0.29,2.43,0.87,4.81,1.73,7.1
					c0.55,1.41,1.21,2.78,1.99,4.08c0.25,0.4,0.45,0.74,0.62,1C128.82,166.17,128.89,166.28,128.87,166.3z"/>
			</g>
		</g>
		<path id="Path_515" class="st10" d="M296.64,264.19c-8.2-0.95-16.21,3.53-21.01,11.18c-4.26,6.8-8.16,17.73-6.24,33.94
			c3.76,31.64,6.82,42.19,6.82,42.19l50.86-9.21l-6.96-53.08C320.12,289.23,313.98,266.19,296.64,264.19z"/>
		<g id="Group_249" transform="translate(164.531 134.249)">
			<g id="Group_247" transform="translate(7.335 47.274)">
				<g id="Group_240">
					<g id="Group_239">
						<path id="Path_516" class="st18" d="M147.85,132.98c0,0,0,51.43,11.26,56.3c30.62,13.25,67.25,10.21,80.14,8.81
							c1.54-1.23,3.33-2.73,5.35-4.61l4.26-4.05c0,0,20.2,4.41,19.93,5.63s-7.88,4.02-15.7,2.01c-0.97,2.02-0.14,4.45,1.86,5.47
							c5.15,2.86,23.4,11.7,26.28,13.7c2.58,1.78,4.97,4.7,2.07,4.9s-18.21-4.12-18.21-4.12s20.19,5.21,19.39,8.53
							c-0.56,2.3-6.16,2.79-19.21-2.18c0,0,16.61,4.44,18.19,6.65c3.58,5-16.46-0.1-16.46-0.1c14,3.72,13.93,2.86,13.89,5.11
							c-0.04,1.68-3.3,1.98-11.09,1.2c-6.32-0.64-12.99,0.16-22.67-0.2l0,0c0,0-125.04,25.47-136.44-37.63
							c-6.15-34.01-5.1-46.58-6.34-68.57"/>
					</g>
				</g>
				<g id="Group_242" transform="translate(154.169 97.953)">
					<g id="Group_241">
						<path id="Path_517" class="st19" d="M104.36,129.93c-0.09,0.4,4.16,1.75,9.5,3.01s9.71,1.95,9.77,1.55s-4.2-1.75-9.5-3.01
							S104.45,129.53,104.36,129.93z"/>
					</g>
				</g>
				<g id="Group_244" transform="translate(154.852 91.682)">
					<g id="Group_243">
						<path id="Path_518" class="st19" d="M104.36,129.9c-0.09,0.4,4.36,2.13,9.97,3.85s10.22,2.81,10.31,2.42s-4.36-2.13-9.97-3.85
							S104.46,129.5,104.36,129.9z"/>
					</g>
				</g>
				<g id="Group_246" transform="translate(155.598 85.145)">
					<g id="Group_245">
						<path id="Path_519" class="st19" d="M104.36,129.9c-0.1,0.39,4.1,2.11,9.37,3.83s9.64,2.79,9.74,2.39s-4.1-2.11-9.37-3.83
							S104.46,129.51,104.36,129.9z"/>
					</g>
				</g>
			</g>
			<path id="Path_520" class="st20" d="M132.11,129.94c-8.2-0.95-16.21,3.53-21.01,11.18c-4.26,6.8-8.16,17.73-6.24,33.94
				c3.76,31.64,6.82,42.19,6.82,42.19l50.86-9.21l-6.96-53.08C155.59,154.98,149.45,131.94,132.11,129.94z"/>
			<g id="Group_248" transform="translate(2.87 25.086)">
				<path id="Path_521" class="st12" d="M156.18,153.35c-0.12,0.06-0.26,0.1-0.39,0.13c-0.3,0.07-0.68,0.17-1.18,0.29
					c-0.52,0.09-1.18,0.16-1.93,0.22c-0.89,0.02-1.78-0.02-2.66-0.13c-2.46-0.33-4.83-1.16-6.96-2.44c-1.37-0.82-2.64-1.8-3.78-2.92
					c-1.33-1.29-2.49-2.75-3.43-4.35c-1.1-1.82-1.9-3.8-2.37-5.87c-0.24-1.14-0.31-2.31-0.23-3.47c0.07-1.22,0.48-2.4,1.19-3.4
					c0.72-0.95,1.83-1.53,3.02-1.58c1.17-0.01,2.32,0.31,3.31,0.93c2.15,1.38,3.83,3.39,4.81,5.76c1.12,2.58,1.62,5.39,1.45,8.2
					c-0.14,2.91-1.06,5.73-2.67,8.16c-3.09,4.8-8.62,7.47-14.3,6.9c-5.57-0.71-10.4-4.51-13.38-9.36c-1.56-2.45-2.53-5.23-2.82-8.11
					c-0.13-1.44,0.02-2.89,0.43-4.28c0.41-1.31,1.11-2.51,2.05-3.51c0.85-0.94,1.98-1.59,3.23-1.85c1.2-0.21,2.44,0.02,3.48,0.67
					c2.09,1.34,3.52,3.5,3.95,5.94c0.45,2.32,0.43,4.7-0.05,7.01c-0.41,2.09-1.14,4.1-2.16,5.97c-1.63,3.08-4.16,5.59-7.26,7.19
					c-2.22,1.1-4.68,1.62-7.16,1.52c-1.55-0.06-3.08-0.38-4.53-0.94c-0.51-0.19-1.01-0.43-1.48-0.71c0.01-0.04,0.52,0.23,1.52,0.56
					c3.78,1.3,7.92,1,11.49-0.81c3-1.6,5.44-4.07,7.01-7.09c0.98-1.82,1.68-3.78,2.06-5.81c0.45-2.22,0.46-4.51,0.01-6.74
					c-0.39-2.27-1.72-4.27-3.67-5.51c-0.94-0.56-2.05-0.77-3.12-0.58c-1.12,0.24-2.14,0.83-2.91,1.69c-0.86,0.92-1.5,2.03-1.87,3.24
					c-0.38,1.29-0.51,2.64-0.39,3.98c0.29,2.76,1.22,5.42,2.72,7.75c2.88,4.7,7.59,8.37,12.93,9.04c5.45,0.55,10.75-2,13.72-6.6
					c3.16-4.54,3.25-10.93,1.19-15.6c-0.49-1.15-1.15-2.22-1.94-3.19c-0.74-0.89-1.62-1.67-2.61-2.29
					c-0.91-0.57-1.95-0.88-3.02-0.88c-1.04,0.03-2.01,0.52-2.64,1.35c-0.64,0.9-1.01,1.95-1.07,3.05c-0.09,1.1-0.02,2.2,0.2,3.28
					c0.45,2.01,1.21,3.94,2.26,5.71c0.9,1.58,2.02,3.03,3.31,4.3c1.11,1.11,2.35,2.09,3.68,2.92c2.08,1.28,4.4,2.14,6.82,2.52
					C152.08,153.87,154.16,153.79,156.18,153.35z"/>
			</g>
		</g>
		<g id="Group_309" transform="translate(141.64)">
			<g id="Group_255" transform="translate(0 11.156)">
				<g id="Group_250">
					<path id="Path_522" class="st5" d="M155.19,141.1c-1.83-5.9-6.74-10.41-12.18-11.16s-11.16,2.26-14.17,7.49
						c-1.92,3.34-2.76,7.32-3.96,11.06s-3,7.55-6.07,9.46c-3.59,2.23-8.32,1.46-11.6,4.27c-3.63,3.12-3.73,9.98-0.68,13.83
						c3.07,3.69,8.25,4.82,12.59,2.76c-1.04,3.07-1.63,6.29-1.73,9.53c0.05,3.25,1.21,6.68,3.64,8.4c2.45,1.74,5.72,1.37,8.26-0.17
						s4.5-4.11,6.25-6.73c0.41,2.27,1.11,4.49,2.09,6.58c1.06,2.01,2.74,3.7,4.77,4.06c2.48,0.43,4.97-1.26,6.41-3.62
						c1.35-2.5,2.14-5.26,2.32-8.1c0.73-7.07,0.33-14.2-1.19-21.14c-0.94-4.43-2.29-8.94-1.54-13.41s4.59-8.66,8.4-7.33"/>
				</g>
				<g id="Group_252" transform="translate(0.969 6.523)">
					<g id="Group_251">
						<path id="Path_523" class="st13" d="M104.36,165.08c-0.01,0.04,0.21,0.16,0.65,0.35c0.64,0.26,1.29,0.48,1.96,0.65
							c2.46,0.6,5.02,0.63,7.5,0.1c3.83-0.84,7.29-2.87,9.89-5.8c1.64-1.81,2.99-3.86,3.98-6.09c1.05-2.47,1.79-5.06,2.21-7.71
							c0.41-2.58,1.03-5.12,1.86-7.59c0.74-2.16,2.04-4.09,3.78-5.57c2.8-2.38,6.59-3.22,10.13-2.24c2.42,0.73,4.61,2.08,6.35,3.92
							c1.29,1.33,1.85,2.26,1.92,2.18c-0.07-0.26-0.19-0.5-0.34-0.72c-0.39-0.63-0.82-1.24-1.3-1.81c-1.69-2.04-3.92-3.56-6.44-4.4
							c-3.76-1.17-7.86-0.36-10.88,2.17c-1.9,1.58-3.34,3.66-4.15,6c-0.86,2.53-1.51,5.14-1.93,7.78c-0.42,2.55-1.13,5.05-2.11,7.45
							c-0.93,2.13-2.19,4.1-3.74,5.83c-2.46,2.83-5.73,4.85-9.37,5.77c-2.39,0.58-4.86,0.67-7.29,0.26
							C105.32,165.32,104.39,164.97,104.36,165.08z"/>
					</g>
				</g>
				<g id="Group_254" transform="translate(32.976 14.999)">
					<g id="Group_253">
						<path id="Path_524" class="st13" d="M105.71,183.31c0.02,0.03,0.2-0.1,0.51-0.38c0.46-0.43,0.87-0.91,1.21-1.43
							c1.31-2.06,2.08-4.41,2.24-6.84c0.29-3.62-0.07-7.26-1.06-10.74c-0.97-3.9-2.44-8.03-3.01-12.54
							c-0.58-4.2,0.14-8.48,2.06-12.25c1.47-2.92,3.76-5.34,6.6-6.96c1.83-1.03,3.86-1.68,5.95-1.91c1.47-0.15,2.29-0.09,2.3-0.17
							c-0.75-0.25-1.54-0.35-2.33-0.27c-2.17,0.05-4.31,0.6-6.24,1.6c-3.05,1.6-5.53,4.1-7.11,7.16c-2.1,3.98-2.9,8.52-2.28,12.97
							c0.59,4.73,2.12,8.87,3.12,12.7c1,3.36,1.43,6.86,1.25,10.35c-0.1,2.33-0.73,4.61-1.85,6.65
							C106.29,182.62,105.63,183.23,105.71,183.31z"/>
					</g>
				</g>
			</g>
			<g id="Group_256" transform="translate(47.059)">
				<path id="Path_525" class="st5" d="M176.09,182.06c9.92-26.22-3.68-42.19-12.54-47.91c-5.27-3.41-11.54-4.12-17.59-4.3
					c-6-0.32-12.01,0.31-17.81,1.87c-6.02,1.69-11.4,5.15-15.43,9.94c-7.25,8.88-8.9,22.03-8.22,34.15
					c0.74,14.17,4.33,28.04,10.56,40.79c0.65,1.62,1.72,3.05,3.1,4.12c1.35,0.95,3.22,0.63,4.17-0.72c0.04-0.06,0.08-0.12,0.12-0.18
					"/>
			</g>
			<g id="Group_259" transform="translate(59.505 17.657)">
				<g id="Group_258">
					<g id="Group_257">
						<path id="Path_526" class="st18" d="M146.63,229.8l-0.37-13.8c0,0,14.1-2.68,17.02-23.72c1.45-10.46,1-27.62,0.21-41.64
							c-0.7-12.63-10.43-22.04-21.43-20.71l-31.92,3.87c-3.34,0.4-5.86,3.66-5.79,7.51l0,0l4.25,90.32
							c0.54,11.54,8.89,20.59,19,20.59l0,0C138.35,252.2,146.95,242.07,146.63,229.8z"/>
					</g>
				</g>
			</g>
			<g id="Group_267" transform="translate(106.083 44.566)">
				<g id="Group_262" transform="translate(4.686 3.437)">
					<g id="Group_261">
						<g id="Group_260">
							<path id="Path_527" class="st5" d="M109.07,132.25c0.09,1.37-0.91,2.57-2.28,2.72c-1.31,0.03-2.4-1.01-2.43-2.32
								c0-0.04,0-0.07,0-0.11c-0.09-1.37,0.91-2.57,2.28-2.72c1.32-0.02,2.41,1.03,2.43,2.35
								C109.07,132.2,109.07,132.22,109.07,132.25z"/>
						</g>
					</g>
				</g>
				<g id="Group_266">
					<g id="Group_265">
						<g id="Group_264">
							<g id="Group_263">
								<path id="Path_528" class="st5" d="M113.69,132.66c-0.29,0.35-2.07-1.16-4.62-1.16c-2.54-0.03-4.4,1.46-4.68,1.1
									c-0.14-0.16,0.16-0.8,0.97-1.48c1.06-0.86,2.38-1.33,3.74-1.32c1.35,0.01,2.65,0.49,3.68,1.36
									C113.56,131.87,113.83,132.51,113.69,132.66z"/>
							</g>
						</g>
					</g>
				</g>
			</g>
			<g id="Group_275" transform="translate(81.115 45.116)">
				<g id="Group_270" transform="translate(4.205 3.656)">
					<g id="Group_269">
						<g id="Group_268">
							<path id="Path_529" class="st5" d="M109.07,132.25c0.09,1.37-0.91,2.57-2.28,2.72c-1.31,0.03-2.4-1.01-2.43-2.32
								c0-0.04,0-0.07,0-0.11c-0.09-1.37,0.91-2.57,2.28-2.72c1.33-0.02,2.41,1.05,2.43,2.37
								C109.07,132.21,109.07,132.23,109.07,132.25z"/>
						</g>
					</g>
				</g>
				<g id="Group_274">
					<g id="Group_273">
						<g id="Group_272">
							<g id="Group_271">
								<path id="Path_530" class="st5" d="M113.69,132.65c-0.29,0.35-2.09-1.16-4.62-1.16c-2.54-0.03-4.4,1.46-4.68,1.1
									c-0.14-0.16,0.16-0.8,0.97-1.46c1.06-0.86,2.38-1.33,3.74-1.32c1.35,0.01,2.65,0.49,3.68,1.36
									C113.56,131.85,113.83,132.49,113.69,132.65z"/>
							</g>
						</g>
					</g>
				</g>
			</g>
			<g id="Group_279" transform="translate(98.472 45.302)">
				<g id="Group_278">
					<g id="Group_277">
						<g id="Group_276">
							<path id="Path_531" class="st5" d="M105.55,154c-0.01-0.16,1.57-0.48,4.12-0.85c0.64-0.07,1.27-0.22,1.37-0.72
								c0.06-0.76-0.09-1.52-0.43-2.2c-0.61-1.79-1.25-3.67-1.92-5.64c-2.67-8.04-4.59-14.65-4.3-14.77s2.67,6.29,5.34,14.33
								c0.64,1.98,1.25,3.88,1.83,5.68c0.41,0.91,0.53,1.93,0.34,2.91c-0.17,0.51-0.56,0.91-1.06,1.09
								c-0.36,0.11-0.73,0.17-1.1,0.17C107.16,154.14,105.55,154.16,105.55,154z"/>
						</g>
					</g>
				</g>
			</g>
			<g id="Group_282" transform="translate(76.772 96.327)">
				<g id="Group_281">
					<g id="Group_280">
						<path id="Path_532" class="st19" d="M129,137.34c-8.8,0.13-17.41-2.5-24.64-7.52c0,0,5.98,14.45,24.4,12.48L129,137.34z"/>
					</g>
				</g>
			</g>
			<g id="Group_285" transform="translate(91.019 74.514)">
				<g id="Group_284">
					<g id="Group_283">
						<path id="Path_533" class="st19" d="M111.93,131.79c-0.89-1.37-2.48-2.12-4.1-1.94c-1.17,0.14-2.23,0.78-2.88,1.76
							c-0.7,1.03-0.77,2.35-0.2,3.46c0.76,1.04,2.13,1.44,3.33,0.97c1.23-0.5,2.33-1.26,3.25-2.21c0.29-0.24,0.54-0.53,0.72-0.85
							c0.19-0.34,0.19-0.75,0-1.09"/>
					</g>
				</g>
			</g>
			<g id="Group_289" transform="translate(91.778 71.495)">
				<g id="Group_288">
					<g id="Group_287">
						<g id="Group_286">
							<path id="Path_534" class="st5" d="M104.77,129.82c0.42-0.03,0.42,3.12,2.78,5.37s5.29,1.9,5.31,2.33
								c0.04,0.2-0.66,0.61-1.9,0.65c-1.65,0.01-3.24-0.62-4.44-1.76c-1.24-1.19-2-2.79-2.15-4.5
								C104.28,130.58,104.58,129.8,104.77,129.82z"/>
						</g>
					</g>
				</g>
			</g>
			<g id="Group_292" transform="translate(79.995 40.679)">
				<g id="Group_291">
					<g id="Group_290">
						<path id="Path_535" class="st5" d="M115.95,132c-0.25,0.8-2.78,0.42-5.77,0.82c-2.98,0.35-5.39,1.35-5.78,0.64
							c-0.18-0.33,0.24-1.09,1.21-1.85c1.25-0.94,2.73-1.53,4.29-1.72c1.53-0.21,3.09,0,4.52,0.61
							C115.51,131.01,116.06,131.63,115.95,132z"/>
					</g>
				</g>
			</g>
			<g id="Group_295" transform="translate(105.824 35.988)">
				<g id="Group_294">
					<g id="Group_293">
						<path id="Path_536" class="st5" d="M113.01,132.83c-0.44,0.66-2.2-0.03-4.3-0.06c-2.1-0.12-3.88,0.45-4.3-0.25
							c-0.18-0.33,0.1-1,0.89-1.62c2.08-1.54,4.95-1.44,6.92,0.25C112.96,131.83,113.2,132.51,113.01,132.83z"/>
					</g>
				</g>
			</g>
			<g id="Group_296" transform="translate(53.105 9.022)">
				<path id="Path_537" class="st5" d="M169.92,159.27c-3.21-17.95-7.59-10.85-12.54-19.41c-7.16,8.29-23.64,17.85-33.7,19.71
					c-1.06,0.09-2.08,0.46-2.95,1.07c-1.56,1.32-1.67,3.86-1.67,6.07c0.01,6.23-0.09,12.52-1.34,18.58s-3.76,11.95-7.87,16.04
					c-6.07-14.62-6.68-31.64-3.96-47.52c1.11-6.49,2.99-13.29,7.51-17.41c3.24-2.95,7.41-4.14,11.48-4.99
					c10.05-2.11,20.69-2.62,30.27,1.49s17.01,9.15,18.29,20.75"/>
			</g>
			<g id="Group_298" transform="translate(49.121 15.04)">
				<g id="Group_297">
					<path id="Path_538" class="st13" d="M104.36,140.66c0.63,0.51,1.32,0.94,2.06,1.29c0.82,0.46,1.67,0.85,2.55,1.17
						c0.52,0.2,1.06,0.42,1.63,0.65c0.59,0.17,1.23,0.35,1.87,0.54c3.07,0.85,6.23,1.34,9.41,1.48c3.89,0.14,7.78-0.15,11.6-0.87
						c3.86-0.76,7.62-1.93,11.22-3.5c1.59-0.71,3.13-1.53,4.62-2.43c0.7-0.42,1.38-0.84,2.04-1.24c0.62-0.46,1.21-0.9,1.78-1.33
						c1.04-0.74,2.03-1.57,2.93-2.47c0.4-0.38,0.8-0.74,1.16-1.09c0.32-0.36,0.61-0.69,0.89-1.03c0.59-0.61,1.11-1.28,1.56-2
						c-0.16-0.19-2.4,2.68-6.94,5.87c-0.57,0.39-1.16,0.81-1.78,1.23c-0.66,0.38-1.33,0.77-2.02,1.16c-1.49,0.84-3.02,1.6-4.58,2.29
						c-3.56,1.49-7.27,2.61-11.05,3.35c-3.76,0.7-7.58,1.01-11.41,0.94c-3.12-0.08-6.23-0.48-9.27-1.2
						C107.41,142.23,104.45,140.43,104.36,140.66z"/>
				</g>
			</g>
			<g id="Group_300" transform="translate(54.332 11.693)">
				<g id="Group_299">
					<path id="Path_539" class="st13" d="M104.36,129.83c0.46,0.56,0.99,1.06,1.58,1.49c0.64,0.55,1.32,1.03,2.05,1.45
						c0.42,0.26,0.86,0.55,1.33,0.82c0.49,0.25,1.01,0.49,1.56,0.75c4.35,2.17,10.88,3.64,18.07,3.69
						c6.16,0.01,12.3-0.77,18.26-2.33c1.82-0.46,3.62-1.01,5.38-1.66c0.67-0.19,1.32-0.48,1.91-0.85c-0.05-0.19-2.85,0.71-7.42,1.69
						c-5.95,1.3-12.01,1.96-18.1,1.97c-7.1-0.04-13.5-1.36-17.82-3.28C106.79,131.71,104.49,129.61,104.36,129.83z"/>
				</g>
			</g>
			<g id="Group_302" transform="translate(104.474 6.971)">
				<g id="Group_301">
					<path id="Path_540" class="st13" d="M110.77,129.98c0-0.15-0.63-0.29-1.62,0c-1.33,0.44-2.48,1.31-3.28,2.46
						c-0.88,1.21-1.4,2.64-1.51,4.14c-0.06,1.17,0.18,1.85,0.3,1.82c0.29-0.01,0.18-2.78,2-5.21
						C108.42,130.71,110.82,130.31,110.77,129.98z"/>
				</g>
			</g>
			<g id="Group_304" transform="translate(6.9 6.764)">
				<g id="Group_303">
					<path id="Path_541" class="st5" d="M113.28,152.85c-0.13-0.29-0.31-0.55-0.54-0.77c-0.61-0.62-1.41-1.01-2.28-1.13
						c-1.36-0.2-2.74,0.15-3.83,0.98c-1.62,1.26-2.47,3.28-2.24,5.32c0.18,2.43,1.48,4.64,3.53,5.97c2.33,1.25,5.19,0.91,7.16-0.85
						c1.15-0.93,2.05-2.13,2.63-3.49c0.59-1.47,0.92-3.04,0.97-4.63c0.19-3.18-0.29-6.39,0.21-9.52c0.88-5.71,4.57-10.59,9.83-12.99
						c4.13-1.61,8.8-0.95,12.32,1.74c2.56,1.87,4.58,4.4,5.83,7.32c0.91,2.14,1.1,3.49,1.21,3.44c0.01-0.33-0.02-0.65-0.1-0.97
						c-0.15-0.91-0.4-1.81-0.73-2.68c-1.16-3.1-3.17-5.81-5.79-7.82c-1.72-1.31-3.71-2.23-5.82-2.7c-2.41-0.5-4.92-0.28-7.21,0.64
						c-4.82,1.91-9.4,7-10.52,13.8c-0.54,3.4-0.02,6.65-0.21,9.65c-0.04,1.44-0.33,2.87-0.86,4.21c-0.5,1.2-1.28,2.27-2.29,3.1
						c-1.69,1.55-4.17,1.91-6.22,0.88c-1.81-1.14-2.99-3.06-3.19-5.19c-0.24-1.77,0.46-3.54,1.83-4.69
						C108.82,150.86,111.63,151.03,113.28,152.85L113.28,152.85z"/>
				</g>
			</g>
			<g id="Group_306" transform="translate(64.148 16.941)">
				<g id="Group_305">
					<path id="Path_542" class="st5" d="M104.36,152.16c0.63,0.17,1.28,0.23,1.92,0.17c1.24,0.03,3.02,0.03,5.22-0.06
						c5.83-0.11,11.59-1.25,17.02-3.37c5.71-2.36,10.57-6.42,13.9-11.63c1.04-1.66,1.87-3.45,2.47-5.32
						c0.26-0.69,0.43-1.41,0.48-2.14c-0.2-0.1-0.89,3.01-3.54,6.97c-3.4,4.91-8.15,8.74-13.67,11.02
						c-5.35,2.05-10.99,3.28-16.71,3.64C107.08,151.83,104.35,151.99,104.36,152.16z"/>
				</g>
			</g>
			<g id="Group_308" transform="translate(38.019 79.131)">
				<g id="Group_307">
					<path id="Path_543" class="st5" d="M104.37,141.37c0.09,0.74,0.39,1.43,0.87,2c1.12,1.54,2.87,2.52,4.77,2.66
						c2.8,0.06,5.49-1.1,7.37-3.18c1.29-1.32,2.09-3.04,2.25-4.87c0.13-1.94-0.57-4.27-2.39-5.28c-1.75-0.86-3.86-0.14-4.72,1.6
						c-0.06,0.12-0.11,0.25-0.16,0.38c-0.34,1-0.27,2.1,0.19,3.05c0.37,0.84,1.01,1.54,1.81,1.98c1.37,0.68,2.98,0.71,4.38,0.09
						c1.23-0.5,2.32-1.29,3.16-2.31c1.3-1.54,2.12-3.44,2.34-5.45c0.14-0.74,0.1-1.49-0.11-2.21c-0.09,0-0.04,0.8-0.29,2.14
						c-0.35,1.84-1.2,3.54-2.45,4.93c-0.79,0.89-1.79,1.57-2.91,1.98c-1.19,0.49-2.54,0.45-3.69-0.13
						c-1.26-0.73-1.87-2.21-1.48-3.62c0.54-1.32,2.05-1.95,3.37-1.4c0.04,0.02,0.09,0.04,0.13,0.06c1.29,0.69,1.92,2.53,1.82,4.14
						c-0.14,1.56-0.81,3.03-1.9,4.16c-1.7,1.93-4.12,3.07-6.69,3.14c-1.73-0.06-3.36-0.83-4.5-2.14
						C104.7,142.08,104.46,141.33,104.37,141.37z"/>
				</g>
			</g>
		</g>
	</g>
	<g id="Group_311" transform="translate(80.102 346.205)">
		<path id="Path_544" class="st13" d="M309.45,130.19c0,0.2-45.91,0.38-102.54,0.38c-56.65,0-102.55-0.17-102.55-0.38
			s45.9-0.38,102.55-0.38C263.54,129.82,309.45,129.99,309.45,130.19z"/>
	</g>
</g>
<g id="Plant" transform="translate(75.211 419.74)">
	<g id="Group_312" transform="translate(12.805)">
		<path id="Path_545" class="st22" d="M110.24,129.82c4.4,0.65,8.33,3.83,10.94,7.94c2.54,4.32,4.16,9.12,4.76,14.1
			c1.44,9.69-0.81,20.71-3.93,29.86c-8.65-4.6-13.29-16.11-15.33-22.11C103.47,150.11,102.71,130.73,110.24,129.82"/>
	</g>
	<g id="Group_313" transform="translate(40.799 39.045)">
		<path id="Path_546" class="st22" d="M105.97,155.49c-2.45-4.93-2-11.4,0.64-16.2c2.57-4.6,6.95-7.92,12.08-9.14
			c2.25-0.54,4.81-0.59,6.59,1.06c1.67,1.55,2.21,4.28,1.8,6.7c-0.51,2.34-1.58,4.52-3.11,6.35
			C119.08,150.52,113.34,155.56,105.97,155.49"/>
	</g>
	<g id="Group_315" transform="translate(39.701 50.008)">
		<g id="Group_314">
			<path id="Path_547" class="st5" d="M105.5,176.23c-0.13-0.66-0.21-1.33-0.24-2.01c-0.13-1.43-0.29-3.27-0.48-5.48
				c-0.34-4.6-0.94-11.17,0.48-18.21c1.39-7,4.35-12.8,7.24-16.15c1.09-1.33,2.34-2.53,3.72-3.57c0.36-0.28,0.74-0.53,1.14-0.77
				c0.13-0.09,0.27-0.17,0.42-0.22c-1.82,1.45-3.47,3.09-4.95,4.89c-3.52,4.71-5.9,10.18-6.94,15.97
				c-1.4,6.88-0.89,13.38-0.66,18.01c0.14,2.33,0.24,4.21,0.29,5.51C105.56,174.87,105.55,175.55,105.5,176.23z"/>
		</g>
	</g>
	<g id="Group_317" transform="translate(20.409 14.693)">
		<g id="Group_316">
			<path id="Path_548" class="st5" d="M104.37,129.82c0.13,0.26,0.23,0.53,0.3,0.81c0.19,0.61,0.43,1.4,0.73,2.37
				c0.63,2.07,1.5,5.08,2.57,8.79c2.11,7.45,4.92,17.79,7.78,29.27s5.25,21.97,6.88,29.58c0.82,3.8,1.45,6.88,1.87,9.02
				c0.19,1.01,0.34,1.82,0.47,2.46c0.06,0.29,0.11,0.58,0.13,0.87c-0.11-0.27-0.19-0.55-0.24-0.84c-0.15-0.62-0.34-1.43-0.58-2.43
				c-0.51-2.2-1.21-5.25-2.06-8.97c-1.75-7.56-4.2-18.01-7.06-29.5s-5.59-21.84-7.6-29.32c-0.99-3.67-1.8-6.68-2.38-8.86
				c-0.25-1-0.47-1.79-0.63-2.42C104.45,130.38,104.39,130.1,104.37,129.82z"/>
		</g>
	</g>
	<g id="Group_318" transform="translate(0 53.327)">
		<path id="Path_549" class="st22" d="M136.26,150.88c-4.45-10.83-13.74-18.87-24.06-20.84c-2.63-0.51-5.86-0.33-7.25,2.27
			s-0.09,5.99,1.54,8.4c6.75,10.08,19.17,14.67,29.81,10.99"/>
	</g>
	<g id="Group_320" transform="translate(11.218 62.061)">
		<g id="Group_319">
			<path id="Path_550" class="st5" d="M104.36,129.83c0.56,0.02,1.11,0.11,1.66,0.25c0.65,0.11,1.29,0.26,1.91,0.46
				c0.85,0.22,1.68,0.49,2.49,0.81c1,0.37,1.98,0.79,2.93,1.27c1.12,0.54,2.2,1.15,3.24,1.82c2.44,1.58,4.69,3.45,6.69,5.55
				c2.04,2.21,3.82,4.64,5.32,7.25c0.66,1.16,1.26,2.36,1.8,3.59c0.49,1.07,0.91,2.17,1.28,3.28c0.39,1.01,0.59,1.98,0.84,2.81
				c0.2,0.71,0.37,1.44,0.49,2.17c0.16,0.62,0.25,1.25,0.28,1.88c-0.14,0.04-0.56-2.65-2.01-6.65c-0.38-1-0.78-2.1-1.33-3.2
				c-0.49-1.14-1.14-2.29-1.81-3.5c-1.5-2.54-3.26-4.92-5.26-7.09c-1.98-2.07-4.17-3.91-6.55-5.5c-1.02-0.67-2.08-1.29-3.18-1.85
				c-0.93-0.5-1.89-0.95-2.87-1.35C106.69,130.38,104.32,129.99,104.36,129.83z"/>
		</g>
	</g>
</g>
<g id="Light_bulb" transform="translate(328.114)">
	<g id="Group_321" transform="translate(72.794 66.273)" class="st14">
		<path id="Path_551" class="st16" d="M120.58,182.2c-0.48,0.5-1.71,0.4-3.49-0.43c-2.39-1.24-4.49-2.96-6.18-5.05
			c-2.53-3-4.39-6.5-5.45-10.28c-1.33-4.66-1.46-9.58-0.37-14.3c1.19-4.78,3.54-9.19,6.83-12.85c2.7-3.03,5.97-5.5,9.64-7.25
			c2.47-1.24,5.16-1.99,7.92-2.22c1.99-0.09,3.14,0.3,3.36,0.94c0.45,1.4-2.86,3.35-6.82,7.03c-2.26,2.07-4.27,4.39-5.99,6.92
			c-1.98,2.91-3.44,6.14-4.3,9.55c-0.77,3.39-0.92,6.88-0.44,10.32c0.4,2.94,1.17,5.83,2.29,8.58
			C119.49,178.07,121.62,181.11,120.58,182.2z"/>
	</g>
	<g id="Group_322" transform="translate(90.476 125.146)" class="st14">
		<path id="Path_552" class="st16" d="M114.28,134.88c-0.06,2.74-2.32,4.91-5.06,4.86c-2.74-0.06-4.91-2.32-4.86-5.06
			c0.06-2.73,2.3-4.89,5.03-4.86C112.13,129.88,114.31,132.14,114.28,134.88z"/>
	</g>
	<g id="Group_334">
		<path id="Path_553" class="st23" d="M177.92,143.69c-23.61-1.46-47.7,9.14-61.26,26.95c-13.57,17.81-16.14,42.22-6.55,62.09
			c8.02,16.63,23.57,29.62,30.45,46.67c4.73,11.7,5.08,24.58,9.89,36.24c9.89,23.96,40.07,39.2,67.39,34.04
			c16.41-3.1,31.17-12.51,47.88-13.47c17.95-1.03,38.37,7.35,52.57-2.77c9.93-7.08,11.61-20.66,8.02-31.71s-11.35-20.49-17.71-30.44
			s-11.55-21.46-9.18-32.78c2.13-10.28,10.07-18.6,15.05-28.01c9.31-17.97,7.65-39.66-4.3-55.99
			c-11.94-16.24-33.67-25.95-54.95-24.56c-14.26,0.93-27.63,6.39-41.36,10.08C200.13,143.72,193.28,144.13,177.92,143.69"/>
		<path id="Path_554" class="st22" d="M212.13,185.65c0,0-26.39-0.23-35.48,20.82s1.32,31.22,5.39,37.42s14.98,19.66,15.07,32.35
			l35.46-0.2c1.86-11.35,6.09-22.18,12.42-31.78c10.6-16.21,9.34-28.04,6.45-35.09S239.11,184.61,212.13,185.65z"/>
		<g id="Group_323" transform="translate(86.192 86.249)">
			<path id="Path_555" class="st5" d="M133.99,188.87c0,0-0.05-0.17-0.11-0.5c-0.06-0.36-0.14-0.86-0.25-1.49
				c-0.2-1.33-0.51-3.27-0.89-5.75c-0.73-5-1.82-12.24-2.52-21.26c-0.16-2.26-0.31-4.62-0.37-7.08s-0.16-5.03,0.03-7.69
				c0.12-2.79,0.82-5.53,2.05-8.04c1.44-2.78,3.83-4.94,6.74-6.09c3.26-1.19,6.91-0.52,9.53,1.76c1.27,1.12,1.99,2.73,1.99,4.42
				c-0.08,1.69-0.73,3.31-1.84,4.59c-1.15,1.35-2.61,2.41-4.25,3.09c-1.68,0.72-3.43,1.24-5.23,1.54
				c-3.65,0.66-7.36,1.02-11.07,1.09c-3.72,0.1-7.44-0.1-11.13-0.6c-1.81-0.27-3.57-0.75-5.26-1.44c-1.64-0.68-3.13-1.67-4.39-2.92
				c-1.22-1.18-2.08-2.68-2.49-4.33c-0.73-3.38,1.13-6.79,4.37-8.01c1.63-0.54,3.41-0.45,4.98,0.26c1.47,0.64,2.74,1.66,3.69,2.95
				c0.86,1.21,1.48,2.58,1.82,4.03c0.52,2.71,0.78,5.46,0.79,8.22c0.25,5.3,0.47,10.24,0.68,14.74c0.4,9.01,0.72,16.29,0.95,21.36
				c0.09,2.5,0.17,4.46,0.23,5.8c0.02,0.64,0.03,1.14,0.05,1.52v0.51c-0.03-0.17-0.04-0.34-0.05-0.51
				c-0.03-0.36-0.06-0.86-0.09-1.52c-0.08-1.34-0.19-3.3-0.33-5.8c-0.27-5.06-0.65-12.35-1.12-21.35c-0.23-4.5-0.48-9.45-0.75-14.74
				c-0.03-2.73-0.3-5.45-0.81-8.14c-0.33-1.39-0.93-2.71-1.76-3.87c-0.91-1.21-2.11-2.17-3.5-2.77c-1.45-0.65-3.08-0.74-4.59-0.24
				c-3,1.16-4.71,4.32-4.03,7.46c0.4,1.56,1.22,2.98,2.38,4.1c2.33,2.4,5.79,3.67,9.34,4.2c3.65,0.48,7.34,0.68,11.02,0.59
				c3.68-0.06,7.35-0.42,10.98-1.07c1.75-0.3,3.46-0.81,5.09-1.5c1.57-0.65,2.96-1.66,4.06-2.95c1.05-1.2,1.66-2.71,1.74-4.3
				c0.01-1.56-0.66-3.05-1.84-4.07c-2.47-2.14-5.9-2.77-8.97-1.66c-2.81,1.09-5.12,3.17-6.51,5.85c-1.22,2.45-1.91,5.13-2.04,7.86
				c-0.19,2.63-0.11,5.2-0.06,7.65c0.06,2.46,0.2,4.82,0.34,7.06c0.64,8.99,1.67,16.24,2.33,21.25c0.34,2.49,0.61,4.43,0.79,5.76
				c0.08,0.64,0.16,1.14,0.2,1.5C133.97,188.7,133.99,188.87,133.99,188.87z"/>
		</g>
		<path id="Path_556" class="st4" d="M197.1,275.76l35.59-0.5l0.37,20.63l-10.32,11.32l-13.65,0.54l-11.55-12.68L197.1,275.76z"/>
		<path id="Path_557" class="st13" d="M222.73,307.22c-1.94-1.78-4.5-2.73-7.13-2.64c-2.59,0.12-5.02,1.28-6.74,3.22L222.73,307.22z
			"/>
		<g id="Group_324" transform="translate(93.714 160.24)">
			<path id="Path_558" class="st5" d="M138.39,133.97c-0.44-0.14-0.87-0.32-1.29-0.51c-0.81-0.34-2.01-0.83-3.52-1.32
				c-7.99-2.6-16.62-2.44-24.5,0.47c-1.18,0.43-2.33,0.91-3.46,1.46c-0.4,0.22-0.82,0.41-1.26,0.56c0.36-0.29,0.75-0.53,1.17-0.73
				c1.11-0.61,2.25-1.14,3.42-1.6c7.93-3.14,16.73-3.3,24.78-0.47c1.19,0.42,2.35,0.91,3.49,1.47
				C137.64,133.48,138.03,133.7,138.39,133.97z"/>
		</g>
		<g id="Group_325" transform="translate(93.761 155.221)">
			<path id="Path_559" class="st5" d="M138.39,133.97c-0.44-0.14-0.87-0.32-1.29-0.51c-0.81-0.34-2.01-0.83-3.52-1.32
				c-7.99-2.6-16.62-2.44-24.5,0.47c-1.18,0.43-2.33,0.91-3.46,1.46c-0.4,0.22-0.82,0.41-1.26,0.56c0.36-0.29,0.75-0.53,1.17-0.73
				c1.11-0.61,2.25-1.14,3.42-1.6c7.93-3.14,16.73-3.3,24.78-0.47c1.19,0.42,2.35,0.91,3.49,1.47
				C137.63,133.49,138.02,133.72,138.39,133.97z"/>
		</g>
		<g id="Group_326" transform="translate(93.496 150.46)">
			<path id="Path_560" class="st5" d="M138.39,133.97c-0.44-0.14-0.87-0.32-1.29-0.51c-0.81-0.34-2.01-0.83-3.52-1.32
				c-7.99-2.6-16.62-2.44-24.5,0.47c-1.18,0.43-2.33,0.91-3.46,1.46c-0.4,0.22-0.82,0.41-1.26,0.56c0.36-0.29,0.75-0.53,1.17-0.73
				c1.11-0.61,2.25-1.14,3.42-1.6c7.93-3.14,16.73-3.3,24.78-0.47c1.19,0.42,2.35,0.91,3.49,1.47
				C137.64,133.48,138.03,133.7,138.39,133.97z"/>
		</g>
		<g id="Group_327" transform="translate(45.362 49.682)">
			<path id="Path_561" class="st5" d="M124.21,143.6c-0.09,0.11-4.61-2.89-10.09-6.69c-5.48-3.8-9.85-6.98-9.76-7.09
				c0.09-0.11,4.61,2.89,10.09,6.69C119.93,140.31,124.3,143.5,124.21,143.6z"/>
		</g>
		<g id="Group_328" transform="translate(64.644 45.236)">
			<path id="Path_562" class="st5" d="M112.38,138.97c-1.53-1.35-2.94-2.82-4.22-4.42c-1.4-1.46-2.67-3.05-3.8-4.73
				c1.53,1.35,2.94,2.82,4.22,4.42C109.99,135.7,111.26,137.28,112.38,138.97z"/>
		</g>
		<g id="Group_329" transform="translate(81.345 31.585)">
			<path id="Path_563" class="st5" d="M111.92,150.53c-0.14,0.04-1.95-4.56-4.03-10.28c-2.09-5.72-3.66-10.39-3.52-10.44
				c0.14-0.04,1.95,4.56,4.03,10.28C110.49,145.81,112.06,150.49,111.92,150.53z"/>
		</g>
		<g id="Group_330" transform="translate(107.217 37.876)">
			<path id="Path_564" class="st5" d="M105.99,140.3c-0.53-1.69-0.89-3.43-1.06-5.2c-0.35-1.74-0.53-3.51-0.53-5.28
				c0.53,1.69,0.89,3.43,1.06,5.2C105.82,136.75,106,138.52,105.99,140.3z"/>
		</g>
		<g id="Group_331" transform="translate(128.404 30.37)">
			<path id="Path_565" class="st5" d="M104.37,153.99c-0.14-0.04,1.37-5.48,3.38-12.15s3.75-12.07,3.91-12.02
				c0.14,0.04-1.37,5.48-3.38,12.15C106.25,148.66,104.51,154.04,104.37,153.99z"/>
		</g>
		<g id="Group_332" transform="translate(144.891 52.129)">
			<path id="Path_566" class="st5" d="M104.37,139.73c0.95-1.79,2.06-3.49,3.32-5.09c1.12-1.71,2.38-3.32,3.77-4.82
				c-0.95,1.79-2.06,3.49-3.32,5.09C107.02,136.62,105.76,138.23,104.37,139.73z"/>
		</g>
		<g id="Group_333" transform="translate(150.237 58.904)">
			<path id="Path_567" class="st5" d="M125.14,129.82c0.09,0.11-4.5,3.29-10.23,7.09c-5.74,3.8-10.46,6.79-10.55,6.69
				c-0.09-0.1,4.5-3.29,10.24-7.09C120.33,132.69,125.05,129.7,125.14,129.82z"/>
		</g>
	</g>
</g>
</svg>
