<?xml version="1.0" encoding="utf-8"?>
<!-- Generator: Adobe Illustrator 26.0.1, SVG Export Plug-In . SVG Version: 6.00 Build 0)  -->
<svg version="1.1" id="Layer_1" xmlns="http://www.w3.org/2000/svg" xmlns:xlink="http://www.w3.org/1999/xlink" x="0px" y="0px"
	 viewBox="0 0 800.31 792" style="enable-background:new 0 0 800.31 792;" xml:space="preserve">
<style type="text/css">
	.st0{fill:#F8CFE3;}
	.st1{fill:#E0E0E0;}
	.st2{fill:#F8DDD0;}
	.st3{opacity:0.24;fill:#F28E62;}
	.st4{fill:#F5F4F5;}
	.st5{fill:#EBEBEB;}
	.st6{fill:#FBFBFB;}
	.st7{fill:#263239;}
	.st8{fill:#455A64;}
	.st9{fill:#F28E62;}
	.st10{opacity:0.3;}
	.st11{fill:#010202;}
	.st12{fill:#FFFFFF;}
	.st13{fill:#F8BC9E;}
	.st14{fill:#EC9A6E;}
	.st15{fill:url(#Path_356_00000044154810507306844920000015088821220370004399_);}
	.st16{opacity:0.3;fill:#010202;enable-background:new    ;}
</style>
<path id="Path_210" class="st0" d="M603.12,352.22h142.27l-23.17,16.75v33c0,3.8-3.07,6.88-6.87,6.88H603.12
	c-3.8,0-6.87-3.08-6.87-6.88V359.1C596.25,355.3,599.32,352.22,603.12,352.22L603.12,352.22z"/>
<path id="Path_211" class="st1" d="M609.05,375.51c0,0.14,21.46,0.25,47.92,0.25s47.92-0.11,47.92-0.25
	c0-0.14-21.46-0.25-47.92-0.25S609.05,375.37,609.05,375.51z"/>
<path id="Path_212" class="st1" d="M609.05,388.14c0,0.14,21.46,0.25,47.92,0.25s47.92-0.11,47.92-0.25
	c0-0.14-21.46-0.25-47.92-0.25S609.05,388.01,609.05,388.14z"/>
<rect id="Rectangle_460" x="380.39" y="230.88" class="st2" width="6.66" height="22.34"/>
<rect id="Rectangle_461" x="324.78" y="227.65" class="st2" width="6.66" height="25.57"/>
<rect id="Rectangle_462" x="338.68" y="222.32" class="st2" width="6.66" height="30.9"/>
<rect id="Rectangle_463" x="352.58" y="224.01" class="st2" width="6.66" height="29.21"/>
<rect id="Rectangle_464" x="366.48" y="214.13" class="st2" width="6.66" height="39.09"/>
<rect id="Rectangle_465" x="394.29" y="214.32" class="st2" width="6.66" height="38.9"/>
<rect id="Rectangle_466" x="408.19" y="227.1" class="st2" width="6.66" height="26.12"/>
<rect id="Rectangle_467" x="422.09" y="216.03" class="st2" width="6.66" height="37.19"/>
<rect id="Rectangle_468" x="436" y="207.66" class="st2" width="6.66" height="45.56"/>
<rect id="Rectangle_469" x="449.9" y="215.84" class="st2" width="6.66" height="37.38"/>
<path id="Path_213" class="st0" d="M631.98,251.15l55.05-8.43c4.61,30.41-16.3,58.8-46.71,63.41c-30.41,4.61-58.8-16.3-63.41-46.71
	s16.3-58.8,46.71-63.41c4.8-0.73,9.67-0.83,14.49-0.29L631.98,251.15z"/>
<path id="Path_214" class="st2" d="M649.85,195.85l-6.68,42.74l41.93-7.88C685.1,230.71,678.9,206.79,649.85,195.85z"/>
<path id="Path_215" class="st2" d="M69.78,354.63c-0.16-15.08,11.93-27.43,27-27.59c15.08-0.16,27.43,11.93,27.59,27
	c0.16,15.02-11.84,27.35-26.86,27.59c-15.09,0.23-27.5-11.81-27.74-26.9C69.79,354.7,69.79,354.66,69.78,354.63z M110.13,353.97
	c-0.14-7.23-6.12-12.99-13.35-12.85c-7.23,0.14-12.99,6.12-12.85,13.35c0.14,7.23,6.12,12.99,13.35,12.85
	c3.47-0.07,6.77-1.51,9.18-4C108.88,360.82,110.2,357.45,110.13,353.97z"/>
<path id="Path_216" class="st3" d="M69.78,354.63c-0.27-15.12,11.74-27.6,26.86-27.91l0.23,14.33c-7.25,0.28-12.91,6.38-12.63,13.63
	c0.27,7.01,6,12.58,13.02,12.64l0.26,14.31C82.41,381.81,70.01,369.74,69.78,354.63z"/>
<path id="Path_217" class="st0" d="M94.2,324.53c17.25-0.4,31.55,13.26,31.94,30.51c0,0.21,0.01,0.41,0.01,0.62l-16.67,0.26
	c-0.13-8.47-6.57-13.8-14.98-13.66L94.2,324.53z"/>
<rect id="Rectangle_470" x="212.44" y="450.88" class="st4" width="34.71" height="41.32"/>
<rect id="Rectangle_471" x="56.82" y="448.17" class="st2" width="156.82" height="46.61"/>
<path id="Path_218" class="st1" d="M248.19,452.14h-38.76v-3.92h38.76c1.1,0,2,0.9,2,2l0,0
	C250.15,451.29,249.27,452.14,248.19,452.14L248.19,452.14z"/>
<path id="Path_219" class="st1" d="M248.19,494.77h-38.76v-3.92h38.76c1.1,0,2,0.9,2,2l0,0
	C250.15,493.92,249.27,494.77,248.19,494.77L248.19,494.77z"/>
<rect id="Rectangle_472" x="182.79" y="448.17" class="st5" width="18.53" height="46.61"/>
<rect id="Rectangle_473" x="71.73" y="448.69" class="st5" width="18.53" height="46.61"/>
<path id="Path_220" class="st1" d="M247.15,457.74c0,0.12-7.51,0.21-16.77,0.21s-16.77-0.09-16.77-0.21s7.51-0.21,16.77-0.21
	S247.15,457.63,247.15,457.74z"/>
<path id="Path_221" class="st1" d="M247.15,463.93c0,0.11-7.51,0.2-16.77,0.2s-16.77-0.09-16.77-0.2s7.51-0.21,16.77-0.21
	S247.15,463.81,247.15,463.93z"/>
<path id="Path_222" class="st1" d="M247.15,471.55c0,0.11-7.51,0.2-16.77,0.2s-16.77-0.09-16.77-0.2s7.51-0.21,16.77-0.21
	S247.15,471.45,247.15,471.55z"/>
<path id="Path_223" class="st1" d="M247.15,479.16c0,0.12-7.51,0.21-16.77,0.21s-16.77-0.09-16.77-0.21s7.51-0.2,16.77-0.2
	S247.15,479.05,247.15,479.16z"/>
<path id="Path_224" class="st1" d="M247.15,486.78c0,0.12-7.51,0.21-16.77,0.21s-16.77-0.09-16.77-0.21s7.51-0.2,16.77-0.2
	S247.15,486.67,247.15,486.78z"/>
<rect id="Rectangle_474" x="102.27" y="467.35" class="st5" width="70.55" height="8.39"/>
<rect id="Rectangle_475" x="211.56" y="495.65" class="st6" width="35.24" height="25.18"/>
<rect id="Rectangle_476" x="62.02" y="494.73" class="st4" width="149.95" height="27"/>
<path id="Path_225" class="st4" d="M210.86,496.59h37.87c0.5,0,0.91-0.41,0.91-0.91c0,0,0,0,0,0l0,0c0-0.5-0.4-0.91-0.91-0.92
	h-37.87V496.59z"/>
<path id="Path_226" class="st4" d="M210.86,519.8h38.36c0.23,0,0.42,0.19,0.42,0.42v1c0,0.23-0.19,0.42-0.42,0.42h-38.36V519.8
	L210.86,519.8z"/>
<path id="Path_227" class="st1" d="M246.8,500.46c0,0.11-7.81,0.21-17.42,0.21s-17.42-0.1-17.42-0.21s7.8-0.21,17.42-0.21
	S246.8,500.35,246.8,500.46z"/>
<path id="Path_228" class="st1" d="M246.8,505.21c0,0.12-7.81,0.21-17.42,0.21s-17.42-0.09-17.42-0.21s7.8-0.2,17.42-0.2
	S246.8,505.1,246.8,505.21z"/>
<path id="Path_229" class="st1" d="M246.8,509.97c0,0.11-7.81,0.2-17.42,0.2s-17.42-0.09-17.42-0.2s7.8-0.21,17.42-0.21
	S246.8,509.85,246.8,509.97z"/>
<path id="Path_230" class="st1" d="M246.8,514.73c0,0.11-7.81,0.2-17.42,0.2s-17.42-0.09-17.42-0.2c0-0.11,7.8-0.21,17.42-0.21
	S246.8,514.61,246.8,514.73z"/>
<rect id="Rectangle_477" x="216.18" y="524.03" class="st5" width="35.96" height="68.25"/>
<rect id="Rectangle_478" x="47.37" y="521.63" class="st0" width="168.81" height="74"/>
<path id="Path_231" class="st1" d="M254.95,595.62h-43.39v-4.8h43.39c1.32,0,2.4,1.08,2.4,2.4l0,0
	C257.35,594.54,256.28,595.62,254.95,595.62z"/>
<path id="Path_232" class="st1" d="M211.56,521.63h44.69c0.61,0,1.1,0.49,1.1,1.1l0,0v2.6c0,0.61-0.49,1.1-1.1,1.1l0,0h-44.69
	V521.63L211.56,521.63z"/>
<path id="Path_233" class="st1" d="M252.14,533.17c0,0.12-8.05,0.21-17.97,0.21s-17.97-0.09-17.97-0.21s8.05-0.2,17.97-0.2
	S252.14,533.06,252.14,533.17z"/>
<path id="Path_234" class="st1" d="M252.14,541.93c0,0.11-8.05,0.2-17.97,0.2s-17.97-0.09-17.97-0.2c0-0.11,8.05-0.21,17.97-0.21
	S252.14,541.81,252.14,541.93z"/>
<path id="Path_235" class="st1" d="M252.14,550.68c0,0.11-8.05,0.21-17.97,0.21s-17.97-0.1-17.97-0.21s8.05-0.21,17.97-0.21
	S252.14,550.57,252.14,550.68z"/>
<path id="Path_236" class="st1" d="M252.14,559.43c0,0.12-8.05,0.21-17.97,0.21s-17.97-0.09-17.97-0.21s8.05-0.2,17.97-0.2
	S252.14,559.32,252.14,559.43z"/>
<path id="Path_237" class="st1" d="M252.14,568.19c0,0.11-8.05,0.2-17.97,0.2s-17.97-0.09-17.97-0.2c0-0.11,8.05-0.21,17.97-0.21
	S252.14,568.07,252.14,568.19z"/>
<path id="Path_238" class="st1" d="M252.14,576.94c0,0.11-8.05,0.21-17.97,0.21s-17.97-0.1-17.97-0.21s8.05-0.21,17.97-0.21
	S252.14,576.83,252.14,576.94z"/>
<path id="Path_239" class="st1" d="M252.14,585.69c0,0.12-8.05,0.21-17.97,0.21s-17.97-0.09-17.97-0.21s8.05-0.2,17.97-0.2
	S252.14,585.58,252.14,585.69z"/>
<path id="Path_240" class="st5" d="M105.13,562.67v4.12c0,5-2.48,7.79-7.25,7.79s-7.25-2.83-7.25-7.79v-16.11c0-5,2.48-7.8,7.25-7.8
	s7.25,2.84,7.25,7.8v3h-4.59v-3.31c0-2.22-1-3.06-2.52-3.06s-2.53,0.84-2.53,3.06v16.73c0,2.22,1,3,2.53,3s2.52-0.79,2.52-3v-4.43
	H105.13z"/>
<path id="Path_241" class="st5" d="M107.7,550.68c0-5,2.61-7.8,7.38-7.8s7.38,2.84,7.38,7.8v16.11c0,5-2.61,7.79-7.38,7.79
	s-7.38-2.83-7.38-7.79V550.68z M112.56,567.1c0,2.22,1,3.06,2.52,3.06s2.52-0.84,2.52-3.06v-16.73c0-2.22-1-3.06-2.52-3.06
	s-2.52,0.84-2.52,3.06V567.1z"/>
<path id="Path_242" class="st5" d="M125.59,543.27h4.86v26.56h7.99v4.44h-12.85V543.27z"/>
<path id="Path_243" class="st5" d="M140.19,550.68c0-5,2.61-7.8,7.38-7.8s7.39,2.84,7.39,7.8v16.11c0,5-2.61,7.79-7.39,7.79
	s-7.38-2.83-7.38-7.79V550.68z M145.06,567.1c0,2.22,1,3.06,2.52,3.06s2.53-0.84,2.53-3.06v-16.73c0-2.22-1-3.06-2.53-3.06
	s-2.52,0.84-2.52,3.06V567.1z"/>
<path id="Path_244" class="st5" d="M162.72,543.27v23.91c0,2.21,1,3,2.52,3s2.52-0.8,2.52-3v-23.91h4.6v23.6
	c0,4.95-2.48,7.79-7.25,7.79s-7.25-2.84-7.25-7.79v-23.6H162.72z"/>
<path id="Path_245" class="st5" d="M185.83,574.27c-0.41-1.23-0.56-2.52-0.45-3.81v-4.87c0-2.88-1-3.94-3.18-3.94h-1.69v12.62h-4.86
	v-31H183c4.99,0,7.21,2.35,7.21,7.13v2.43c0,3.19-1,5.27-3.18,6.29c2.44,1,3.23,3.36,3.23,6.59v4.79c-0.09,1.28,0.1,2.56,0.54,3.76
	L185.83,574.27z M180.52,547.71v9.51h1.91c1.81,0,2.91-0.79,2.91-3.27v-3.06c0-2.21-0.75-3.18-2.48-3.18L180.52,547.71z"/>
<path id="Path_246" class="st1" d="M104.08,505.39h-3.54l0.19-0.92h8.14l-0.2,0.92h-3.53l-1.83,9.14h-1.05L104.08,505.39z"/>
<path id="Path_247" class="st1" d="M115.69,506.95l-5.51,8.54c-0.94,1.44-1.64,1.89-2.73,1.89c-0.67,0.03-1.32-0.21-1.8-0.67
	l0.54-0.75c0.35,0.36,0.83,0.56,1.34,0.55c0.65,0,1.15-0.31,1.74-1.23l0.53-0.8l-1.88-7.52h1l1.6,6.42l4.12-6.44L115.69,506.95z"/>
<path id="Path_248" class="st1" d="M124.08,510.08c0.13,2.35-1.66,4.36-4.01,4.49c-0.09,0.01-0.18,0.01-0.27,0.01
	c-1.21,0.13-2.37-0.54-2.88-1.65l-0.86,4.37h-1l2.06-10.35h1l-0.24,1.21c0.76-0.85,1.86-1.32,3-1.27c1.68-0.08,3.11,1.21,3.19,2.89
	C124.09,509.89,124.09,509.99,124.08,510.08L124.08,510.08z M123.08,510.14c0.09-1.22-0.83-2.28-2.05-2.37
	c-0.14-0.01-0.29-0.01-0.43,0.01c-1.82,0-3.3,1.48-3.3,3.3c0,0.1,0,0.2,0.01,0.3c-0.09,1.21,0.81,2.27,2.02,2.36
	c0.15,0.01,0.31,0.01,0.46-0.01c1.82-0.02,3.29-1.51,3.27-3.33c0-0.09-0.01-0.17-0.01-0.26L123.08,510.14z"/>
<path id="Path_249" class="st1" d="M125.27,511.39c-0.11-2.36,1.71-4.37,4.08-4.49c0.09,0,0.19-0.01,0.28,0
	c1.7-0.19,3.23,1.04,3.42,2.74c0.02,0.15,0.02,0.3,0.02,0.45c0.11,2.37-1.72,4.39-4.09,4.5c-0.09,0-0.18,0.01-0.27,0
	c-1.71,0.18-3.24-1.05-3.42-2.76C125.27,511.68,125.26,511.53,125.27,511.39z M132.05,510.15c0.09-1.22-0.83-2.28-2.05-2.37
	c-0.14-0.01-0.29-0.01-0.43,0.01c-1.84,0.03-3.31,1.54-3.28,3.37c0,0.06,0,0.12,0.01,0.18c-0.09,1.22,0.83,2.27,2.04,2.36
	c0.15,0.01,0.3,0.01,0.44-0.01c1.83-0.01,3.3-1.51,3.28-3.33C132.05,510.29,132.05,510.22,132.05,510.15z"/>
<path id="Path_250" class="st1" d="M142.83,506.95l-1.32,6.64c-0.53,2.68-1.94,3.78-4.39,3.78c-1.22,0.06-2.42-0.34-3.36-1.13
	l0.6-0.78c0.78,0.69,1.8,1.05,2.84,1c1.65,0.15,3.11-1.06,3.26-2.71c0,0,0,0,0,0l0.18-0.83c-0.76,0.85-1.86,1.32-3,1.29
	c-2,0-3.33-1.16-3.33-3c-0.06-2.31,1.75-4.23,4.06-4.29c0.08,0,0.16,0,0.24,0c1.25-0.12,2.44,0.58,2.94,1.73l0.32-1.67
	L142.83,506.95z M141.11,509.95c0-1.38-0.93-2.2-2.5-2.2c-1.77-0.04-3.24,1.36-3.29,3.13c0,0.07,0,0.14,0,0.21
	c0,1.38,0.92,2.2,2.5,2.2c1.77,0.04,3.24-1.36,3.29-3.13c0-0.06,0-0.12,0-0.18V509.95z"/>
<path id="Path_251" class="st1" d="M149.49,506.9l-0.19,1h-0.28c-1.61,0-2.69,0.92-3.07,2.8l-0.76,3.84h-1l1.5-7.56h1l-0.31,1.41
	C147.08,507.37,148.27,506.8,149.49,506.9L149.49,506.9z"/>
<path id="Path_252" class="st1" d="M158.17,506.96l-1.51,7.56h-1l0.24-1.19c-0.75,0.83-1.82,1.29-2.93,1.26
	c-1.68,0.14-3.15-1.11-3.29-2.78c-0.01-0.14-0.01-0.28-0.01-0.42c-0.13-2.35,1.67-4.35,4.02-4.48c0.08,0,0.16-0.01,0.25-0.01
	c1.21-0.13,2.37,0.53,2.88,1.64l0.32-1.58L158.17,506.96z M156.47,510.15c0.09-1.22-0.83-2.28-2.05-2.37
	c-0.14-0.01-0.29-0.01-0.43,0.01c-1.83,0.02-3.3,1.53-3.27,3.36c0,0.06,0,0.13,0.01,0.19c-0.09,1.21,0.82,2.27,2.03,2.36
	c0.14,0.01,0.29,0.01,0.43-0.01c1.83-0.01,3.3-1.51,3.28-3.33c0-0.07,0-0.14-0.01-0.21H156.47z"/>
<path id="Path_253" class="st1" d="M167.94,510.08c0.13,2.35-1.66,4.36-4.01,4.49c-0.09,0.01-0.18,0.01-0.27,0.01
	c-1.21,0.13-2.37-0.54-2.88-1.65l-0.86,4.37h-1l2.05-10.35h1l-0.24,1.21c0.74-0.84,1.82-1.3,2.93-1.27
	c1.68-0.12,3.14,1.15,3.26,2.84C167.94,509.85,167.95,509.97,167.94,510.08L167.94,510.08z M166.94,510.14
	c0.09-1.22-0.83-2.28-2.05-2.37c-0.14-0.01-0.29-0.01-0.43,0.01c-1.82,0-3.3,1.47-3.3,3.3c0,0.1,0,0.2,0.01,0.3
	c-0.09,1.21,0.81,2.27,2.03,2.36c0.15,0.01,0.3,0.01,0.45-0.01c1.82-0.01,3.29-1.49,3.29-3.31c0-0.09,0-0.19-0.01-0.28H166.94z"/>
<path id="Path_254" class="st1" d="M177.08,509.39c0,0.29-0.03,0.58-0.08,0.86l-0.86,4.3h-1l0.87-4.31
	c0.04-0.23,0.06-0.46,0.07-0.69c0-1.08-0.65-1.7-2-1.7c-1.56-0.08-2.91,1.09-3.07,2.65l-0.81,4.05h-1l2.13-10.67h1l-0.85,4.24
	c0.74-0.8,1.8-1.24,2.88-1.19C176.14,506.9,177.08,507.82,177.08,509.39z"/>
<path id="Path_255" class="st1" d="M186.62,506.95l-5.49,8.54c-0.94,1.44-1.64,1.88-2.73,1.88c-0.67,0.03-1.32-0.21-1.8-0.67
	l0.55-0.75c0.34,0.36,0.83,0.56,1.33,0.55c0.65,0,1.15-0.31,1.74-1.23l0.54-0.8l-1.89-7.52h1l1.56,6.44l4.12-6.44H186.62z"/>
<path id="Path_256" class="st2" d="M209.37,196.64H56.22l24.96,18v35.47c-0.01,4.08,3.29,7.4,7.38,7.41c0.01,0,0.01,0,0.02,0h120.81
	c4.09,0,7.4-3.31,7.4-7.4c0,0,0-0.01,0-0.01v-46.06c0.01-4.09-3.3-7.4-7.39-7.41C209.39,196.64,209.38,196.64,209.37,196.64
	L209.37,196.64z"/>
<path id="Path_257" class="st1" d="M202.98,221.71c0,0.15-23.09,0.27-51.58,0.27s-51.59-0.13-51.59-0.27s23.09-0.27,51.59-0.27
	S202.98,221.56,202.98,221.71z"/>
<path id="Path_258" class="st1" d="M202.98,235.33c0,0.15-23.09,0.27-51.58,0.27s-51.59-0.12-51.59-0.27s23.09-0.27,51.59-0.27
	S202.98,235.18,202.98,235.33z"/>
<g id="freepik--Table--inject-18" transform="translate(0 399.975)">
	<path id="Path_259" class="st7" d="M740.52,195.64c0,0.15-156.6,0.26-349.7,0.26s-349.74-0.11-349.74-0.26s156.55-0.26,349.74-0.26
		S740.52,195.5,740.52,195.64z"/>
</g>
<g id="freepik--Plants--inject-18" transform="translate(25.499 231.261)">
	<path id="Path_260" class="st8" d="M649.31,313.32c0,0-26.47-30.5-36.45-61s-5.24-27-5.24-27s13.48,29.64,23.71,43.95
		s28.52,35.3,28.52,35.3L649.31,313.32z"/>
	<path id="Path_261" class="st8" d="M654.58,230.01c-0.41-0.75-1.34-1.02-2.09-0.62c-0.58,0.32-0.89,0.97-0.78,1.62
		c1.61,10.72,5.1,35.87,4.99,52.18c-0.18,21.19,0,29.38,0,29.38h10.98c0,0-2-43.8-4.44-57.16
		C661.51,246.07,657.84,235.67,654.58,230.01z"/>
	<path id="Path_262" class="st8" d="M660.59,309.01c4.62-10.48,7.67-21.58,9.07-32.94c0.91-7.8-0.72-18.34-3.12-32.41
		c-0.93-5.15-1.39-10.36-1.39-15.59c0.01-1.45,1.19-2.62,2.64-2.61c0.96,0,1.84,0.53,2.29,1.37c1.33,2.38,5.18,10.5,6.16,15.58
		c2.67,13.89,5.68,20.84,3.38,34s-10.84,33.48-10.84,33.48L660.59,309.01z"/>
	<path id="Path_263" class="st8" d="M670.51,309.92c0,0,29.07-62.55,31.08-71.83s8.86-30.66,9.66-29.45s2,12.51-3.22,25.42
		s-27.6,77.76-27.6,77.76h-9.92"/>
	<path id="Path_264" class="st7" d="M657.41,307.12c-0.29-0.17-0.56-0.35-0.82-0.56c-0.51-0.39-1.3-0.94-2.25-1.72
		c-2.72-2.17-5.33-4.47-7.81-6.91c-8.19-8.07-15.28-17.18-21.09-27.1c-5.8-9.92-10.61-20.37-14.39-31.22
		c-1.46-4.15-2.53-7.55-3.22-9.92c-0.36-1.17-0.61-2.1-0.78-2.72c-0.11-0.33-0.18-0.66-0.22-1c0.14,0.3,0.25,0.61,0.34,0.93
		l0.89,2.69c0.76,2.34,1.89,5.72,3.4,9.84c3.89,10.77,8.75,21.17,14.52,31.06c5.79,9.88,12.81,19,20.88,27.13
		c3.1,3.1,5.77,5.45,7.65,7c0.93,0.81,1.69,1.39,2.18,1.81C656.94,306.64,657.18,306.87,657.41,307.12L657.41,307.12z"/>
	<path id="Path_265" class="st7" d="M660.58,277.11c-0.14-0.6-0.22-1.21-0.26-1.83c-0.14-1.3-0.32-3-0.53-5
		c-0.46-4.24-1.18-10.07-2.21-16.48s-2.18-12.18-3.07-16.34c-0.43-2-0.79-3.66-1.06-4.93c-0.16-0.6-0.27-1.21-0.33-1.83
		c0.24,0.57,0.42,1.16,0.56,1.77c0.33,1.15,0.76,2.82,1.26,4.89c1,4.14,2.22,9.91,3.24,16.34s1.68,12.28,2,16.53
		c0.18,2.13,0.29,3.85,0.34,5C660.62,275.85,660.63,276.48,660.58,277.11L660.58,277.11z"/>
	<path id="Path_266" class="st7" d="M667.39,226.36c0.14,0.26,0.25,0.52,0.34,0.8c0.23,0.59,0.52,1.36,0.88,2.32
		s0.82,2.25,1.25,3.73s1,3.12,1.41,5l0.72,2.94c0.25,1,0.42,2.11,0.64,3.22c0.48,2.22,0.77,4.63,1.12,7.16
		c1.33,11.01,0.93,22.17-1.18,33.06c-0.53,2.5-1,4.88-1.63,7.06c-0.3,1.09-0.55,2.16-0.87,3.16s-0.63,2-0.93,2.89
		c-0.56,1.85-1.23,3.46-1.77,4.89s-1.06,2.65-1.51,3.63l-1,2.25c-0.11,0.27-0.24,0.53-0.4,0.77c0.07-0.28,0.17-0.56,0.29-0.82
		l0.92-2.3c0.42-1,0.92-2.21,1.41-3.65s1.15-3.06,1.68-4.91c0.28-0.92,0.58-1.88,0.89-2.88s0.54-2.07,0.83-3.16
		c0.61-2.18,1-4.55,1.57-7c2.03-10.84,2.42-21.93,1.18-32.89c-0.34-2.52-0.61-4.92-1.06-7.13c-0.22-1.11-0.38-2.19-0.61-3.21
		s-0.46-2-0.68-2.94c-0.39-1.88-0.92-3.54-1.32-5s-0.79-2.72-1.14-3.74s-0.57-1.76-0.76-2.36
		C667.54,226.96,667.45,226.66,667.39,226.36L667.39,226.36z"/>
	<path id="Path_267" class="st7" d="M710.91,209.9c0.02,0.09,0.02,0.19,0,0.28c-0.03,0.27-0.07,0.54-0.13,0.81
		c-0.13,0.71-0.29,1.77-0.57,3.12c-0.81,3.8-1.81,7.56-3,11.26c-1.5,4.7-3.42,10.2-5.78,16.26s-5.07,12.65-7.65,19.67
		s-4.64,13.86-6.54,20.06s-3.65,11.8-5.38,16.4c-1.33,3.65-2.86,7.22-4.58,10.7c-0.6,1.24-1.14,2.16-1.48,2.8l-0.41,0.71
		c-0.04,0.09-0.1,0.17-0.16,0.24c0.02-0.09,0.06-0.18,0.1-0.27l0.36-0.74c0.31-0.66,0.81-1.6,1.37-2.85
		c1.17-2.48,2.75-6.12,4.39-10.74s3.4-10.19,5.25-16.41s3.86-13.08,6.49-20.11s5.33-13.63,7.71-19.67s4.4-11.52,5.89-16.19
		s2.51-8.51,3.14-11.18c0.32-1.33,0.52-2.38,0.69-3.08c0.08-0.32,0.14-0.58,0.19-0.8C710.83,210.07,710.86,209.98,710.91,209.9
		L710.91,209.9z"/>
	<path id="Path_268" class="st8" d="M621.31,196.08c-1-0.95-2.59-0.92-3.54,0.09c-0.63,0.66-0.85,1.61-0.58,2.47
		c0.99,3.22,2.22,6.36,3.65,9.4c3.99,8.51,15.73,39,21.23,55.77s13.23,48,13.23,48l11.73-1.9c0,0-10.73-51.35-21.17-69.9
		C637.39,225.18,628.96,203.7,621.31,196.08z"/>
	<path id="Path_269" class="st7" d="M645.27,274.29c0.26,0.45,0.46,0.92,0.61,1.41c0.35,0.92,0.82,2.26,1.35,3.94
		c1.08,3.35,2.41,8,3.73,13.23s2.44,9.94,3.21,13.37c0.36,1.62,0.65,3,0.89,4.07c0.13,0.49,0.21,1,0.24,1.51
		c-0.21-0.46-0.37-0.95-0.48-1.45c-0.28-1.07-0.64-2.42-1.07-4l-3.39-13.36c-1.33-5.2-2.59-9.89-3.55-13.26l-1.16-4
		C645.48,275.27,645.35,274.78,645.27,274.29z"/>
	<path id="Path_270" class="st7" d="M661.19,310.87c-0.03-0.1-0.05-0.2-0.06-0.31c-0.03-0.31-0.07-0.62-0.14-0.93
		c-0.12-0.81-0.23-2-0.48-3.56c-0.43-3.08-1.2-7.53-2.46-12.95c-1.5-6.35-3.34-12.61-5.49-18.77c-2.41-7-5.42-14.48-8.85-22.27
		c-6.9-15.55-13.79-29.34-18.32-39.53c-2.29-5.09-4.06-9.24-5.23-12.14c-0.6-1.44-1-2.57-1.32-3.34c-0.13-0.36-0.24-0.64-0.33-0.88
		c-0.04-0.1-0.07-0.2-0.09-0.3c0.06,0.09,0.11,0.18,0.15,0.28c0.09,0.19,0.23,0.51,0.39,0.85l1.42,3.3c1.24,2.86,3.08,7,5.41,12
		c4.62,10.15,11.58,23.9,18.49,39.47c3.42,7.8,6.43,15.34,8.82,22.33c2.14,6.19,3.93,12.5,5.38,18.89c0.97,4.29,1.73,8.63,2.27,13
		c0.21,1.55,0.28,2.76,0.37,3.58c0,0.38,0.05,0.68,0.07,0.93C661.21,310.63,661.21,310.75,661.19,310.87z"/>
	<path id="Path_271" class="st7" d="M667.03,309.92c-0.18-0.66-0.32-1.32-0.4-2c-0.23-1.38-0.54-3.2-0.91-5.4
		c-0.81-4.55-2-10.82-3.81-17.64s-3.74-12.91-5.26-17.27l-1.8-5.14c-0.26-0.62-0.47-1.26-0.62-1.92c0.33,0.59,0.61,1.2,0.85,1.83
		c0.5,1.19,1.21,2.93,2,5.1c2.12,5.65,3.94,11.41,5.45,17.26c1.51,5.85,2.73,11.76,3.64,17.73c0.34,2.29,0.59,4.15,0.72,5.44
		C666.99,308.57,667.03,309.24,667.03,309.92z"/>
	<rect id="Rectangle_479" x="645.31" y="308.23" class="st9" width="45.79" height="55.87"/>
	<g id="Group_98" transform="translate(604.235 112.844)" class="st10">
		<rect id="Rectangle_480" x="41.08" y="195.38" class="st11" width="45.79" height="55.87"/>
	</g>
	<rect id="Rectangle_481" x="635.88" y="308.23" class="st9" width="40.62" height="55.87"/>
	<path id="Path_272" class="st8" d="M81.28,288.81c-7.81-5-18.61-5.1-26.2,0.21c-7.21,5.05-10.87,14.23-10.55,23
		s4.58,19.55,12.54,24.18l23.36-0.1c7.61-5.55,12.33-14.21,12.86-23.61C93.64,303.25,89.07,293.81,81.28,288.81z"/>
	<path id="Path_273" class="st7" d="M69.77,337.08c-0.11-0.66-0.16-1.33-0.14-2c0-1.44-0.1-3.28-0.16-5.49
		c-0.12-4.63-0.3-11-0.61-18.09s-0.69-13.46-1-18.09c-0.13-2.2-0.24-4-0.33-5.48c-0.06-0.67-0.06-1.33,0-2
		c0.17,0.66,0.27,1.33,0.32,2c0.16,1.29,0.35,3.16,0.57,5.47c0.42,4.62,0.88,11,1.2,18.09s0.41,13.49,0.39,18.13
		c0,2.32,0,4.19-0.08,5.49C69.93,335.77,69.88,336.42,69.77,337.08z"/>
	<path id="Path_274" class="st7" d="M46.88,310.06c0,0.2-1.29,0.27-2.84,0.14s-2.79-0.4-2.78-0.6s1.29-0.27,2.84-0.15
		S46.9,309.85,46.88,310.06z"/>
	<path id="Path_275" class="st7" d="M47.32,302.16c-0.09,0.19-1.18-0.11-2.45-0.68s-2.23-1.17-2.15-1.36s1.18,0.12,2.45,0.68
		S47.4,302.01,47.32,302.16z"/>
	<path id="Path_276" class="st7" d="M51.37,296.3c-0.11,0.17-1.34-0.41-2.62-1.47s-2.09-2.17-1.94-2.3s1.17,0.69,2.41,1.72
		S51.48,296.12,51.37,296.3z"/>
	<path id="Path_277" class="st7" d="M55.46,290.77c-0.19,0.08-0.78-0.84-1.32-2.06s-0.83-2.28-0.64-2.37s0.78,0.84,1.32,2.07
		S55.64,290.69,55.46,290.77z"/>
	<path id="Path_278" class="st7" d="M61.86,286.85c-0.19,0.08-0.82-0.9-1.25-2.26s-0.46-2.54-0.26-2.57s0.57,1,1,2.34
		S62.05,286.76,61.86,286.85z"/>
	<path id="Path_279" class="st7" d="M72.53,282.42c0.2,0.07,0.08,0.91-0.26,1.88s-0.78,1.69-1,1.62s-0.08-0.9,0.26-1.87
		S72.34,282.35,72.53,282.42z"/>
	<path id="Path_280" class="st7" d="M80.46,285.83c0.14,0.15-0.37,0.85-1.14,1.56s-1.5,1.16-1.64,1s0.37-0.85,1.13-1.56
		S80.32,285.68,80.46,285.83z"/>
	<path id="Path_281" class="st7" d="M87.43,290.34c0.12,0.17-0.5,0.79-1.38,1.39s-1.69,0.94-1.81,0.77s0.51-0.79,1.39-1.39
		S87.32,290.17,87.43,290.34z"/>
	<path id="Path_282" class="st7" d="M92.38,297.06c0.08,0.19-0.89,0.79-2.18,1.34s-2.4,0.84-2.48,0.65s0.9-0.79,2.19-1.33
		S92.3,296.87,92.38,297.06z"/>
	<path id="Path_283" class="st7" d="M94.33,304.4c0,0.2-1,0.5-2.23,0.65s-2.28,0.12-2.31-0.09s1-0.49,2.22-0.65
		S94.31,304.19,94.33,304.4z"/>
	<path id="Path_284" class="st7" d="M95.35,313.43c-0.08,0.19-1.14-0.09-2.36-0.62s-2.16-1.12-2.08-1.31s1.15,0.09,2.37,0.62
		S95.43,313.24,95.35,313.43z"/>
	<path id="Path_285" class="st7" d="M94.46,321.18c-0.07,0.19-1.41-0.13-2.81-1.05s-2.23-2-2.09-2.15s1.17,0.66,2.5,1.52
		S94.53,321.01,94.46,321.18z"/>
	<path id="Path_286" class="st7" d="M90.42,328.23c-0.12,0.16-1.19-0.46-2.21-1.57s-1.57-2.21-1.41-2.33s1,0.77,2,1.82
		S90.56,328.07,90.42,328.23z"/>
	<path id="Path_287" class="st7" d="M52.18,329.06c0.09,0.18-1,1-2.51,1.72s-2.75,1.23-2.88,1.07s1-1,2.5-1.73
		S52.08,328.88,52.18,329.06z"/>
	<path id="Path_288" class="st7" d="M48.69,322.68c0.08,0.19-0.82,0.78-2,1.32s-2.23,0.83-2.32,0.64s0.82-0.78,2-1.32
		S48.6,322.49,48.69,322.68z"/>
	<path id="Path_289" class="st7" d="M46.12,317.01c0,0.2-1.08,0.53-2.48,0.73s-2.54,0.19-2.57,0s1.08-0.53,2.47-0.72
		S46.09,316.82,46.12,317.01z"/>
	<path id="Path_290" class="st7" d="M54.54,313.91c0.06,0.2-1,0.7-2.45,0.86s-2.61-0.09-2.59-0.29s1.14-0.29,2.5-0.45
		S54.48,313.71,54.54,313.91z"/>
	<path id="Path_291" class="st7" d="M61.54,306.94c0.06,0.19-0.8,0.63-2,0.74s-2.08-0.14-2.06-0.34s0.92-0.29,2-0.4
		S61.48,306.74,61.54,306.94z"/>
	<path id="Path_292" class="st7" d="M62.88,301.35c-0.07,0.2-1,0.05-2.08-0.32s-1.9-0.83-1.83-1s1-0.05,2.08,0.33
		S62.95,301.16,62.88,301.35z"/>
	<path id="Path_293" class="st7" d="M65.44,295.7c-0.14,0.15-0.78-0.27-1.24-1.07s-0.5-1.55-0.3-1.6s0.54,0.53,1,1.23
		S65.59,295.56,65.44,295.7z"/>
	<path id="Path_294" class="st7" d="M62.35,318.83c0.05,0.2-0.75,0.57-1.8,0.83c-0.49,0.13-1,0.2-1.51,0.22l-0.14-0.44
		c0.27,0,0.44,0,0.48,0.05s-0.08,0.21-0.3,0.38l-0.15-0.44c0.46-0.22,0.95-0.39,1.45-0.5C61.42,318.68,62.3,318.63,62.35,318.83z"/>
	<path id="Path_295" class="st7" d="M63.77,328.74c0.07,0.19-1,0.77-2.3,1.3s-2.49,0.8-2.56,0.61s1-0.78,2.29-1.3
		S63.71,328.55,63.77,328.74z"/>
	<path id="Path_296" class="st7" d="M55.89,324.34c0.07,0.19-0.62,0.6-1.53,0.91s-1.7,0.41-1.77,0.21s0.62-0.6,1.53-0.91
		S55.79,324.14,55.89,324.34z"/>
	<path id="Path_297" class="st7" d="M56.49,304.18c0,0.2-1.24,0.08-2.61-0.41s-2.38-1.15-2.29-1.33s1.2,0.15,2.54,0.62
		S56.54,304.01,56.49,304.18z"/>
	<path id="Path_298" class="st7" d="M75.62,302.01c0.12,0.17-0.55,0.81-1.49,1.43s-1.8,1-1.92,0.81s0.56-0.81,1.5-1.43
		S75.51,301.81,75.62,302.01z"/>
	<path id="Path_299" class="st7" d="M76.66,311.93c0,0.2-0.67,0.52-1.58,0.71s-1.68,0.18-1.73,0s0.67-0.52,1.58-0.71
		S76.61,311.73,76.66,311.93z"/>
	<path id="Path_300" class="st7" d="M77.87,323.12c-0.09,0.18-1.11-0.1-2.27-0.64c-0.77-0.27-1.45-0.72-2-1.32
		c0-0.19,1.11,0.1,2.27,0.64S77.95,322.93,77.87,323.12z"/>
	<path id="Path_301" class="st7" d="M75.31,334.01c-0.16,0.14-0.82-0.4-1.47-1.2s-1-1.55-0.89-1.68s0.81,0.41,1.47,1.21
		S75.47,333.87,75.31,334.01z"/>
	<path id="Path_302" class="st7" d="M74.76,294.66c0.13,0.16-0.31,0.71-1.06,1.08s-1.44,0.4-1.49,0.2s0.49-0.52,1.16-0.86
		S74.66,294.5,74.76,294.66z"/>
	<path id="Path_303" class="st7" d="M84.16,304.69c0.07,0.19-0.8,0.67-2,0.84s-2.15-0.06-2.14-0.26s0.93-0.33,2-0.48
		S84.09,304.5,84.16,304.69z"/>
	<path id="Path_304" class="st7" d="M82.3,295.69c0.09,0.18-0.77,0.8-2,1.19s-2.28,0.39-2.31,0.19s0.92-0.53,2.08-0.91
		S82.2,295.5,82.3,295.69z"/>
	<path id="Path_305" class="st7" d="M86.21,318.64c0,0.2-1.48,0.33-3.25,0s-3.11-1-3-1.15c1.07,0,2.14,0.13,3.18,0.41
		C84.84,318.2,86.21,318.43,86.21,318.64z"/>
	<path id="Path_306" class="st7" d="M82.74,331.72c-0.12,0.16-1.21-0.48-2.29-1.57s-1.71-2.14-1.58-2.3s1,0.72,2.09,1.78
		S82.85,331.56,82.74,331.72z"/>
	<path id="Path_307" class="st7" d="M67.41,285.01c-2.38,1.45-4.58,3.19-6.54,5.18c-4.55,4.99-7.4,11.29-8.15,18
		c-0.34,3.69-0.17,7.41,0.49,11.05c0.53,2.99,1.22,5.95,2.07,8.87c0.72,2.49,1.38,4.49,1.82,5.88c0.27,0.71,0.48,1.44,0.63,2.18
		c-0.37-0.66-0.67-1.36-0.9-2.08c-0.53-1.36-1.27-3.34-2.05-5.83c-0.93-2.92-1.68-5.89-2.24-8.9c-0.72-3.7-0.91-7.49-0.56-11.25
		c0.75-6.88,3.74-13.31,8.51-18.32c1.45-1.47,3.08-2.74,4.87-3.78c0.48-0.29,0.98-0.55,1.5-0.78
		C67.03,285.13,67.22,285.05,67.41,285.01z"/>
	<path id="Path_308" class="st7" d="M77.58,336.71c-0.17-0.09,1.67-2.92,3.35-8c2.25-6.63,2.93-13.69,2-20.63
		c-0.5-3.83-1.58-7.56-3.18-11.07c-1.34-2.82-3.17-5.38-5.41-7.56c-1.58-1.39-3.38-2.53-5.31-3.36c-1.38-0.57-2.21-0.71-2.2-0.77
		c0.2-0.03,0.41-0.03,0.61,0c0.57,0.1,1.14,0.25,1.69,0.45c2.03,0.74,3.91,1.84,5.56,3.24c2.36,2.17,4.29,4.76,5.69,7.65
		c1.67,3.54,2.78,7.32,3.29,11.2c0.95,7.05,0.18,14.22-2.25,20.91c-0.42,1.29-1,2.39-1.37,3.39c-0.35,0.85-0.76,1.67-1.24,2.46
		C78.45,335.34,78.04,336.04,77.58,336.71z"/>
	<path id="Path_309" class="st9" d="M48.69,334.94H89.8l0.25,8.24H48.69V334.94z"/>
	<path id="Path_310" class="st9" d="M52.18,339.06l2.36,25.16H84.6l2.42-24.88L52.18,339.06z"/>
	<path id="Path_311" class="st7" d="M90.05,343.28c0,0.21-9.26,0.37-20.68,0.37s-20.68-0.16-20.68-0.37s9.26-0.37,20.68-0.37
		S90.05,343.07,90.05,343.28z"/>
	<path id="Path_312" class="st7" d="M85.88,350.94c-0.21,0.57-0.51,1.1-0.88,1.58c-0.93,1.37-2,2.63-3.19,3.77l-0.19,0.18l-0.18-0.2
		c-2.47-2.59-5.17-4.96-8.07-7.06h0.46l-3.57,3.14l-4.22,3.66l-0.23,0.21l-0.24-0.2l-6.86-5.78l0.4-0.05
		c-1.42,1.74-2.62,3.19-3.55,4.35c-0.41,0.56-0.88,1.07-1.4,1.52c0.33-0.61,0.71-1.18,1.15-1.72l3.35-4.49l0.18-0.23l0.23,0.18
		l6.99,5.66h-0.46l4.2-3.7l3.58-3.13l0.22-0.19l0.24,0.17c2.9,2.15,5.58,4.59,7.99,7.29h-0.38
		C83.05,354.37,84.54,352.71,85.88,350.94L85.88,350.94z"/>
</g>
<g id="freepik--Device--inject-18" transform="translate(99.315 85.655)">
	<path id="Rectangle_482" class="st8" d="M70.89,195.38h435.19c8.05,0,14.57,6.52,14.57,14.57v278.4c0,8.05-6.52,14.57-14.57,14.57
		H70.89c-8.05,0-14.57-6.52-14.57-14.57v-278.4C56.32,201.9,62.84,195.38,70.89,195.38z"/>
	<path id="Path_313" class="st8" d="M41.12,483.05h503.06v9.11c0.01,9.82-7.95,17.79-17.77,17.8H58.85
		c-9.82-0.01-17.78-7.98-17.77-17.8l0,0v-9.11H41.12z"/>
	<path id="Path_314" class="st7" d="M242.71,480.17l6.24,9.95h87.84l5.79-9.95H242.71z"/>
	<path id="Path_315" class="st7" d="M516.66,480.17c0,0.17-103.06,0.3-230.15,0.3s-230.19-0.13-230.19-0.3s103.04-0.3,230.19-0.3
		S516.66,480,516.66,480.17z"/>
	<path id="Rectangle_483" class="st5" d="M72.88,213.06h429.38c1.81,0,3.27,1.46,3.27,3.27v252.44c0,1.81-1.46,3.27-3.27,3.27H72.88
		c-1.81,0-3.27-1.46-3.27-3.27V216.33C69.61,214.53,71.08,213.06,72.88,213.06z"/>
	<path id="Path_316" class="st12" d="M505.06,472.42H69.15l0.47-240h435.45V472.42z"/>
	<path id="Path_317" class="st7" d="M105.37,223.07c0.01,1.92-1.54,3.49-3.46,3.51c-1.92,0.01-3.49-1.54-3.51-3.46
		s1.54-3.49,3.46-3.51c0.01,0,0.02,0,0.02,0C103.8,219.61,105.35,221.16,105.37,223.07z"/>
	<path id="Path_318" class="st7" d="M84.27,223.07c0.01,1.92-1.54,3.49-3.46,3.51c-1.92,0.01-3.49-1.54-3.51-3.46
		s1.54-3.49,3.46-3.51c0.02,0,0.04,0,0.05,0C82.72,219.63,84.26,221.17,84.27,223.07z"/>
	<path id="Path_319" class="st7" d="M94.4,223.07c-0.01,1.92-1.57,3.47-3.49,3.46c-1.92-0.01-3.47-1.57-3.46-3.49
		c0.01-1.92,1.57-3.47,3.49-3.46c0.92,0,1.8,0.37,2.45,1.02C94.03,221.26,94.4,222.15,94.4,223.07z"/>
	<rect id="Rectangle_484" x="69.15" y="449.24" class="st7" width="436.39" height="23.18"/>
	<path id="Path_320" class="st12" d="M85.64,463.51v0.74h-3.47v-0.58l1.87-1.78c0.32-0.23,0.52-0.6,0.54-1
		c0-0.43-0.3-0.68-0.88-0.68c-0.42-0.02-0.83,0.16-1.1,0.49l-0.62-0.47c0.44-0.53,1.11-0.82,1.8-0.78c1,0,1.69,0.51,1.69,1.35
		c-0.01,0.59-0.31,1.15-0.79,1.49l-1.26,1.2L85.64,463.51z"/>
	<path id="Path_321" class="st12" d="M86.11,461.17c0-0.31,0.25-0.56,0.56-0.56c0.31,0,0.56,0.25,0.56,0.56
		c0,0.31-0.25,0.56-0.56,0.56c0,0-0.01,0-0.01,0c-0.3,0.01-0.54-0.23-0.55-0.53C86.11,461.19,86.11,461.18,86.11,461.17z
		 M86.11,463.74c0.04-0.31,0.32-0.52,0.63-0.48c0.31,0.04,0.52,0.32,0.48,0.63c-0.04,0.31-0.32,0.52-0.63,0.48
		c-0.08-0.01-0.16-0.04-0.22-0.08C86.18,464.17,86.08,463.96,86.11,463.74z"/>
	<path id="Path_322" class="st12" d="M89.41,459.53v4.72h-0.87v-4h-1v-0.74L89.41,459.53z"/>
	<path id="Path_323" class="st12" d="M94.55,463.18H93.7v1.07h-0.85v-1.07h-2.58v-0.57l2.33-3h0.94l-2.2,2.91h1.55v-0.95h0.82v0.95
		h0.84L94.55,463.18z"/>
	<rect id="Rectangle_485" x="102.24" y="461.29" class="st12" width="357.68" height="1.63"/>
	<rect id="Rectangle_486" x="101.97" y="459.54" class="st9" width="111.78" height="4.36"/>
	<path id="Path_324" class="st9" d="M217.36,462.11c0,3.01-2.44,5.44-5.45,5.43s-5.44-2.44-5.43-5.45c0-3,2.44-5.43,5.44-5.43
		C214.93,456.66,217.37,459.1,217.36,462.11z"/>
	<path id="Path_325" class="st12" d="M468.93,462.06c-0.01,0.87-0.71,1.56-1.58,1.56c-0.05,0-0.09,0-0.13-0.01
		c-1.29,0-2-0.83-2-2.35c-0.15-1.23,0.72-2.34,1.95-2.5c0.12-0.01,0.24-0.02,0.37-0.01c0.43-0.01,0.86,0.1,1.24,0.31l-0.33,0.66
		c-0.27-0.16-0.58-0.24-0.89-0.23c-0.89,0-1.45,0.55-1.45,1.62l0,0c0.33-0.34,0.79-0.52,1.26-0.49c0.81-0.05,1.51,0.56,1.56,1.37
		C468.93,462.01,468.93,462.04,468.93,462.06L468.93,462.06z M468.08,462.06c0-0.49-0.37-0.8-0.94-0.8
		c-0.47-0.08-0.91,0.24-0.99,0.71c-0.01,0.03-0.01,0.07-0.01,0.1c0,0.44,0.35,0.79,1,0.79c0.44,0.07,0.86-0.23,0.93-0.67
		c0.01-0.03,0.01-0.06,0.01-0.09V462.06z"/>
	<path id="Path_326" class="st12" d="M469.36,460.44c0.04-0.31,0.32-0.52,0.63-0.48c0.31,0.04,0.52,0.32,0.48,0.63
		s-0.32,0.52-0.63,0.48c-0.08-0.01-0.16-0.04-0.22-0.08C469.43,460.87,469.33,460.66,469.36,460.44z M469.36,463.01
		c0.04-0.31,0.32-0.52,0.63-0.48c0.31,0.04,0.52,0.32,0.48,0.63s-0.32,0.52-0.63,0.48c-0.08-0.01-0.16-0.04-0.22-0.08
		C469.43,463.44,469.33,463.23,469.36,463.01z"/>
	<path id="Path_327" class="st12" d="M471.03,461.16c0-1.55,0.85-2.43,2-2.43s2,0.88,2,2.43s-0.85,2.43-2,2.43
		S471.03,462.71,471.03,461.16z M474.08,461.16c0-1.14-0.44-1.66-1.09-1.66s-1.09,0.52-1.09,1.66s0.45,1.67,1.09,1.67
		S474.08,462.3,474.08,461.16z"/>
	<path id="Path_328" class="st12" d="M475.55,461.16c0-1.55,0.85-2.43,2-2.43s2,0.88,2,2.43s-0.85,2.43-2,2.43
		S475.55,462.71,475.55,461.16z M478.61,461.16c0-1.14-0.45-1.66-1.1-1.66s-1.08,0.52-1.08,1.66s0.44,1.67,1.08,1.67
		S478.61,462.3,478.61,461.16z"/>
	<path id="Path_329" class="st12" d="M487.11,460.87h-1.64v-4.71h4.7v1.63h-3.07L487.11,460.87z"/>
	<path id="Path_330" class="st12" d="M490.18,467.01h-4.7v-4.7h1.63v3.07h3.08L490.18,467.01z"/>
	<path id="Path_331" class="st12" d="M497.67,467.01h-4.69v-1.63h3.05v-3.08h1.64L497.67,467.01z"/>
	<path id="Path_332" class="st12" d="M497.67,460.86h-1.63v-3.07h-3.08v-1.63h4.7L497.67,460.86z"/>
	<path id="Path_333" class="st5" d="M128.93,246.69h-25.7l-12.84,22.29l12.84,22.28h25.7l12.84-22.28L128.93,246.69z"/>
	<path id="Path_334" class="st7" d="M105.33,273.34c-1.19-1.23-2.25-2.59-3.13-4.06c-0.9-1.48-1.27-3.22-1.07-4.94
		c0.27-0.96,0.49-1.94,0.65-2.93c0.1-1.38-0.48-2.82,0-4.11c0.76-2,3.46-2.33,5.11-3.72c1.28-1.09,1.91-2.85,3.32-3.76
		c1.31-0.69,2.82-0.9,4.26-0.58c1.43,0.33,2.9,0.46,4.36,0.38c1.01-0.22,2.01-0.49,3-0.81c0.99-0.31,2.06-0.24,3,0.21
		c0.95,0.52,1.32,1.71,0.82,2.67c1.69-0.78,3.82,0.54,4.28,2.33c0.36,1.87-0.37,3.78-1.89,4.93c-1.49,1.11-3.25,1.83-5.09,2.08
		c-5.16,1-10.75,0.43-15.2-2.37"/>
	<path id="Path_335" class="st13" d="M129.15,278.84c-0.17-3.19-1.06-9.73-1.94-15.64c-0.94-6.34-6.58-10.91-12.98-10.5h-0.64
		c-6.83,0.86-9.91,7.15-8.87,14l2,24.55h16.67c0,0-0.4-4.31-0.4-4.35S129.51,285.44,129.15,278.84z"/>
	<path id="Path_336" class="st14" d="M122.99,286.82c-3.04,0.26-6.09-0.39-8.76-1.87c0,0,2.36,4.61,8.89,3.58L122.99,286.82z"/>
	<path id="Path_337" class="st7" d="M125.09,268.86c0.04,0.51-0.33,0.95-0.84,1c-0.49,0.06-0.93-0.28-1-0.76c0-0.01,0-0.01,0-0.02
		c-0.04-0.5,0.34-0.95,0.84-1c0.49-0.06,0.93,0.28,1,0.76C125.09,268.85,125.09,268.86,125.09,268.86z"/>
	<path id="Path_338" class="st7" d="M126.02,266.52c-0.11,0.13-0.86-0.35-1.88-0.28s-1.72,0.63-1.84,0.51
		c-0.12-0.12,0-0.28,0.36-0.54c0.42-0.33,0.93-0.53,1.46-0.56c0.53-0.04,1.05,0.09,1.5,0.38
		C125.95,266.25,126.07,266.46,126.02,266.52z"/>
	<path id="Path_339" class="st7" d="M115.52,269.55c0.01,0.5-0.35,0.92-0.84,1c-0.49,0.05-0.94-0.3-1-0.79
		c-0.01-0.5,0.35-0.92,0.84-1C115.02,268.71,115.46,269.06,115.52,269.55z"/>
	<path id="Path_340" class="st7" d="M116.07,267.38c-0.11,0.13-0.86-0.35-1.88-0.28s-1.72,0.62-1.84,0.51
		c-0.12-0.11,0-0.28,0.36-0.54c0.86-0.7,2.06-0.77,3-0.19C116,267.1,116.12,267.32,116.07,267.38z"/>
	<path id="Path_341" class="st7" d="M120.25,274.61c0.52-0.21,1.07-0.34,1.63-0.41c0.26,0,0.5-0.11,0.53-0.29
		c0-0.27-0.07-0.53-0.22-0.75l-0.9-1.92c-0.82-1.61-1.51-3.28-2.07-5c0.95,1.55,1.78,3.18,2.47,4.87c0.3,0.67,0.59,1.32,0.87,1.93
		c0.17,0.3,0.24,0.65,0.2,1c-0.07,0.19-0.21,0.34-0.4,0.41c-0.14,0.05-0.29,0.08-0.44,0.09
		C121.36,274.64,120.8,274.66,120.25,274.61z"/>
	<path id="Path_342" class="st7" d="M116.06,263.38c-0.08,0.28-1.1,0.22-2.28,0.45c-1.18,0.23-2.12,0.61-2.3,0.37
		c-0.18-0.24,0.08-0.38,0.45-0.68c0.49-0.37,1.06-0.61,1.67-0.71c0.6-0.12,1.22-0.09,1.81,0.09
		C115.86,263.05,116.1,263.25,116.06,263.38z"/>
	<path id="Path_343" class="st7" d="M125.45,263.61c-0.17,0.24-0.88,0.05-1.72,0.09c-0.84,0.04-1.54,0.26-1.72,0
		c-0.18-0.26,0-0.35,0.31-0.59c0.4-0.3,0.87-0.46,1.37-0.47c0.49-0.02,0.98,0.11,1.4,0.37C125.4,263.26,125.52,263.49,125.45,263.61
		z"/>
	<path id="Path_344" class="st13" d="M105.58,271.61c-0.12,0-4.62-1-4.17,3.47s5.32,3,5.31,2.9S105.58,271.61,105.58,271.61z"/>
	<path id="Path_345" class="st14" d="M104.72,276.46c-0.06,0.05-0.12,0.09-0.19,0.13c-0.18,0.1-0.39,0.12-0.59,0.07
		c-0.63-0.32-1.04-0.95-1.07-1.65c-0.05-0.38-0.01-0.77,0.11-1.14c0.05-0.3,0.25-0.55,0.53-0.67c0.18-0.06,0.38,0.01,0.48,0.17
		c0.08,0.12,0.06,0.22,0.08,0.22s0.09-0.08,0-0.27c-0.04-0.11-0.11-0.2-0.2-0.26c-0.13-0.08-0.3-0.11-0.45-0.07
		c-0.37,0.12-0.65,0.41-0.75,0.78c-0.15,0.41-0.2,0.85-0.14,1.28c0.02,0.83,0.55,1.55,1.33,1.83c0.25,0.05,0.51-0.02,0.71-0.19
		C104.78,276.61,104.78,276.46,104.72,276.46z"/>
	<path id="Path_346" class="st7" d="M126.88,257.03c-0.31,1.79-3.94,3.44-6.99,3.35c-2.78-0.08-4.15-1.46-6.16-2.44
		c-1.28-0.62-1.28-0.62-3-0.34c-1.4,0.23-2.13,1.88-2.9,3.07c1.5,3.27,0.89,7.07,0.25,10.61c-0.02,0.4-0.18,0.77-0.45,1.07
		c-0.59,0.37-1.36,0.25-1.83-0.27c-0.74-0.8-1.23-1.79-1.42-2.86c-0.63-2.39-0.78-4.88-0.44-7.33c0.33-2.45,1.38-4.75,3-6.61
		c2.14-2.26,5.07-3.6,8.18-3.73c3.09-0.11,6.14,0.75,8.72,2.47c1.23,0.74,2.26,1.77,3,3"/>
	<path id="Path_347" class="st14" d="M120.91,276.93l-2.3-1.07c-0.13-0.07-0.27-0.11-0.42-0.1c-0.16,0.04-0.3,0.13-0.39,0.27
		c-0.55,0.66-0.65,1.58-0.26,2.34c0.43,0.75,1.34,1.09,2.16,0.79c0.79-0.43,1.27-1.26,1.27-2.16L120.91,276.93z"/>
	<path id="Path_348" class="st7" d="M119.76,279.33c-0.41,0.24-0.9,0.29-1.35,0.12c-0.51-0.17-0.93-0.53-1.19-1
		c-0.33-0.57-0.39-1.26-0.15-1.88c0.18-0.48,0.51-0.87,0.95-1.13c0.19-0.1,0.41-0.1,0.6,0c0.53,0.29,0.88,0.54,1.23,0.76
		c0.67,0.45,1.07,0.76,1,0.82c-0.07,0.06-0.5-0.13-1.22-0.5l-1.23-0.64h-0.18c-0.1,0.07-0.19,0.14-0.28,0.23
		c-0.19,0.19-0.33,0.41-0.42,0.66c-0.18,0.48-0.15,1.01,0.08,1.46c0.19,0.38,0.51,0.68,0.9,0.85
		C118.91,279.21,119.33,279.3,119.76,279.33z"/>
	<path id="Path_349" class="st7" d="M119.05,268.97c-0.02-0.38-0.11-0.76-0.24-1.12c-0.29-0.99-0.9-1.86-1.73-2.47
		c-1.99-1.47-4.79-1.06-6.26,0.93c-1.47,1.99-1.06,4.79,0.93,6.26c1.58,1.18,3.75,1.18,5.34,0c0.83-0.61,1.44-1.48,1.73-2.47
		C119.01,269.39,119,268.97,119.05,268.97s0,0.11,0,0.31c0.01,0.29-0.02,0.58-0.09,0.87c-0.22,1.07-0.82,2.03-1.69,2.71
		c-2.15,1.67-5.24,1.28-6.9-0.87s-1.28-5.24,0.87-6.9c1.77-1.38,4.26-1.38,6.03,0c0.87,0.68,1.46,1.64,1.69,2.71
		c0.07,0.29,0.1,0.58,0.09,0.87C119.07,268.87,119.07,268.97,119.05,268.97z"/>
	<path id="Path_350" class="st7" d="M130.26,268.53c-0.06-0.37-0.14-0.73-0.24-1.09c-0.28-0.96-0.87-1.81-1.68-2.4
		c-1.93-1.43-4.66-1.03-6.09,0.91c-1.43,1.93-1.03,4.66,0.91,6.09c1.54,1.14,3.65,1.14,5.19,0c0.81-0.59,1.4-1.44,1.68-2.4
		c0.2-0.69,0.19-1.1,0.24-1.1s0,0.1,0,0.3c0.01,0.29-0.02,0.57-0.08,0.85c-0.22,1.05-0.81,1.98-1.65,2.64
		c-1.28,1-2.99,1.28-4.52,0.74c-2.5-0.9-3.8-3.65-2.9-6.16c0.49-1.35,1.55-2.42,2.9-2.9c1.53-0.54,3.24-0.26,4.52,0.74
		c0.84,0.66,1.43,1.6,1.65,2.65c0.06,0.28,0.09,0.56,0.08,0.85C130.29,268.43,130.28,268.53,130.26,268.53z"/>
	<path id="Path_351" class="st7" d="M121.11,267.5c-0.1,0.09-0.55-0.2-1.15-0.18c-0.6,0.02-1,0.31-1.14,0.22s0.28-0.72,1.13-0.74
		C120.8,266.78,121.24,267.42,121.11,267.5z"/>
	<path id="Path_352" class="st7" d="M109.94,268.31c0.09,0.11-0.79,0.91-1.95,1.78c-0.65,0.6-1.42,1.06-2.26,1.36
		c-0.09-0.11,0.79-0.91,1.95-1.78C108.34,269.07,109.11,268.61,109.94,268.31z"/>
	<path id="Path_353" class="st7" d="M202.63,268.75c0,0.14-11.55,0.26-25.8,0.26s-25.8-0.12-25.8-0.26c0-0.14,11.55-0.26,25.8-0.26
		C191.07,268.49,202.63,268.61,202.63,268.75z"/>
	<path id="Path_354" class="st7" d="M178.75,274.16c0,0.14-6.13,0.26-13.7,0.26s-13.7-0.12-13.7-0.26c0-0.14,6.13-0.27,13.7-0.27
		S178.75,274.01,178.75,274.16z"/>
</g>
<g id="freepik--Character--inject-18" transform="translate(218.517 70.845)">
	<path id="Path_355" class="st9" d="M237.97,323.78c9.13,5.21,15.81,13.85,18.53,24c4.82,17.28,19.57,62.28,19.57,62.28
		s8.43,9.93,9.33,17.28s-0.9,25.14-3.61,28.46c-1.6,1.96-4.06,2.99-6.57,2.77l-35.47-3.37l-13.98-93.68L237.97,323.78z"/>
	
		<linearGradient id="Path_356_00000028320307809342649710000015979503298296572545_" gradientUnits="userSpaceOnUse" x1="-130.319" y1="720.8988" x2="-130.319" y2="719.8988" gradientTransform="matrix(148.987 0 0 -154.74 19579.3203 111861.5)">
		<stop  offset="0" style="stop-color:#F28E62"/>
		<stop  offset="1" style="stop-color:#EC6688"/>
	</linearGradient>
	<path id="Path_356" style="fill:url(#Path_356_00000028320307809342649710000015979503298296572545_);" d="M120.68,322.15
		c0,0-25.37,8-31.69,14.9l20.77,96.76l-0.37,30.54h120.29c0-1.51,1.08-101.38,1.08-101.38l7.22-39.19l-42.72-7.53l-8.43-6.64
		l-47.56,2.42l-7.23,7.23L120.68,322.15z"/>
	<g id="Group_99" transform="translate(68.474 208.796)" class="st10">
		<path id="Path_357" class="st11" d="M61.88,197.31c-0.37-0.82-0.91-1.71-1.79-1.89c-1.45-0.3-2.42,1.41-2.9,2.81
			c-3.84,10.97-9.15,21.36-15.8,30.89l-0.31,14.86c6.99-5.91,13.92-12.24,18.39-20.25S65.61,205.67,61.88,197.31z"/>
	</g>
	<path id="Path_358" class="st9" d="M88.99,337.05c0,0-8.36,11.41-11.82,18.86s-32.23,70-33.95,76.47s-6.19,26.81,6.94,31.53h27.03
		l27.12-54.93l1.39-63.75L88.99,337.05z"/>
	<path id="Path_359" class="st7" d="M78.89,424.23c-0.58-0.47-1.19-0.88-1.85-1.24c-1.78-0.96-3.69-1.65-5.67-2.06
		c-1.36-0.3-2.74-0.49-4.13-0.58c-1.6-0.12-3.21-0.01-4.78,0.34c-3.55,0.91-6.74,2.91-9.1,5.72c-2.4,2.78-4.16,6.05-5.15,9.59
		c-0.82,2.89-1.36,5.86-1.62,8.85c-0.26,2.56-0.35,4.65-0.44,6.08c0,0.68-0.08,1.23-0.1,1.66c0,0.2-0.03,0.39-0.08,0.58
		c-0.01-0.19-0.01-0.39,0-0.58c0-0.44,0-1,0-1.66c0-1.45,0.06-3.53,0.27-6.11c0.21-3.04,0.72-6.06,1.53-9
		c0.98-3.62,2.77-6.97,5.22-9.8c2.44-2.88,5.72-4.93,9.38-5.84c1.6-0.33,3.24-0.42,4.87-0.27c1.41,0.1,2.81,0.32,4.18,0.65
		c2,0.45,3.92,1.2,5.69,2.24c0.48,0.29,0.93,0.63,1.35,1C78.62,423.93,78.77,424.07,78.89,424.23z"/>
	<path id="Path_360" class="st7" d="M66.08,413.29c0.3-0.09,0.6-0.13,0.91-0.14c0.83-0.07,1.67-0.07,2.51,0
		c1.24,0.07,2.47,0.26,3.68,0.55c2.98,0.72,5.77,2.06,8.2,3.92c0.99,0.75,1.91,1.6,2.75,2.52c0.57,0.63,1.09,1.29,1.55,2
		c0.19,0.24,0.34,0.51,0.46,0.8c-0.08,0.06-0.82-1-2.28-2.52c-0.86-0.86-1.79-1.66-2.77-2.39c-1.21-0.88-2.49-1.65-3.83-2.3
		c-1.35-0.63-2.75-1.15-4.19-1.54c-1.18-0.3-2.38-0.52-3.59-0.64C67.39,413.28,66.08,413.39,66.08,413.29z"/>
	<path id="Path_361" class="st7" d="M90.5,410.28c-0.42,0.02-0.84-0.01-1.25-0.09c-0.8-0.1-1.95-0.22-3.39-0.33
		c-7.47-0.56-14.97,0.34-22.1,2.65c-1.37,0.44-2.47,0.83-3.21,1.12c-0.38,0.17-0.78,0.3-1.19,0.39c0.34-0.24,0.72-0.43,1.11-0.58
		c0.73-0.35,1.82-0.79,3.17-1.28c7.13-2.53,14.73-3.44,22.26-2.66c1.13,0.11,2.26,0.27,3.38,0.49
		C89.7,410.05,90.1,410.15,90.5,410.28L90.5,410.28z"/>
	<path id="Path_362" class="st7" d="M167.47,356.83c-0.11-0.1-0.2-0.21-0.28-0.33l-0.74-1l-2.72-3.76c-2.33-3.3-5.58-7.9-9.4-13.3
		l0.42-0.06c-1.46,4.28-3.07,9-4.75,14l-0.11,0.31l-0.28-0.18l-0.56-0.36c-2.18-1.4-4.15-3.08-5.88-5c-1.6-1.79-3-3.74-4.2-5.82
		c-1.99-3.52-3.55-7.27-4.62-11.17c-0.72-2.63-1.3-5.3-1.75-8c-0.16-0.9-0.28-1.63-0.38-2.18c-0.03-0.19-0.07-0.37-0.13-0.55
		c-0.01-0.07-0.03-0.13-0.06-0.19c0.35,0.94,0.61,1.9,0.77,2.89c0.5,2.66,1.14,5.3,1.91,7.9c1.11,3.86,2.68,7.58,4.68,11.06
		c1.2,2.04,2.59,3.96,4.16,5.72c1.7,1.88,3.64,3.52,5.77,4.88l0.55,0.36l-0.38,0.14c1.71-5,3.33-9.69,4.8-14l0.15-0.44l0.27,0.38
		c3.75,5.45,6.99,10.09,9.26,13.41c1.09,1.62,2,2.91,2.61,3.85l0.67,1C167.34,356.53,167.42,356.68,167.47,356.83L167.47,356.83z"/>
	<g id="Group_100" transform="translate(157.446 207.64)" class="st10">
		<path id="Path_363" class="st11" d="M41.33,195.38c-1.08,11.28,1.36,22.62,6.99,32.46c5.59,9.74,13.8,18.43,24.01,23.09
			c0.33-9.93-0.15-21.63,0.18-31.56L41.33,195.38z"/>
	</g>
	<path id="Path_364" class="st13" d="M197.65,389.95c0,0-4.37,1.21-1.1,10.18s4.37,8.42,6.56,16.8s4.73,16,8.55,20.78
		s18.02,14.4,18.02,14.4l12.74-12c0,0-2.1-9-1.6-15.06s1.78-21,1.6-23.59s-2.92-8.75-2.92-8.75v-4.24l-6.55-20.18
		c0,0-3.64-1.64-4.91,4.19l-2.19-6.19c0,0-3.45-0.55-4.36,6.56s0.73,16.95,0.73,16.95l-1.83,12.39l-2.73,8.39l-2.37,0.36
		c0,0-3.56-1-5.51-7.69S202.56,388.49,197.65,389.95z"/>
	<path id="Path_365" class="st14" d="M238.18,421.69c-0.01-0.15-0.03-0.3-0.06-0.45c-0.05-0.44-0.08-0.89-0.09-1.34
		c-0.07-1.22-0.16-2.91-0.27-5c-0.2-4.35-0.47-10.41-0.79-17.48l0.05,0.15c-0.66-0.69-1.66-0.95-2.58-0.68
		c-0.99,0.24-1.84,0.87-2.36,1.74c-1.12,1.79-1.18,4.13-1.53,6.38c-0.69,5.11-1.35,10-1.95,14.41c-0.3,2.22-0.62,4.32-1.05,6.27
		c-0.4,1.81-0.94,3.59-1.59,5.32c-0.53,1.42-0.99,2.86-1.37,4.33c-0.28,1.1-0.41,2.22-0.41,3.35c0.04,0.97,0.2,1.93,0.5,2.86
		c-0.12-0.22-0.22-0.46-0.3-0.7c-0.24-0.69-0.37-1.42-0.4-2.15c-0.05-1.16,0.06-2.32,0.33-3.45c0.35-1.48,0.79-2.95,1.31-4.38
		c0.62-1.73,1.12-3.49,1.5-5.29c0.41-1.93,0.72-4,1-6.24c0.58-4.44,1.23-9.3,1.91-14.42c0.16-1.13,0.28-2.26,0.48-3.38
		c0.16-1.13,0.54-2.22,1.12-3.21c0.6-0.98,1.57-1.68,2.69-1.94c1.1-0.33,2.29,0,3.07,0.84l0.05,0.07v0.08
		c0.25,7.07,0.46,13.13,0.61,17.49c0,2.11,0.09,3.8,0.13,5v1.34C238.2,421.37,238.2,421.53,238.18,421.69z"/>
	<path id="Path_366" class="st14" d="M231.2,398.69c-0.23-0.36-0.41-0.74-0.54-1.14c-0.42-1.07-0.77-2.15-1.07-3.26
		c-0.43-1.64-0.73-3.31-0.91-5c-0.12-1-0.14-2-0.06-3c0.09-1.12,0.47-2.19,1.1-3.12c0.56-0.83,1.38-1.45,2.34-1.76l0.19-0.05
		l0.1,0.17c1.85,3.26,3.45,6.14,4.57,8.21l1.31,2.45c0.18,0.29,0.32,0.6,0.42,0.92c-0.22-0.25-0.42-0.53-0.58-0.83l-1.44-2.37
		c-1.2-2-2.87-4.87-4.72-8.12l0.29,0.12c-0.84,0.28-1.56,0.83-2.05,1.56c-0.58,0.86-0.92,1.85-1,2.88c-0.1,0.98-0.1,1.96,0,2.94
		c0.15,1.68,0.41,3.35,0.79,5c0.32,1.4,0.67,2.52,0.9,3.29C231,397.94,231.12,398.31,231.2,398.69z"/>
	<path id="Path_367" class="st14" d="M228.14,400.33c-0.09-0.38-0.13-0.78-0.12-1.17c0-0.86-0.08-1.92-0.13-3.17
		c-0.08-2.68-0.17-6.38-0.22-10.47c-0.15-3.5-0.1-7,0.16-10.49c0.12-1.06,0.35-2.1,0.68-3.12c0.1-0.38,0.26-0.75,0.47-1.08
		c-0.37,1.39-0.63,2.81-0.79,4.24c-0.25,2.65,0,6.35,0,10.44s0.08,7.79,0.07,10.47v3.18C228.26,399.55,228.22,399.95,228.14,400.33z
		"/>
	<path id="Path_368" class="st14" d="M217.36,433.94c-0.07-0.06,0.73-1,1.71-2.71c0.57-1,1.07-2.04,1.49-3.11
		c0.49-1.32,0.87-2.68,1.14-4.06c0.23-1.39,0.35-2.79,0.35-4.2c-0.02-1.15-0.12-2.3-0.3-3.43c-0.33-1.95-0.75-3.11-0.66-3.14
		c0.16,0.24,0.28,0.51,0.36,0.79c0.28,0.74,0.5,1.5,0.66,2.28c0.24,1.15,0.38,2.32,0.42,3.49c0.09,2.89-0.43,5.77-1.53,8.45
		c-0.44,1.09-0.98,2.13-1.61,3.12c-0.42,0.67-0.89,1.31-1.41,1.9C217.61,433.74,217.39,433.96,217.36,433.94z"/>
	<path id="Path_369" class="st13" d="M239.73,427.69l11.05,3.84c0,0,10.56-5.47,17.84,0s13.6,19.88,11.6,25.71
		c0,0-4.99,6.22-8.85,7.13s-18.68-2.7-24.86-4s-16.84-8.24-16.84-8.24L239.73,427.69z"/>
	<path id="Path_370" class="st14" d="M241.09,443.98c-0.08-0.33-0.12-0.66-0.12-1c0-0.75-0.09-1.64-0.15-2.68
		c-0.12-2.26-0.27-5.38-0.32-8.84s0.05-6.59,0.25-8.85c0.1-1.13,0.23-2,0.34-2.67c0.02-0.34,0.1-0.68,0.23-1
		c0.08,0-0.09,1.4-0.2,3.66s-0.15,5.37-0.1,8.82s0.12,6.43,0.16,8.83v2.68C241.2,443.28,241.17,443.64,241.09,443.98L241.09,443.98z
		"/>
	<path id="Path_371" class="st7" d="M277.54,431.07c-1.15-1.19-2.37-2.3-3.67-3.32c-6.53-4.9-15.37-5.38-22.4-1.23
		c-1.4,0.87-2.73,1.84-3.99,2.89c0.26-0.37,0.57-0.7,0.91-1c0.9-0.84,1.88-1.58,2.92-2.22c7.11-4.44,16.25-3.93,22.82,1.27
		c0.97,0.75,1.86,1.6,2.66,2.53C277.08,430.32,277.33,430.68,277.54,431.07z"/>
	<path id="Path_372" class="st7" d="M276.12,421.84c-1.43-1.03-2.97-1.88-4.6-2.54c-4.01-1.42-8.36-1.55-12.44-0.37
		c-2.25,0.63-4.41,1.53-6.44,2.68c-1.65,0.95-3.22,2.06-4.66,3.3c-1.24,1.06-2.19,2-2.84,2.63c-0.32,0.36-0.67,0.7-1.05,1
		c0.26-0.4,0.56-0.78,0.9-1.12c0.86-0.97,1.78-1.9,2.75-2.77c1.43-1.3,3-2.45,4.66-3.43c2.05-1.2,4.25-2.13,6.54-2.77
		c4.18-1.22,8.65-1.04,12.72,0.53c1.21,0.49,2.36,1.13,3.4,1.92c0.37,0.27,0.62,0.53,0.81,0.69
		C275.97,421.66,276.05,421.75,276.12,421.84z"/>
	<path id="Path_373" class="st7" d="M276.21,413.84c0,0.1-2-0.49-5.17-0.92c-1.88-0.25-3.77-0.37-5.66-0.36
		c-2.32,0.03-4.63,0.23-6.92,0.62c-2.28,0.42-4.53,1.02-6.72,1.78c-1.79,0.64-3.52,1.4-5.2,2.28c-2.87,1.5-4.48,2.72-4.54,2.63
		c0.34-0.33,0.71-0.62,1.11-0.88c0.43-0.34,0.89-0.66,1.37-0.94c0.55-0.35,1.17-0.76,1.89-1.14c1.68-0.93,3.42-1.73,5.22-2.4
		c2.21-0.81,4.48-1.42,6.79-1.84c2.31-0.39,4.65-0.59,6.99-0.59c1.92,0.01,3.83,0.17,5.72,0.47c0.81,0.1,1.53,0.29,2.16,0.42
		c0.55,0.11,1.09,0.25,1.62,0.42C275.32,413.5,275.77,413.65,276.21,413.84z"/>
	<path id="Path_374" class="st7" d="M191.52,315.92c0.41,0.93,0.67,1.92,0.76,2.94c0.3,2.87,0.16,5.76-0.42,8.59
		c-0.35,2.03-0.83,4.03-1.43,6c-0.79,2.29-1.76,4.51-2.9,6.65c-2.39,4.6-5.38,9.61-8.86,15l-0.4,0.63v-11.85l0.39,0.19l-9.38,7.49
		l0.08-0.12c-2.22,7.3-3.59,14.83-4.07,22.45c-0.92,12.17-0.18,23.81,0.39,34.37s0.82,20.09,1.15,28.09s0.6,14.46,0.84,18.93
		c0.14,2.22,0.24,3.94,0.31,5.14c0,0.57,0.07,1,0.09,1.34c0.01,0.15,0.01,0.31,0,0.46c-0.01-0.15-0.03-0.3-0.07-0.45
		c-0.07-0.3-0.08-0.77-0.14-1.34c-0.11-1.17-0.25-2.9-0.4-5.14c-0.3-4.46-0.65-10.93-1-18.93s-0.78-17.51-1.26-28.08
		s-1.35-22.22-0.43-34.43c0.5-7.66,1.91-15.24,4.18-22.57v-0.07h0.06l9.35-7.51l0.39-0.32v11.6l-0.41-0.13
		c6.86-10.65,12.44-19.91,13.3-27.4c0.59-2.8,0.77-5.67,0.54-8.52c-0.08-0.75-0.22-1.49-0.41-2.22
		C191.68,316.45,191.59,316.19,191.52,315.92z"/>
	<path id="Path_375" class="st12" d="M173.6,444.91h-0.32c-1.55,0.1-2.72,1.43-2.62,2.98c0.1,1.55,1.43,2.72,2.98,2.62
		c1.55-0.1,2.72-1.43,2.62-2.98c-0.09-1.41-1.21-2.53-2.62-2.62H173.6z"/>
	<path id="Path_376" class="st12" d="M173.6,406.37h-0.32c-1.54,0.1-2.71,1.43-2.61,2.97c0.1,1.54,1.43,2.71,2.97,2.61
		c1.54-0.1,2.71-1.43,2.61-2.97c-0.09-1.4-1.21-2.52-2.61-2.61H173.6z"/>
	<path id="Path_377" class="st12" d="M173.29,371.89c1.55,0.1,2.9-1.08,3-2.63c0.1-1.55-1.08-2.9-2.63-3l0,0h-0.37
		c-1.56,0-2.82,1.26-2.82,2.82s1.26,2.82,2.82,2.82V371.89z"/>
	<path id="Path_378" class="st7" d="M130.12,270.76c-3.49-3.89-6.99-7.81-9.58-12.37s-4.07-9.89-3.23-15c0.5-3,1.78-5.9,2-9
		c0.28-4.2-1.48-8.59,0-12.52c2.32-6.16,10.59-7.11,15.61-11.36c3.9-3.31,5.8-8.68,10.09-11.46c3.75-2.44,8.58-2.38,12.98-1.76
		s8.88,1.75,13.31,1.15c3.15-0.42,6.13-1.7,9.22-2.47s6.55-1,9.3,0.64s4.3,5.51,2.5,8.14c5.13-2.37,11.65,1.64,13.06,7.12
		c1.41,5.48-1.41,11.41-5.76,15s-9.98,5.3-15.53,6.35c-15.71,3-32.78,1.29-46.33-7.23"/>
	<path id="Path_379" class="st13" d="M185.41,323.69c-0.77-6-1.4-10.93-1.44-11.55c0,0,19.89-4.48,18.79-24.62
		c-0.53-9.74-3.24-29.7-5.92-47.73c-2.83-19.37-20.09-33.3-39.62-32l-2,0.12c-20.82,2.63-30.23,21.81-27.04,42.59l11.24,69.67
		c0,0,4.79,15.41,15.05,18.08l12.98,18.52l2.14-8l9.64-8.42c1.85-2.18,3.45-4.56,4.76-7.09
		C185.47,330.3,185.96,326.95,185.41,323.69z"/>
	<path id="Path_380" class="st14" d="M183.98,311.86c0,0-12.63,1.88-26.7-5.71c0,0,7.17,14.07,27.1,10.92L183.98,311.86z"/>
	<path id="Path_381" class="st7" d="M190.38,257.11c0.12,1.56-1.02,2.93-2.58,3.09c-1.5,0.22-2.9-0.82-3.11-2.32
		c0-0.03-0.01-0.05-0.01-0.08c-0.14-1.57,1.02-2.96,2.59-3.11c1.5-0.21,2.89,0.83,3.1,2.34
		C190.38,257.05,190.38,257.08,190.38,257.11L190.38,257.11z"/>
	<path id="Path_382" class="st7" d="M193.18,249.97c-0.33,0.4-2.62-1.07-5.7-0.85s-5.21,1.91-5.61,1.57
		c-0.17-0.15,0.15-0.85,1.09-1.64c1.27-1.02,2.83-1.62,4.45-1.71c1.61-0.12,3.21,0.29,4.57,1.15
		C192.98,249.13,193.34,249.79,193.18,249.97z"/>
	<path id="Path_383" class="st7" d="M161.2,259.2c0.12,1.56-1.02,2.93-2.58,3.08c-1.49,0.22-2.89-0.81-3.11-2.3
		c0-0.03-0.01-0.06-0.01-0.09c-0.12-1.55,1.02-2.92,2.57-3.09c1.51-0.22,2.91,0.82,3.13,2.33C161.2,259.15,161.2,259.18,161.2,259.2
		L161.2,259.2z"/>
	<path id="Path_384" class="st7" d="M162.87,252.58c-0.34,0.4-2.62-1.07-5.7-0.85s-5.25,1.91-5.61,1.55
		c-0.18-0.15,0.14-0.85,1.08-1.64c1.28-1.02,2.83-1.61,4.46-1.71c1.6-0.12,3.2,0.29,4.56,1.15
		C162.66,251.74,163.03,252.4,162.87,252.58z"/>
	<path id="Path_385" class="st7" d="M175.6,274.77c0-0.18,1.88-0.64,4.99-1.25c0.78-0.13,1.52-0.34,1.62-0.88
		c0.01-0.82-0.23-1.63-0.69-2.31l-2.74-5.86c-3.8-8.34-6.62-15.23-6.28-15.38s3.69,6.49,7.51,14.84l2.64,5.9
		c0.56,0.92,0.78,2.01,0.62,3.07c-0.2,0.58-0.64,1.03-1.22,1.24c-0.43,0.15-0.88,0.24-1.33,0.28
		C177.57,274.8,175.63,274.94,175.6,274.77z"/>
	<path id="Path_386" class="st7" d="M162.85,240.4c-0.25,0.87-3.36,0.67-6.99,1.35s-6.46,1.87-6.99,1.15
		c-0.24-0.35,0.22-1.17,1.35-2.07c3.06-2.22,6.97-2.93,10.61-1.9C162.24,239.38,162.96,240,162.85,240.4z"/>
	<path id="Path_387" class="st7" d="M191.45,241.09c-0.49,0.74-2.67,0.16-5.23,0.29s-4.69,0.79-5.24,0.09
		c-0.24-0.34,0.06-1.07,1-1.8c2.49-1.8,5.82-1.91,8.44-0.3C191.33,240.03,191.67,240.69,191.45,241.09z"/>
	<path id="Path_388" class="st13" d="M130.87,265.35c-0.35-0.12-14.08-3.16-12.72,10.57s16.2,9.25,16.2,8.86
		C134.35,284.39,130.87,265.35,130.87,265.35z"/>
	<path id="Path_389" class="st14" d="M128.27,280.27c-0.07,0-0.22,0.19-0.61,0.41c-0.54,0.3-1.18,0.38-1.78,0.22
		c-1.51-0.39-3-2.57-3.27-5c-0.15-1.17-0.04-2.37,0.33-3.49c0.18-0.89,0.78-1.64,1.62-2c0.55-0.2,1.17,0.01,1.48,0.52
		c0.22,0.37,0.16,0.65,0.23,0.66s0.27-0.25,0.11-0.81c-0.11-0.33-0.33-0.62-0.63-0.81c-0.41-0.27-0.91-0.38-1.39-0.28
		c-1.12,0.34-1.98,1.25-2.28,2.38c-0.47,1.25-0.62,2.59-0.45,3.91c0.36,2.76,2,5.21,4.06,5.58c0.77,0.15,1.56-0.07,2.16-0.58
		C128.28,280.6,128.35,280.29,128.27,280.27z"/>
	<path id="Path_390" class="st7" d="M195.83,221.04c-0.94,5.47-11.98,10.48-21.19,10.21c-8.46-0.25-12.64-4.45-18.78-7.44
		c-3.89-1.89-3.89-1.89-9.18-1c-4.26,0.69-6.48,5.74-8.88,9.34c4.56,10,2.72,21.56,0.78,32.36c-0.08,1.22-0.57,2.37-1.39,3.28
		c-1.54,1.36-3.99,0.55-5.55-0.84c-2.43-2.23-3.53-5.53-4.32-8.73c-1.93-7.28-2.4-14.87-1.36-22.33c1.05-7.49,4.27-14.52,9.27-20.2
		c6.53-6.89,15.48-10.98,24.96-11.39c9.43-0.34,18.73,2.31,26.58,7.56c3.73,2.27,6.85,5.42,9.09,9.17"/>
	<path id="Path_391" class="st14" d="M177.63,281.69l-6.99-3.26c-0.38-0.23-0.82-0.34-1.27-0.32c-0.49,0.11-0.92,0.4-1.21,0.82
		c-1.67,2.01-1.98,4.83-0.78,7.15c1.32,2.28,4.08,3.3,6.56,2.42c2.48-1,3.67-3.91,3.87-6.59L177.63,281.69z"/>
	<path id="Path_392" class="st7" d="M174.16,289.02c0,0.06-0.33,0.26-1,0.41c-1,0.18-2.03,0.11-3-0.22
		c-1.47-0.5-2.71-1.53-3.46-2.89c-0.97-1.68-1.12-3.71-0.43-5.52c0.35-0.93,0.9-1.76,1.62-2.45c0.35-0.33,0.73-0.62,1.14-0.86
		c0.25-0.15,0.52-0.23,0.81-0.25c0.28-0.01,0.55,0.04,0.81,0.15c0.37,0.19,0.74,0.4,1.09,0.62l0.95,0.59l1.71,1.06
		c2.07,1.32,3.32,2.2,3.24,2.32c-0.07,0.12-1.45-0.52-3.61-1.68l-1.77-1l-1-0.55c-0.34-0.17-0.7-0.4-1-0.52
		c-0.25-0.12-0.55-0.09-0.77,0.08c-0.33,0.21-0.64,0.45-0.92,0.73c-0.59,0.59-1.06,1.3-1.36,2.08c-0.59,1.53-0.48,3.24,0.3,4.69
		c0.62,1.2,1.64,2.14,2.89,2.66c0.86,0.35,1.78,0.52,2.71,0.51C173.76,289.01,174.13,288.95,174.16,289.02z"/>
	<path id="Path_393" class="st7" d="M171.96,257.46c-0.1-1.17-0.28-2.33-0.55-3.48c-1.95-7.57-9.66-12.13-17.23-10.18
		c-0.45,0.12-0.89,0.25-1.33,0.41c-1.28,0.46-2.48,1.11-3.56,1.93c-1.16,0.83-2.17,1.84-3,3c-3.65,4.95-3.65,11.7,0,16.65
		c0.83,1.16,1.84,2.17,3,3c1.08,0.82,2.29,1.47,3.56,1.93c7.37,2.67,15.51-1.15,18.17-8.52c0.15-0.41,0.28-0.83,0.39-1.25
		c0.27-1.14,0.45-2.3,0.55-3.47c0.01,0.08,0.01,0.15,0,0.23c0,0.18,0,0.41,0,0.68c0.01,0.37-0.02,0.74-0.08,1.11
		c-0.06,0.51-0.15,1.01-0.27,1.5c-0.32,1.36-0.84,2.67-1.55,3.87c-3.51,6.02-10.83,8.67-17.38,6.3c-1.32-0.47-2.57-1.15-3.68-2
		c-1.19-0.86-2.24-1.9-3.1-3.09c-3.79-5.13-3.79-12.12,0-17.25c0.85-1.19,1.89-2.24,3.08-3.09c1.12-0.85,2.36-1.53,3.68-2
		c6.56-2.37,13.87,0.28,17.38,6.3c0.71,1.2,1.23,2.51,1.55,3.87c0.12,0.49,0.21,0.99,0.27,1.5c0.06,0.37,0.09,0.74,0.08,1.11
		c0,0.27,0,0.5,0,0.68C171.96,257.29,171.96,257.37,171.96,257.46L171.96,257.46z"/>
	<path id="Path_394" class="st7" d="M206.14,256.11c-0.1-1.14-0.27-2.27-0.53-3.39c-0.8-3.02-2.59-5.69-5.09-7.57
		c-1.7-1.3-3.69-2.17-5.79-2.55c-2.41-0.44-4.9-0.23-7.21,0.61c-1.24,0.45-2.41,1.08-3.46,1.87c-1.11,0.82-2.09,1.8-2.9,2.92
		c-3.54,4.83-3.54,11.39,0,16.22c0.81,1.12,1.78,2.1,2.9,2.91c1.05,0.8,2.22,1.43,3.46,1.88c2.31,0.84,4.79,1.05,7.21,0.61
		c2.1-0.38,4.09-1.25,5.79-2.55c2.5-1.88,4.29-4.55,5.09-7.57C205.87,258.38,206.05,257.25,206.14,256.11c0.02,0.3,0.02,0.59,0,0.89
		c0,0.36-0.02,0.73-0.08,1.09c-0.05,0.49-0.14,0.98-0.26,1.46c-1.81,7.53-9.38,12.17-16.91,10.37c-0.51-0.12-1.02-0.28-1.52-0.46
		c-2.64-0.96-4.94-2.68-6.61-4.94c-3.69-5-3.69-11.82,0-16.82c3.23-4.4,8.7-6.55,14.06-5.53c5.4,1.05,9.69,5.16,10.98,10.5
		c0.12,0.48,0.21,0.97,0.26,1.46c0.06,0.36,0.08,0.73,0.08,1.09C206.17,255.52,206.17,255.82,206.14,256.11L206.14,256.11z"/>
	<path id="Path_395" class="st7" d="M178.28,252.95c-0.06,0.05-0.39-0.22-1-0.51c-0.79-0.37-1.65-0.56-2.52-0.55
		c-0.87,0.01-1.72,0.23-2.49,0.64c-0.6,0.31-0.92,0.6-1,0.54s0.18-0.44,0.78-0.86c1.61-1.1,3.72-1.14,5.37-0.09
		C177.78,252.32,178.07,252.61,178.28,252.95z"/>
	<path id="Path_396" class="st7" d="M144.18,255.42c-1.98,1.8-4.06,3.47-6.25,5c-2.09,1.67-4.29,3.2-6.57,4.59
		c1.97-1.8,4.06-3.47,6.26-5C139.71,258.34,141.9,256.81,144.18,255.42z"/>
	<g id="Group_101" transform="translate(91.047 125.12)" class="st10">
		<path id="Path_397" class="st11" d="M41.3,195.38c-1.39,13.57,3.76,27.9,14.64,36.12c0.85,0.65,1.92,1.29,2.92,0.92
			c0.67-0.33,1.21-0.88,1.52-1.56c3.05-5.27,4.19-11.43,3.23-17.44c-1.72,4.54-3.2,9-4.93,13.74
			C49.23,221.4,43.3,209.16,41.3,195.38z"/>
	</g>
	<path id="Path_398" class="st16" d="M169.16,351.36l7.99-2.92l1.32,13.51c0,0,8.61-15.71,12.17-22.87s1.73-19.82,1.73-19.82
		s1.27,11-7.35,25.07l-6.51,10.6v-11.1L169.16,351.36z"/>
	<g id="Group_102" transform="translate(7.256 222.944)" class="st10">
		<path id="Path_399" class="st11" d="M69.18,197.08c-3.64-1.55-7.64-2.05-11.55-1.45c-4.17,0.34-8.15,1.85-11.5,4.36
			c-3.24,2.61-5.42,6.73-4.99,10.87l0.4,0.05c2.79-7.54,8.32-13,15.46-13.69s14.1,2.51,18.97,7.76
			C75.43,201.06,72.69,198.75,69.18,197.08z"/>
	</g>
	<g id="Group_103" transform="translate(207.467 226.683)" class="st10">
		<path id="Path_400" class="st11" d="M70.59,201.01c-2.76-2.84-6.38-4.71-10.3-5.31c-6.92-1.16-13.99,0.89-19.21,5.57l1.52-1.24
			c3.86-2.33,8.29-3.53,12.8-3.48c4.52,0.08,8.86,1.81,12.19,4.88c3,2.84,4.78,6.69,6.49,10.44
			C74.64,207.91,73.36,203.9,70.59,201.01z"/>
	</g>
	<path id="Path_401" class="st7" d="M226.65,364.99c0.08-0.37,0.2-0.74,0.36-1.09c0.31-0.79,0.69-1.76,1.13-2.91
		c1-2.45,2.3-5.83,3.69-9.6s2.61-7.2,3.48-9.68l1-2.95c0.11-0.37,0.25-0.72,0.44-1.06c-0.03,0.38-0.12,0.76-0.25,1.12
		c-0.19,0.72-0.49,1.74-0.88,3c-0.78,2.52-1.94,6-3.33,9.75s-2.79,7.15-3.84,9.56c-0.52,1.21-1,2.18-1.29,2.85
		C227.03,364.34,226.86,364.68,226.65,364.99z"/>
	<path id="Path_402" class="st7" d="M100.78,365.97c-0.14,0-1.23-4.73-2.43-10.63s-2.06-10.65-1.95-10.73s1.22,4.73,2.42,10.63
		S100.92,365.94,100.78,365.97z"/>
	<path id="Path_403" class="st13" d="M98.89,425.46c0.32,0.16-3.65-31.16-3.65-31.16s2.51-23.77,3.91-24.87v-8.39
		c0,0,3.88-2.35,4.92,1.45c0,0,3.45-3,3.99,4.13s0.73,14.41,0.73,14.41l7.66,19.18l1.26,0.64c0,0,1.65-15,2.61-17.24
		s1.62-7.59,5.24-6.78s3.93,3.81,3.29,8.71s-1.47,10-1.16,13.14s1.74,10.13,1.3,15.67s-3.48,11.38-6.65,15.48
		s-9.26,12.59-12.55,15.14C108.72,445.87,98.89,425.46,98.89,425.46z"/>
	<path id="Path_404" class="st14" d="M102.76,399.97c-0.05-0.45-0.05-0.89,0-1.34c0.06-1,0.15-2.18,0.25-3.64
		c0.23-3.07,0.59-7.31,1-12c0.22-2.33,0.43-4.55,0.62-6.59c0.11-0.94,0.11-1.89,0-2.83c-0.11-0.8-0.46-1.56-1-2.16
		c-0.81-0.87-1.94-1.37-3.12-1.37c-0.44,0.02-0.88,0.07-1.31,0.16c0.1-0.07,0.21-0.12,0.32-0.16c0.32-0.12,0.66-0.19,1-0.21
		c1.27-0.07,2.51,0.41,3.4,1.33c0.6,0.65,0.99,1.47,1.11,2.35c0.13,0.97,0.13,1.96,0,2.93c-0.18,2-0.38,4.27-0.58,6.6
		c-0.43,4.68-0.85,8.91-1.18,12l-0.41,3.63C102.87,399.11,102.83,399.54,102.76,399.97z"/>
	<path id="Path_405" class="st14" d="M106.88,387.16c-0.56,0.76-1.01,1.59-1.36,2.47c-0.61,2.21-1.03,4.48-1.27,6.76
		c-0.42,2.68-0.82,5.1-1.14,6.85c-0.12,0.95-0.32,1.9-0.62,2.81c0-0.96,0.09-1.92,0.26-2.87c0.22-1.76,0.57-4.19,1-6.87
		c0.23-2.32,0.71-4.6,1.45-6.81c0.26-0.66,0.63-1.27,1.09-1.81C106.62,387.29,106.86,387.14,106.88,387.16z"/>
	<path id="Path_406" class="st14" d="M104.06,362.08c0.14,0.32,0.23,0.66,0.27,1c0.14,0.64,0.31,1.57,0.5,2.73
		c0.38,2.31,0.8,5.52,1.07,9.09s0.32,6.81,0.28,9.15c0,1.17-0.05,2.12-0.1,2.77c0.01,0.34-0.03,0.67-0.12,1
		c-0.12-1.26-0.17-2.52-0.15-3.78c-0.05-2.34-0.17-5.56-0.43-9.11s-0.62-6.76-0.91-9.08C104.26,364.6,104.13,363.34,104.06,362.08
		L104.06,362.08z"/>
	<path id="Path_407" class="st14" d="M126.16,391.44c-0.77,0.5-1.73,0.58-2.58,0.22c-1.47-0.44-2.15-1.57-2-1.62
		c0.69,0.44,1.41,0.81,2.17,1.12C124.54,391.32,125.35,391.41,126.16,391.44L126.16,391.44z"/>
	<path id="Path_408" class="st13" d="M99.32,421.56l-20.23,8.52H67.03c0,0-11.92,3.73-13.76,14.93s-2.1,16.95,3.14,18.34
		s20.05,1.54,27.39-0.9s26.57-18,26.57-18l1.85-11.24L99.32,421.56z"/>
	<path id="Path_409" class="st14" d="M104.06,433.94c-0.21-0.16-0.4-0.34-0.58-0.53c-0.48-0.52-0.92-1.08-1.31-1.68
		c-1.27-1.98-2.22-4.14-2.83-6.41c-0.63-2.25-1.04-4.55-1.25-6.88c-0.13-0.96-0.16-1.93-0.08-2.9c0.22,0.94,0.36,1.89,0.44,2.85
		c0.31,2.29,0.77,4.56,1.39,6.79c0.6,2.22,1.49,4.36,2.64,6.36C103.39,433.05,104.13,433.87,104.06,433.94z"/>
	<path id="Path_410" class="st14" d="M112.88,437.49c0.54-1.4,0.92-2.86,1.15-4.34c0.45-3.62-0.52-7.27-2.72-10.18
		c-1.23-1.72-2.62-3.22-3.78-4.68c-1.06-1.27-1.98-2.66-2.74-4.14c-0.5-1.01-0.83-2.09-1-3.2c-0.06-0.4-0.06-0.82,0-1.22
		c0.23,1.48,0.7,2.91,1.38,4.25c0.79,1.43,1.72,2.77,2.79,4c1.17,1.42,2.57,2.92,3.82,4.68c1.22,1.65,2.08,3.54,2.53,5.55
		c0.34,1.65,0.38,3.34,0.13,5c-0.17,1.11-0.48,2.19-0.92,3.22c-0.16,0.36-0.31,0.63-0.41,0.81S112.89,437.5,112.88,437.49z"/>
	<path id="Path_411" class="st12" d="M81.68,388.69c-1.79-2.92-3.44-5.92-4.93-9c-1.65-3-3.14-6.08-4.47-9.23
		c1.79,2.92,3.44,5.92,4.93,9C78.85,382.46,80.34,385.54,81.68,388.69z"/>
	<path id="Path_412" class="st12" d="M114.38,352.2c0.85-2.56,1.87-5.07,3.05-7.5c1.02-2.5,2.2-4.93,3.52-7.28
		c-0.86,2.56-1.87,5.07-3.05,7.5C116.88,347.42,115.71,349.85,114.38,352.2z"/>
	<path id="Path_413" class="st12" d="M146.46,375.88c-1.66-1.6-3.19-3.31-4.59-5.14c-1.53-1.72-2.93-3.55-4.18-5.47
		c1.66,1.59,3.19,3.31,4.58,5.14C143.79,372.13,145.2,373.96,146.46,375.88z"/>
	<path id="Path_414" class="st12" d="M139.08,408.45c1.01-1.83,2.17-3.57,3.45-5.22c1.16-1.74,2.46-3.38,3.88-4.91
		c-1.01,1.83-2.17,3.58-3.45,5.22C141.81,405.29,140.51,406.93,139.08,408.45z"/>
	<path id="Path_415" class="st12" d="M129.15,454.46c-0.47-0.62-0.86-1.29-1.17-2c-0.66-1.28-1.51-3.07-2.37-5.08s-1.55-3.88-2-5.23
		c-0.3-0.72-0.51-1.47-0.64-2.24c0.41,0.66,0.75,1.37,1,2.11l2.15,5.15c0.83,1.91,1.57,3.64,2.22,5.13
		C128.69,452.99,128.96,453.71,129.15,454.46z"/>
	<path id="Path_416" class="st12" d="M157.31,434.9c-2.04-0.14-4.07-0.44-6.06-0.91c-2.03-0.3-4.04-0.78-5.99-1.42
		c4.05,0.44,8.06,1.22,11.98,2.33L157.31,434.9z"/>
	<path id="Path_417" class="st12" d="M179.27,391.91c1.79-2.32,3.72-4.53,5.77-6.62c1.93-2.21,3.99-4.31,6.17-6.28
		c-1.8,2.32-3.73,4.53-5.78,6.63C183.5,387.85,181.45,389.94,179.27,391.91z"/>
	<path id="Path_418" class="st12" d="M201.24,449.24c-0.11,0.1-3.33-3.65-7.21-8.35s-6.92-8.6-6.81-8.69s3.33,3.65,7.21,8.35
		S201.33,449.15,201.24,449.24z"/>
	<path id="Path_419" class="st12" d="M64.65,424.81c0.07,0.14-2.87,1.64-6.09,4.11s-5.45,4.91-5.57,4.8
		c0.36-0.63,0.82-1.21,1.36-1.7c1.2-1.28,2.5-2.45,3.89-3.51c1.39-1.06,2.87-2.01,4.41-2.82C63.28,425.3,63.95,425.01,64.65,424.81
		L64.65,424.81z"/>
	<path id="Path_420" class="st12" d="M72.88,402.69c-0.63,1.41-1.42,2.76-2.35,4c-0.79,1.34-1.72,2.59-2.79,3.72
		c0.64-1.41,1.42-2.75,2.35-4C70.88,405.07,71.82,403.82,72.88,402.69z"/>
	<path id="Path_421" class="st12" d="M91.42,424.41c-1.6-2.55-2.28-5.56-1.94-8.55c0.15,0,0.2,2,0.75,4.33
		S91.55,424.34,91.42,424.41z"/>
	<path id="Path_422" class="st12" d="M94.16,355.49c-1.24,0.43-2.53,0.71-3.84,0.81c-1.29,0.27-2.61,0.37-3.92,0.29
		c1.24-0.43,2.54-0.71,3.85-0.81C91.53,355.52,92.85,355.42,94.16,355.49z"/>
	<path id="Path_423" class="st12" d="M108.08,330.76c-2.15,1.59-4.5,2.9-6.99,3.88c1.02-0.87,2.15-1.6,3.36-2.17
		C105.58,331.75,106.8,331.18,108.08,330.76L108.08,330.76z"/>
	<path id="Path_424" class="st12" d="M147.23,341.21c-2.7-2.98-5.14-6.19-7.29-9.59C142.64,334.6,145.08,337.81,147.23,341.21z"/>
	<path id="Path_425" class="st12" d="M196.92,366.07c-2.75-2.72-4.82-6.05-6.04-9.72c0.15-0.06,1.22,2.27,2.9,4.94
		S197.04,365.97,196.92,366.07z"/>
	<path id="Path_426" class="st12" d="M215.89,372.33c-1.2,3.52-2.74,6.91-4.59,10.13c0.53-1.78,1.22-3.51,2.07-5.17
		C214.04,375.56,214.89,373.9,215.89,372.33z"/>
	<path id="Path_427" class="st12" d="M218.54,346.4c-1.82-1.77-3.5-3.66-5.05-5.66c-1.68-1.89-3.23-3.9-4.64-6
		C212.34,338.4,215.58,342.3,218.54,346.4z"/>
	<path id="Path_428" class="st12" d="M189.57,325.34c-0.32-1.59-0.47-3.22-0.45-4.84c-0.15-1.62-0.13-3.25,0.07-4.87
		c0.32,1.59,0.47,3.22,0.45,4.84C189.8,322.09,189.77,323.73,189.57,325.34z"/>
	<path id="Path_429" class="st12" d="M213.22,324.03c-2.02,0.53-4.09,0.9-6.17,1.09c-2.06,0.36-4.14,0.55-6.23,0.57
		c2.02-0.53,4.09-0.9,6.17-1.09C209.05,324.24,211.13,324.05,213.22,324.03z"/>
	<path id="Path_430" class="st12" d="M250.39,351.4c-1.39-2.28-2.63-4.64-3.71-7.08c-1.23-2.36-2.32-4.81-3.23-7.31
		c1.39,2.28,2.64,4.64,3.72,7.08C248.4,346.46,249.48,348.9,250.39,351.4z"/>
	<path id="Path_431" class="st12" d="M244.17,375.05c0.42-3.82,1.17-7.59,2.26-11.28c-0.12,1.92-0.41,3.82-0.87,5.69
		C245.27,371.36,244.8,373.23,244.17,375.05z"/>
	<path id="Path_432" class="st12" d="M261.39,393.69c-1.17-2.49-2.17-5.06-3-7.68c-0.99-2.56-1.81-5.19-2.47-7.86
		c1.16,2.5,2.16,5.07,3,7.69C259.91,388.4,260.73,391.03,261.39,393.69z"/>
	<path id="Path_433" class="st12" d="M258.98,404.6c-1.78-0.27-3.5-0.88-5.04-1.81c-1.62-0.78-3.07-1.88-4.26-3.24
		c0.1-0.12,1.94,1.4,4.51,2.78C256.76,403.71,259.03,404.45,258.98,404.6z"/>
	<path id="Path_434" class="st12" d="M281.12,429.46c-1.34-2.18-2.39-4.54-3.11-7C279.36,424.64,280.4,427,281.12,429.46z"/>
	<path id="Path_435" class="st12" d="M150.53,464.14c-0.43-1.44-0.69-2.93-0.78-4.43c-0.25-1.48-0.34-2.99-0.26-4.49
		c0.46,1.45,0.74,2.95,0.83,4.47C150.56,461.16,150.63,462.65,150.53,464.14z"/>
	<path id="Path_436" class="st12" d="M218.35,462.42c0.05-1.46,0.26-2.92,0.65-4.33c0.22-1.45,0.62-2.86,1.17-4.22
		c-0.05,1.46-0.27,2.92-0.66,4.33C219.29,459.65,218.9,461.07,218.35,462.42z"/>
</g>
<g id="freepik--speech-bubble--inject-18" transform="translate(408.76 61.023)">
	<path id="Path_437" class="st6" d="M41.11,274.16l8.83-15.44c-12.01-19.43-5.99-44.93,13.44-56.94
		c19.43-12.01,44.93-5.99,56.94,13.44c12.01,19.43,5.99,44.93-13.44,56.94c-14.65,9.06-33.39,8.08-47.02-2.44l0,0L41.11,274.16z"/>
	<path id="Path_438" class="st7" d="M41.11,274.16l18.74-4.28h0.19l-0.12-0.16l0,0l-0.18,0.17c2.63,2.04,5.48,3.76,8.51,5.14
		c3.61,1.62,7.43,2.71,11.34,3.24c2.17,0.3,4.36,0.41,6.55,0.33c1.13-0.06,2.27-0.09,3.42-0.18l3.49-0.53
		c16.52-3.25,29.47-16.12,32.84-32.62c1.19-6.11,1.02-12.4-0.49-18.43c-1.57-6.29-4.61-12.11-8.87-17l-1.71-1.95
		c-0.56-0.63-1.22-1.14-1.82-1.72c-0.58-0.59-1.21-1.14-1.88-1.64l-2-1.48c-0.65-0.5-1.34-0.96-2.06-1.36l-2.1-1.28l-2.2-1.07
		c-0.72-0.38-1.46-0.71-2.22-1c-5.89-2.32-12.23-3.3-18.54-2.85c-5.96,0.4-11.75,2.11-16.97,5c-9.42,5.25-16.46,13.93-19.65,24.23
		c-1.28,4.37-1.89,8.91-1.8,13.47c0.1,3.95,0.78,7.87,2,11.63c1.03,3.12,2.42,6.12,4.14,8.92v-0.13
		c-5.53,9.93-8.24,14.78-8.67,15.54c0.44-0.75,3.21-5.57,8.88-15.42v-0.12c-1.68-2.8-3.03-5.78-4.01-8.89
		c-1.22-3.73-1.89-7.62-2-11.55c-0.07-4.51,0.55-9.01,1.83-13.34c3.2-10.16,10.17-18.71,19.48-23.9c5.17-2.89,10.92-4.59,16.82-5
		c6.24-0.44,12.5,0.53,18.31,2.83c0.75,0.29,1.48,0.62,2.19,1l2.18,1.06l2.1,1.3c0.7,0.4,1.37,0.85,2,1.34l2,1.47
		c0.67,0.48,1.23,1.08,1.85,1.62c0.64,0.53,1.24,1.1,1.8,1.7l1.67,1.83c4.21,4.84,7.21,10.61,8.77,16.83
		c1.5,5.96,1.67,12.17,0.49,18.2c-1.14,5.71-3.49,11.11-6.89,15.83c-6.11,8.54-15.24,14.44-25.54,16.49l-3.45,0.54
		c-1.15,0.09-2.28,0.13-3.39,0.19c-2.17,0.09-4.34-0.01-6.49-0.3c-3.89-0.5-7.7-1.56-11.29-3.14c-3.01-1.35-5.86-3.05-8.48-5.06
		l-0.77-0.59l0.59,0.77l0,0l0.07-0.2L41.11,274.16z"/>
	<path id="Path_439" class="st7" d="M96.26,235.27c0.03,2.21,1.84,3.98,4.05,3.95c2.21-0.03,3.98-1.84,3.95-4.05
		c-0.03-2.21-1.84-3.98-4.05-3.95c-1.04,0.01-2.04,0.43-2.78,1.17C96.67,233.15,96.25,234.19,96.26,235.27z"/>
	<path id="Path_440" class="st7" d="M80.1,235.27c0.03,2.21,1.84,3.98,4.05,3.95s3.98-1.84,3.95-4.05s-1.84-3.98-4.05-3.95
		c-1.05,0.01-2.06,0.44-2.8,1.19C80.5,233.17,80.08,234.2,80.1,235.27z"/>
	<path id="Path_441" class="st7" d="M63.97,233.25c-1.08,1.92-0.4,4.35,1.53,5.43s4.35,0.4,5.43-1.53c1.08-1.92,0.4-4.35-1.53-5.43
		c-0.91-0.51-1.98-0.64-2.99-0.37C65.38,231.63,64.5,232.31,63.97,233.25z"/>
</g>
</svg>
