<?xml version="1.0" encoding="utf-8"?>
<!-- Generator: Adobe Illustrator 26.0.1, SVG Export Plug-In . SVG Version: 6.00 Build 0)  -->
<svg version="1.1" id="Layer_1" xmlns="http://www.w3.org/2000/svg" xmlns:xlink="http://www.w3.org/1999/xlink" x="0px" y="0px"
	 viewBox="0 0 612 792" style="enable-background:new 0 0 612 792;" xml:space="preserve">
<style type="text/css">
	.st0{fill:none;}
	.st1{opacity:0.81;}
	.st2{fill:url(#SVGID_1_);}
	.st3{fill:none;stroke:#717070;}
	.st4{fill:#FFFFFF;}
	.st5{fill:#010202;}
	.st6{fill:#717070;}
	.st7{opacity:0.82;}
	.st8{fill:url(#SVGID_00000050660172675346415080000013494741661464948401_);}
	.st9{fill:url(#SVGID_00000134958157099614215100000015553954177020982955_);}
</style>
<rect id="Rectangle_495" x="70.89" y="112.15" class="st0" width="460.28" height="533"/>
<g id="video_grid_graphic-2" transform="translate(0 0.174)">
	<g id="Group_119" class="st1">
		<g id="Rectangle_396">
			
				<linearGradient id="SVGID_1_" gradientUnits="userSpaceOnUse" x1="1.2463" y1="792.2055" x2="2.3463" y2="791.0015" gradientTransform="matrix(210.671 0 0 -147 -209.671 116546.4219)">
				<stop  offset="0" style="stop-color:#F28E62"/>
				<stop  offset="1" style="stop-color:#ED6C81"/>
			</linearGradient>
			<path class="st2" d="M89.89,112.15h170.67c11.05,0,20,8.95,20,20v107c0,11.05-8.95,20-20,20H89.89c-11.05,0-20-8.95-20-20v-107
				C69.89,121.1,78.84,112.15,89.89,112.15z"/>
			<path class="st3" d="M89.89,112.65h170.67c10.77,0,19.5,8.73,19.5,19.5v107c0,10.77-8.73,19.5-19.5,19.5H89.89
				c-10.77,0-19.5-8.73-19.5-19.5v-107C70.39,121.38,79.12,112.65,89.89,112.65z"/>
		</g>
		<g id="Group_1" transform="translate(80.874 49)">
			<g id="Ellipse_4" transform="translate(0)">
				<ellipse class="st4" cx="94.85" cy="137.15" rx="24.96" ry="25"/>
				<ellipse class="st3" cx="94.85" cy="137.15" rx="24.46" ry="24.5"/>
			</g>
			<g id="Polygon_1" transform="translate(39.223 13.369) rotate(90)">
				<path class="st5" d="M131.85-47.21h-16.48c-0.52,0-1-0.26-1.27-0.71s-0.3-0.99-0.07-1.46l8.24-16.67
					c0.26-0.52,0.76-0.84,1.34-0.84c0.58,0,1.09,0.31,1.34,0.84l8.24,16.67c0.23,0.47,0.21,1.01-0.07,1.46
					C132.84-47.47,132.37-47.21,131.85-47.21z"/>
				<path class="st6" d="M123.61-66.37c-0.39,0-0.72,0.21-0.9,0.56l-8.24,16.67c-0.22,0.45-0.04,0.83,0.05,0.97
					c0.09,0.14,0.35,0.47,0.85,0.47h16.48c0.5,0,0.76-0.33,0.85-0.47c0.09-0.14,0.27-0.52,0.05-0.97l-8.24-16.67
					C124.33-66.17,124-66.37,123.61-66.37 M123.61-67.37c0.71,0,1.43,0.37,1.79,1.11l8.24,16.67c0.66,1.33-0.31,2.89-1.79,2.89
					h-16.48c-1.48,0-2.45-1.56-1.79-2.89l8.24-16.67C122.18-67,122.89-67.37,123.61-67.37z"/>
			</g>
		</g>
	</g>
	<g id="Group_122" transform="translate(0.998 187)">
		<g id="Rectangle_396-2">
			<path class="st5" d="M89.89,112.15h170.67c11.05,0,20,8.95,20,20v107c0,11.05-8.95,20-20,20H89.89c-11.05,0-20-8.95-20-20v-107
				C69.89,121.1,78.84,112.15,89.89,112.15z"/>
			<path class="st3" d="M89.89,112.65h170.67c10.77,0,19.5,8.73,19.5,19.5v107c0,10.77-8.73,19.5-19.5,19.5H89.89
				c-10.77,0-19.5-8.73-19.5-19.5v-107C70.39,121.38,79.12,112.65,89.89,112.65z"/>
		</g>
		<g id="Group_1-2" transform="translate(80.874 49)">
			<g id="Ellipse_4-2" transform="translate(0)">
				<ellipse class="st4" cx="94.85" cy="137.15" rx="24.96" ry="25"/>
				<ellipse class="st3" cx="94.85" cy="137.15" rx="24.46" ry="24.5"/>
			</g>
			<g id="Polygon_1-2" transform="translate(39.767 13.179) rotate(90)">
				<path class="st5" d="M132.4-46.69h-17.02c-0.52,0-1-0.27-1.27-0.71c-0.28-0.44-0.3-0.99-0.07-1.46l8.51-17.19
					c0.26-0.52,0.76-0.83,1.34-0.83c0.58,0,1.09,0.31,1.34,0.83l8.51,17.19c0.23,0.47,0.21,1.01-0.07,1.46
					C133.4-46.96,132.92-46.69,132.4-46.69z"/>
				<path class="st6" d="M123.88-66.38c-0.39,0-0.72,0.21-0.9,0.56l-8.51,17.19c-0.22,0.45-0.04,0.83,0.05,0.97
					c0.09,0.14,0.35,0.47,0.85,0.47h17.02c0.5,0,0.76-0.33,0.85-0.47c0.09-0.14,0.27-0.52,0.05-0.97l-8.51-17.19
					C124.61-66.17,124.27-66.38,123.88-66.38 M123.88-67.38c0.71,0,1.42,0.37,1.79,1.11l8.51,17.19c0.66,1.33-0.31,2.89-1.79,2.89
					h-17.02c-1.48,0-2.45-1.56-1.79-2.89l8.51-17.19C122.46-67.01,123.17-67.38,123.88-67.38z"/>
			</g>
		</g>
	</g>
	<g id="Group_123" transform="translate(0.998 374)" class="st7">
		<g id="Rectangle_396-3">
			
				<linearGradient id="SVGID_00000009588435993133052520000017159934032736255369_" gradientUnits="userSpaceOnUse" x1="0.2483" y1="418.2055" x2="1.3483" y2="417.0015" gradientTransform="matrix(210.671 0 0 -147 0.5787 61568.4219)">
				<stop  offset="0" style="stop-color:#F28E62"/>
				<stop  offset="1" style="stop-color:#ED6C81"/>
			</linearGradient>
			<path style="fill:url(#SVGID_00000009588435993133052520000017159934032736255369_);" d="M89.89,112.15h170.67
				c11.05,0,20,8.95,20,20v107c0,11.05-8.95,20-20,20H89.89c-11.05,0-20-8.95-20-20v-107C69.89,121.1,78.84,112.15,89.89,112.15z"/>
			<path class="st3" d="M89.89,112.65h170.67c10.77,0,19.5,8.73,19.5,19.5v107c0,10.77-8.73,19.5-19.5,19.5H89.89
				c-10.77,0-19.5-8.73-19.5-19.5v-107C70.39,121.38,79.12,112.65,89.89,112.65z"/>
		</g>
		<g id="Group_1-3" transform="translate(80.874 49)">
			<g id="Ellipse_4-3" transform="translate(0)">
				<ellipse class="st4" cx="94.85" cy="137.15" rx="24.96" ry="25"/>
				<ellipse class="st3" cx="94.85" cy="137.15" rx="24.46" ry="24.5"/>
			</g>
			<g id="Polygon_1-3" transform="translate(39.223 13.542) rotate(90)">
				<path class="st5" d="M131.85-47.21h-16.48c-0.52,0-1-0.26-1.27-0.71s-0.3-0.99-0.07-1.46l8.24-16.67
					c0.26-0.52,0.76-0.84,1.34-0.84c0.58,0,1.09,0.31,1.34,0.84l8.24,16.67c0.23,0.47,0.21,1.01-0.07,1.46
					C132.84-47.47,132.37-47.21,131.85-47.21z"/>
				<path class="st6" d="M123.61-66.37c-0.39,0-0.72,0.21-0.9,0.56l-8.24,16.67c-0.22,0.45-0.04,0.83,0.05,0.97
					c0.09,0.14,0.35,0.47,0.85,0.47h16.48c0.5,0,0.76-0.33,0.85-0.47c0.09-0.14,0.27-0.52,0.05-0.97l-8.24-16.67
					C124.33-66.17,124-66.37,123.61-66.37 M123.61-67.37c0.71,0,1.43,0.37,1.79,1.11l8.24,16.67c0.66,1.33-0.31,2.89-1.79,2.89
					h-16.48c-1.48,0-2.45-1.56-1.79-2.89l8.24-16.67C122.18-67,122.89-67.37,123.61-67.37z"/>
			</g>
		</g>
	</g>
	<g id="Group_124" transform="translate(251.608 187)" class="st1">
		<g id="Rectangle_396-4">
			
				<linearGradient id="SVGID_00000048478881800036114020000005468420290949706891_" gradientUnits="userSpaceOnUse" x1="-250.3617" y1="605.2055" x2="-249.2617" y2="604.0015" gradientTransform="matrix(210.671 0 0 -147 52796.8398 89057.4219)">
				<stop  offset="0" style="stop-color:#F28E62"/>
				<stop  offset="1" style="stop-color:#ED6C81"/>
			</linearGradient>
			<path style="fill:url(#SVGID_00000048478881800036114020000005468420290949706891_);" d="M89.89,112.15h170.67
				c11.05,0,20,8.95,20,20v107c0,11.05-8.95,20-20,20H89.89c-11.05,0-20-8.95-20-20v-107C69.89,121.1,78.84,112.15,89.89,112.15z"/>
			<path class="st3" d="M89.89,112.65h170.67c10.77,0,19.5,8.73,19.5,19.5v107c0,10.77-8.73,19.5-19.5,19.5H89.89
				c-10.77,0-19.5-8.73-19.5-19.5v-107C70.39,121.38,79.12,112.65,89.89,112.65z"/>
		</g>
		<g id="Group_1-4" transform="translate(80.874 49)">
			<g id="Ellipse_4-4" transform="translate(0)">
				<ellipse class="st4" cx="94.85" cy="137.15" rx="24.96" ry="25"/>
				<ellipse class="st3" cx="94.85" cy="137.15" rx="24.46" ry="24.5"/>
			</g>
			<g id="Polygon_1-4" transform="translate(39.223 13.456) rotate(90)">
				<path class="st5" d="M131.85-47.21h-16.48c-0.52,0-1-0.26-1.27-0.71s-0.3-0.99-0.07-1.46l8.24-16.67
					c0.26-0.52,0.76-0.84,1.34-0.84c0.58,0,1.09,0.31,1.34,0.84l8.24,16.67c0.23,0.47,0.21,1.01-0.07,1.46
					C132.84-47.47,132.37-47.21,131.85-47.21z"/>
				<path class="st6" d="M123.61-66.37c-0.39,0-0.72,0.21-0.9,0.56l-8.24,16.67c-0.22,0.45-0.04,0.83,0.05,0.97
					c0.09,0.14,0.35,0.47,0.85,0.47h16.48c0.5,0,0.76-0.33,0.85-0.47c0.09-0.14,0.27-0.52,0.05-0.97l-8.24-16.67
					C124.33-66.17,124-66.37,123.61-66.37 M123.61-67.37c0.71,0,1.43,0.37,1.79,1.11l8.24,16.67c0.66,1.33-0.31,2.89-1.79,2.89
					h-16.48c-1.48,0-2.45-1.56-1.79-2.89l8.24-16.67C122.18-67,122.89-67.37,123.61-67.37z"/>
			</g>
		</g>
	</g>
	<g id="Group_125" transform="translate(250.608)">
		<path id="Rectangle_396-5" class="st5" d="M89.89,112.15h170.67c11.05,0,20,8.95,20,20v107c0,11.05-8.95,20-20,20H89.89
			c-11.05,0-20-8.95-20-20v-107C69.89,121.1,78.84,112.15,89.89,112.15z"/>
		<g id="Group_1-5" transform="translate(80.874 49)">
			<g id="Ellipse_4-5" transform="translate(0)">
				<ellipse class="st4" cx="94.85" cy="137.15" rx="24.96" ry="25"/>
				<ellipse class="st3" cx="94.85" cy="137.15" rx="24.46" ry="24.5"/>
			</g>
			<g id="Polygon_1-5" transform="translate(39.223 13.369) rotate(90)">
				<path class="st5" d="M131.85-47.21h-16.48c-0.52,0-1-0.26-1.27-0.71s-0.3-0.99-0.07-1.46l8.24-16.67
					c0.26-0.52,0.76-0.84,1.34-0.84c0.58,0,1.09,0.31,1.34,0.84l8.24,16.67c0.23,0.47,0.21,1.01-0.07,1.46
					C132.84-47.47,132.37-47.21,131.85-47.21z"/>
				<path class="st6" d="M123.61-66.37c-0.39,0-0.72,0.21-0.9,0.56l-8.24,16.67c-0.22,0.45-0.04,0.83,0.05,0.97
					c0.09,0.14,0.35,0.47,0.85,0.47h16.48c0.5,0,0.76-0.33,0.85-0.47c0.09-0.14,0.27-0.52,0.05-0.97l-8.24-16.67
					C124.33-66.17,124-66.37,123.61-66.37 M123.61-67.37c0.71,0,1.43,0.37,1.79,1.11l8.24,16.67c0.66,1.33-0.31,2.89-1.79,2.89
					h-16.48c-1.48,0-2.45-1.56-1.79-2.89l8.24-16.67C122.18-67,122.89-67.37,123.61-67.37z"/>
			</g>
		</g>
	</g>
	<g id="Group_126" transform="translate(251.608 374)">
		<g id="Rectangle_396-6">
			<path class="st5" d="M89.89,112.15h170.67c11.05,0,20,8.95,20,20v107c0,11.05-8.95,20-20,20H89.89c-11.05,0-20-8.95-20-20v-107
				C69.89,121.1,78.84,112.15,89.89,112.15z"/>
			<path class="st3" d="M89.89,112.65h170.67c10.77,0,19.5,8.73,19.5,19.5v107c0,10.77-8.73,19.5-19.5,19.5H89.89
				c-10.77,0-19.5-8.73-19.5-19.5v-107C70.39,121.38,79.12,112.65,89.89,112.65z"/>
		</g>
		<g id="Group_1-6" transform="translate(80.874 49)">
			<g id="Ellipse_4-6" transform="translate(0)">
				<ellipse class="st4" cx="94.85" cy="137.15" rx="24.96" ry="25"/>
				<ellipse class="st3" cx="94.85" cy="137.15" rx="24.46" ry="24.5"/>
			</g>
			<g id="Polygon_1-6" transform="translate(39.223 13.542) rotate(90)">
				<path class="st5" d="M131.85-47.21h-16.48c-0.52,0-1-0.26-1.27-0.71s-0.3-0.99-0.07-1.46l8.24-16.67
					c0.26-0.52,0.76-0.84,1.34-0.84c0.58,0,1.09,0.31,1.34,0.84l8.24,16.67c0.23,0.47,0.21,1.01-0.07,1.46
					C132.84-47.47,132.37-47.21,131.85-47.21z"/>
				<path class="st6" d="M123.61-66.37c-0.39,0-0.72,0.21-0.9,0.56l-8.24,16.67c-0.22,0.45-0.04,0.83,0.05,0.97
					c0.09,0.14,0.35,0.47,0.85,0.47h16.48c0.5,0,0.76-0.33,0.85-0.47c0.09-0.14,0.27-0.52,0.05-0.97l-8.24-16.67
					C124.33-66.17,124-66.37,123.61-66.37 M123.61-67.37c0.71,0,1.43,0.37,1.79,1.11l8.24,16.67c0.66,1.33-0.31,2.89-1.79,2.89
					h-16.48c-1.48,0-2.45-1.56-1.79-2.89l8.24-16.67C122.18-67,122.89-67.37,123.61-67.37z"/>
			</g>
		</g>
	</g>
</g>
</svg>
